PangeaArabic.glyphspackage
{
glyphname = quotesingle;
kernLeft = quotesingle;
kernRight = quotesingle;
layers = (
{
background = {
shapes = (
{
closed = 1;
nodes = (
(50,545,l),
(57,464,l),
(106,464,l),
(113,545,l),
(113,700,l),
(50,700,l)
);
}
);
};
layerId = "9CA0F1F1-C419-4983-8E88-5CF3F967428B";
shapes = (
{
closed = 1;
nodes = (
(106,464,l),
(113,545,l),
(113,700,l),
(50,700,l),
(50,545,l),
(57,464,l)
);
}
);
width = 163;
},
{
background = {
shapes = (
{
closed = 1;
nodes = (
(41,524,l),
(60,405,l),
(168,405,l),
(187,524,l),
(187,700,l),
(41,700,l)
);
}
);
};
hints = (
{
horizontal = 1;
options = 4;
origin = (0,3);
stem = -1;
target = (0,5);
type = TTStem;
}
);
layerId = "5500A485-9BC9-4FA7-853B-8075021C5598";
shapes = (
{
closed = 1;
nodes = (
(168,405,l),
(187,524,l),
(187,700,l),
(41,700,l),
(41,524,l),
(60,405,l)
);
}
);
width = 228;
},
{
associatedMasterId = "9CA0F1F1-C419-4983-8E88-5CF3F967428B";
background = {
shapes = (
{
closed = 1;
nodes = (
(156,464,l),
(183,545,l),
(222,700,l),
(158,700,l),
(119,545,l),
(106,464,l)
);
}
);
};
layerId = "B8B1B9F7-57AD-40F6-8824-2C22876E3A5C";
name = "new Layer";
shapes = (
{
closed = 1;
nodes = (
(156,464,l),
(183,545,l),
(222,700,l),
(158,700,l),
(119,545,l),
(106,464,l)
);
}
);
width = 162;
},
{
associatedMasterId = "9CA0F1F1-C419-4983-8E88-5CF3F967428B";
background = {
shapes = (
{
closed = 1;
nodes = (
(203,405,l),
(252,524,l),
(296,700,l),
(147,700,l),
(103,524,l),
(92,405,l)
);
}
);
};
layerId = "2275FDE9-41F5-43D3-856B-3453FC30E713";
name = "new Layer";
shapes = (
{
closed = 1;
nodes = (
(203,405,l),
(252,524,l),
(296,700,l),
(147,700,l),
(103,524,l),
(92,405,l)
);
}
);
width = 231;
},
{
background = {
shapes = (
{
closed = 1;
nodes = (
(50,545,l),
(57,464,l),
(106,464,l),
(113,545,l),
(113,700,l),
(50,700,l)
);
}
);
};
layerId = "CAEAD647-A533-4D72-9ACE-F5DE50C4DBD4";
shapes = (
{
closed = 1;
nodes = (
(126,464,l),
(133,545,l),
(133,700,l),
(70,700,l),
(70,545,l),
(77,464,l)
);
}
);
width = 203;
},
{
associatedMasterId = "CAEAD647-A533-4D72-9ACE-F5DE50C4DBD4";
background = {
shapes = (
{
closed = 1;
nodes = (
(156,464,l),
(183,545,l),
(222,700,l),
(158,700,l),
(119,545,l),
(106,464,l)
);
}
);
};
layerId = "03C303FF-9522-41FD-BD10-C64057BB1419";
name = "new Layer";
shapes = (
{
closed = 1;
nodes = (
(156,464,l),
(183,545,l),
(222,700,l),
(158,700,l),
(119,545,l),
(106,464,l)
);
}
);
width = 162;
},
{
associatedMasterId = "CAEAD647-A533-4D72-9ACE-F5DE50C4DBD4";
background = {
shapes = (
{
closed = 1;
nodes = (
(203,405,l),
(252,524,l),
(296,700,l),
(147,700,l),
(103,524,l),
(92,405,l)
);
}
);
};
layerId = "FB1BE5C7-4265-4457-A5C5-A4ABA56C14CB";
name = "new Layer";
shapes = (
{
closed = 1;
nodes = (
(203,405,l),
(252,524,l),
(296,700,l),
(147,700,l),
(103,524,l),
(92,405,l)
);
}
);
width = 231;
},
{
background = {
shapes = (
{
closed = 1;
nodes = (
(41,524,l),
(60,405,l),
(168,405,l),
(187,524,l),
(187,700,l),
(41,700,l)
);
}
);
};
hints = (
{
horizontal = 1;
options = 4;
origin = (0,3);
stem = -1;
target = (0,5);
type = TTStem;
}
);
layerId = "474EAD97-6F36-4C8E-8A0A-83C4F7DF9055";
shapes = (
{
closed = 1;
nodes = (
(188,405,l),
(207,524,l),
(207,700,l),
(61,700,l),
(61,524,l),
(80,405,l)
);
}
);
width = 268;
}
);
unicode = 39;
}
{
color = 6;
glyphname = parenright;
layers = (
{
background = {
shapes = (
{
closed = 1;
nodes = (
(7,685,l),
(104,581,o),
(163,426,o),
(163,285,cs),
(163,144,o),
(104,-11,o),
(7,-115,c),
(51,-156,l),
(158,-47,o),
(229,122,o),
(229,285,cs),
(229,448,o),
(158,617,o),
(51,726,c)
);
}
);
};
layerId = "9CA0F1F1-C419-4983-8E88-5CF3F967428B";
shapes = (
{
alignment = -1;
angle = 180;
pos = (264,569);
ref = parenleft;
}
);
width = 264;
},
{
background = {
hints = (
{
horizontal = 1;
origin = (0,7);
type = TTSnap;
},
{
horizontal = 1;
origin = (0,13);
type = TTSnap;
}
);
shapes = (
{
closed = 1;
nodes = (
(14,627,l),
(109,535,o),
(151,418,o),
(151,284,cs),
(151,150,o),
(109,33,o),
(14,-59,c),
(106,-167,l),
(234,-72,o),
(307,94,o),
(307,284,cs),
(307,474,o),
(234,640,o),
(106,735,c)
);
}
);
};
layerId = "5500A485-9BC9-4FA7-853B-8075021C5598";
shapes = (
{
alignment = -1;
angle = 180;
pos = (336,568);
ref = parenleft;
}
);
width = 336;
},
{
associatedMasterId = "9CA0F1F1-C419-4983-8E88-5CF3F967428B";
background = {
shapes = (
{
closed = 1;
nodes = (
(111,692,l),
(161,612,o),
(185,520,o),
(185,426,cs),
(185,232,o),
(88,35,o),
(-83,-112,c),
(-42,-157,l),
(142,6,o),
(250,215,o),
(250,415,cs),
(250,519,o),
(220,632,o),
(161,726,c)
);
}
);
};
layerId = "B8B1B9F7-57AD-40F6-8824-2C22876E3A5C";
name = "new Layer";
shapes = (
{
alignment = -1;
angle = 180;
pos = (277,569);
ref = parenleft;
}
);
width = 264;
},
{
associatedMasterId = "9CA0F1F1-C419-4983-8E88-5CF3F967428B";
background = {
shapes = (
{
closed = 1;
nodes = (
(103,648,l),
(149,584,o),
(175,499,o),
(175,414,cs),
(175,243,o),
(86,73,o),
(-69,-52,c),
(20,-163,l),
(229,-14,o),
(331,211,o),
(331,413,cs),
(331,531,o),
(290,648,o),
(219,732,c)
);
}
);
};
layerId = "2275FDE9-41F5-43D3-856B-3453FC30E713";
name = "new Layer";
shapes = (
{
alignment = -1;
angle = 180;
pos = (350,568);
ref = parenleft;
}
);
width = 343;
},
{
background = {
shapes = (
{
closed = 1;
nodes = (
(7,685,l),
(104,581,o),
(163,426,o),
(163,285,cs),
(163,144,o),
(104,-11,o),
(7,-115,c),
(51,-156,l),
(158,-47,o),
(229,122,o),
(229,285,cs),
(229,448,o),
(158,617,o),
(51,726,c)
);
}
);
};
layerId = "CAEAD647-A533-4D72-9ACE-F5DE50C4DBD4";
shapes = (
{
closed = 1;
nodes = (
(27,685,l),
(124,581,o),
(183,426,o),
(183,285,cs),
(183,144,o),
(124,-11,o),
(27,-115,c),
(71,-156,l),
(178,-47,o),
(249,122,o),
(249,285,cs),
(249,448,o),
(178,617,o),
(71,726,c)
);
}
);
width = 304;
},
{
associatedMasterId = "CAEAD647-A533-4D72-9ACE-F5DE50C4DBD4";
background = {
shapes = (
{
closed = 1;
nodes = (
(111,692,l),
(161,612,o),
(185,520,o),
(185,426,cs),
(185,232,o),
(88,35,o),
(-83,-112,c),
(-42,-157,l),
(142,6,o),
(250,215,o),
(250,415,cs),
(250,519,o),
(220,632,o),
(161,726,c)
);
}
);
};
layerId = "BD825E0B-9A8D-46B4-9B29-0D2E3AA34986";
name = "new Layer";
shapes = (
{
alignment = -1;
angle = 180;
pos = (277,569);
ref = parenleft;
}
);
width = 264;
},
{
associatedMasterId = "CAEAD647-A533-4D72-9ACE-F5DE50C4DBD4";
background = {
shapes = (
{
closed = 1;
nodes = (
(103,648,l),
(149,584,o),
(175,499,o),
(175,414,cs),
(175,243,o),
(86,73,o),
(-69,-52,c),
(20,-163,l),
(229,-14,o),
(331,211,o),
(331,413,cs),
(331,531,o),
(290,648,o),
(219,732,c)
);
}
);
};
layerId = "C9928392-7245-4E12-872F-CFA4C2E6B202";
name = "new Layer";
shapes = (
{
alignment = -1;
angle = 180;
pos = (350,568);
ref = parenleft;
}
);
width = 343;
},
{
background = {
hints = (
{
horizontal = 1;
origin = (0,7);
type = TTSnap;
},
{
horizontal = 1;
origin = (0,13);
type = TTSnap;
}
);
shapes = (
{
closed = 1;
nodes = (
(14,627,l),
(109,535,o),
(151,418,o),
(151,284,cs),
(151,150,o),
(109,33,o),
(14,-59,c),
(106,-167,l),
(234,-72,o),
(307,94,o),
(307,284,cs),
(307,474,o),
(234,640,o),
(106,735,c)
);
}
);
};
hints = (
{
horizontal = 1;
origin = (0,7);
type = TTSnap;
},
{
horizontal = 1;
origin = (0,13);
type = TTSnap;
}
);
layerId = "474EAD97-6F36-4C8E-8A0A-83C4F7DF9055";
shapes = (
{
closed = 1;
nodes = (
(34,627,l),
(129,535,o),
(171,418,o),
(171,284,cs),
(171,150,o),
(129,33,o),
(34,-59,c),
(126,-167,l),
(254,-72,o),
(327,94,o),
(327,284,cs),
(327,474,o),
(254,640,o),
(126,735,c)
);
}
);
width = 376;
}
);
unicode = 41;
}
{
glyphname = asterisk;
layers = (
{
background = {
shapes = (
{
closed = 1;
nodes = (
(201,401,l),
(200,502,l),
(288,449,l),
(314,494,l),
(221,547,l),
(317,600,l),
(291,645,l),
(200,591,l),
(201,700,l),
(149,700,l),
(150,591,l),
(58,645,l),
(32,600,l),
(129,546,l),
(37,494,l),
(63,449,l),
(150,501,l),
(149,401,l)
);
}
);
};
layerId = "9CA0F1F1-C419-4983-8E88-5CF3F967428B";
shapes = (
{
closed = 1;
nodes = (
(201,401,l),
(200,502,l),
(288,449,l),
(314,494,l),
(221,547,l),
(317,600,l),
(291,645,l),
(200,591,l),
(201,700,l),
(149,700,l),
(150,591,l),
(58,645,l),
(32,600,l),
(129,546,l),
(37,494,l),
(63,449,l),
(150,501,l),
(149,401,l)
);
}
);
width = 350;
},
{
background = {
shapes = (
{
closed = 1;
nodes = (
(219,401,l),
(216,479,l),
(281,439,l),
(324,513,l),
(251,551,l),
(324,590,l),
(282,664,l),
(215,621,l),
(217,700,l),
(132,700,l),
(135,622,l),
(68,664,l),
(26,590,l),
(99,551,l),
(26,513,l),
(69,439,l),
(137,481,l),
(134,401,l)
);
}
);
};
hints = (
{
horizontal = 1;
options = 4;
origin = (0,9);
type = TTSnap;
},
{
horizontal = 1;
origin = (0,17);
type = TTSnap;
}
);
layerId = "5500A485-9BC9-4FA7-853B-8075021C5598";
shapes = (
{
closed = 1;
nodes = (
(219,401,l),
(216,479,l),
(281,439,l),
(324,513,l),
(251,551,l),
(324,590,l),
(282,664,l),
(215,621,l),
(217,700,l),
(132,700,l),
(135,622,l),
(68,664,l),
(26,590,l),
(99,551,l),
(26,513,l),
(69,439,l),
(137,481,l),
(134,401,l)
);
}
);
width = 350;
},
{
associatedMasterId = "9CA0F1F1-C419-4983-8E88-5CF3F967428B";
background = {
shapes = (
{
closed = 1;
nodes = (
(236,399,l),
(259,499,l),
(334,436,l),
(369,476,l),
(291,540,l),
(399,581,l),
(382,627,l),
(280,587,l),
(307,693,l),
(258,702,l),
(232,593,l),
(154,659,l),
(118,618,l),
(201,552,l),
(96,512,l),
(114,467,l),
(211,505,l),
(185,408,l)
);
}
);
};
layerId = "B8B1B9F7-57AD-40F6-8824-2C22876E3A5C";
name = "new Layer";
shapes = (
{
closed = 1;
nodes = (
(236,399,l),
(259,499,l),
(334,436,l),
(369,476,l),
(291,540,l),
(399,581,l),
(382,627,l),
(280,587,l),
(307,693,l),
(258,702,l),
(232,593,l),
(154,659,l),
(118,618,l),
(201,552,l),
(96,512,l),
(114,467,l),
(211,505,l),
(185,408,l)
);
}
);
width = 356;
},
{
associatedMasterId = "9CA0F1F1-C419-4983-8E88-5CF3F967428B";
background = {
shapes = (
{
closed = 1;
nodes = (
(252,397,l),
(268,475,l),
(324,424,l),
(383,490,l),
(320,539,l),
(401,566,l),
(377,644,l),
(302,613,l),
(323,690,l),
(240,704,l),
(224,626,l),
(167,679,l),
(109,613,l),
(172,563,l),
(91,537,l),
(116,458,l),
(191,488,l),
(169,410,l)
);
}
);
};
layerId = "2275FDE9-41F5-43D3-856B-3453FC30E713";
name = "new Layer";
shapes = (
{
closed = 1;
nodes = (
(252,397,l),
(268,475,l),
(324,424,l),
(383,490,l),
(320,539,l),
(401,566,l),
(377,644,l),
(302,613,l),
(323,690,l),
(240,704,l),
(224,626,l),
(167,679,l),
(109,613,l),
(172,563,l),
(91,537,l),
(116,458,l),
(191,488,l),
(169,410,l)
);
}
);
width = 357;
},
{
background = {
shapes = (
{
closed = 1;
nodes = (
(201,401,l),
(200,502,l),
(288,449,l),
(314,494,l),
(221,547,l),
(317,600,l),
(291,645,l),
(200,591,l),
(201,700,l),
(149,700,l),
(150,591,l),
(58,645,l),
(32,600,l),
(129,546,l),
(37,494,l),
(63,449,l),
(150,501,l),
(149,401,l)
);
}
);
};
layerId = "CAEAD647-A533-4D72-9ACE-F5DE50C4DBD4";
shapes = (
{
closed = 1;
nodes = (
(221,401,l),
(220,502,l),
(308,449,l),
(334,494,l),
(241,547,l),
(337,600,l),
(311,645,l),
(220,591,l),
(221,700,l),
(169,700,l),
(170,591,l),
(78,645,l),
(52,600,l),
(149,546,l),
(57,494,l),
(83,449,l),
(170,501,l),
(169,401,l)
);
}
);
width = 390;
},
{
associatedMasterId = "CAEAD647-A533-4D72-9ACE-F5DE50C4DBD4";
background = {
shapes = (
{
closed = 1;
nodes = (
(236,399,l),
(259,499,l),
(334,436,l),
(369,476,l),
(291,540,l),
(399,581,l),
(382,627,l),
(280,587,l),
(307,693,l),
(258,702,l),
(232,593,l),
(154,659,l),
(118,618,l),
(201,552,l),
(96,512,l),
(114,467,l),
(211,505,l),
(185,408,l)
);
}
);
};
layerId = "0C71AE99-B196-4389-9FB7-7018B831F50E";
name = "new Layer";
shapes = (
{
closed = 1;
nodes = (
(236,399,l),
(259,499,l),
(334,436,l),
(369,476,l),
(291,540,l),
(399,581,l),
(382,627,l),
(280,587,l),
(307,693,l),
(258,702,l),
(232,593,l),
(154,659,l),
(118,618,l),
(201,552,l),
(96,512,l),
(114,467,l),
(211,505,l),
(185,408,l)
);
}
);
width = 356;
},
{
associatedMasterId = "CAEAD647-A533-4D72-9ACE-F5DE50C4DBD4";
background = {
shapes = (
{
closed = 1;
nodes = (
(252,397,l),
(268,475,l),
(324,424,l),
(383,490,l),
(320,539,l),
(401,566,l),
(377,644,l),
(302,613,l),
(323,690,l),
(240,704,l),
(224,626,l),
(167,679,l),
(109,613,l),
(172,563,l),
(91,537,l),
(116,458,l),
(191,488,l),
(169,410,l)
);
}
);
};
layerId = "05801857-E918-4870-8CAF-E55FC80BFA27";
name = "new Layer";
shapes = (
{
closed = 1;
nodes = (
(252,397,l),
(268,475,l),
(324,424,l),
(383,490,l),
(320,539,l),
(401,566,l),
(377,644,l),
(302,613,l),
(323,690,l),
(240,704,l),
(224,626,l),
(167,679,l),
(109,613,l),
(172,563,l),
(91,537,l),
(116,458,l),
(191,488,l),
(169,410,l)
);
}
);
width = 357;
},
{
background = {
shapes = (
{
closed = 1;
nodes = (
(219,401,l),
(216,479,l),
(281,439,l),
(324,513,l),
(251,551,l),
(324,590,l),
(282,664,l),
(215,621,l),
(217,700,l),
(132,700,l),
(135,622,l),
(68,664,l),
(26,590,l),
(99,551,l),
(26,513,l),
(69,439,l),
(137,481,l),
(134,401,l)
);
}
);
};
hints = (
{
horizontal = 1;
options = 4;
origin = (0,9);
type = TTSnap;
},
{
horizontal = 1;
origin = (0,17);
type = TTSnap;
}
);
layerId = "474EAD97-6F36-4C8E-8A0A-83C4F7DF9055";
shapes = (
{
closed = 1;
nodes = (
(239,401,l),
(236,479,l),
(301,439,l),
(344,513,l),
(271,551,l),
(344,590,l),
(302,664,l),
(235,621,l),
(237,700,l),
(152,700,l),
(155,622,l),
(88,664,l),
(46,590,l),
(119,551,l),
(46,513,l),
(89,439,l),
(157,481,l),
(154,401,l)
);
}
);
width = 390;
}
);
unicode = 42;
}
{
glyphname = comma;
kernLeft = period;
kernRight = period;
layers = (
{
background = {
shapes = (
{
closed = 1;
nodes = (
(123,-19,ls),
(135,9,o),
(140,21,o),
(140,41,cs),
(140,71,o),
(118,92,o),
(89,92,cs),
(61,92,o),
(40,71,o),
(40,42,cs),
(40,10,o),
(65,-13,o),
(98,-10,c),
(89,19,l),
(27,-131,l),
(69,-148,l)
);
}
);
};
layerId = "9CA0F1F1-C419-4983-8E88-5CF3F967428B";
shapes = (
{
closed = 1;
nodes = (
(123,-19,ls),
(135,9,o),
(140,21,o),
(140,41,cs),
(140,71,o),
(118,92,o),
(89,92,cs),
(61,92,o),
(40,71,o),
(40,42,cs),
(40,10,o),
(65,-13,o),
(98,-10,c),
(89,19,l),
(27,-131,l),
(69,-148,l)
);
}
);
width = 180;
},
{
background = {
shapes = (
{
closed = 1;
nodes = (
(194,-18,ls),
(210,19,o),
(220,43,o),
(220,81,cs),
(220,138,o),
(181,182,o),
(125,182,cs),
(68,182,o),
(29,142,o),
(29,85,cs),
(29,23,o),
(77,-22,o),
(143,-10,c),
(127,57,l),
(43,-133,l),
(129,-170,l)
);
}
);
};
hints = (
{
horizontal = 1;
options = 4;
origin = (0,12);
stem = -1;
target = (0,6);
type = TTStem;
},
{
horizontal = 1;
options = 4;
origin = (0,12);
stem = -1;
target = (0,15);
type = TTStem;
}
);
layerId = "5500A485-9BC9-4FA7-853B-8075021C5598";
shapes = (
{
closed = 1;
nodes = (
(194,-18,ls),
(210,19,o),
(220,43,o),
(220,81,cs),
(220,138,o),
(181,182,o),
(125,182,cs),
(68,182,o),
(29,142,o),
(29,85,cs),
(29,23,o),
(77,-22,o),
(143,-10,c),
(127,57,l),
(43,-133,l),
(129,-170,l)
);
}
);
width = 250;
},
{
associatedMasterId = "9CA0F1F1-C419-4983-8E88-5CF3F967428B";
background = {
shapes = (
{
closed = 1;
nodes = (
(76,-6,ls),
(90,15,o),
(95,28,o),
(95,42,cs),
(95,70,o),
(73,92,o),
(44,92,cs),
(16,92,o),
(-5,70,o),
(-5,42,cs),
(-5,14,o),
(17,-9,o),
(43,-9,c),
(44,22,l),
(-55,-125,l),
(-18,-149,l)
);
}
);
};
layerId = "B8B1B9F7-57AD-40F6-8824-2C22876E3A5C";
name = "new Layer";
shapes = (
{
closed = 1;
nodes = (
(76,-6,ls),
(90,15,o),
(95,28,o),
(95,42,cs),
(95,70,o),
(73,92,o),
(44,92,cs),
(16,92,o),
(-5,70,o),
(-5,42,cs),
(-5,14,o),
(17,-9,o),
(43,-9,c),
(44,22,l),
(-55,-125,l),
(-18,-149,l)
);
}
);
width = 178;
},
{
associatedMasterId = "9CA0F1F1-C419-4983-8E88-5CF3F967428B";
background = {
shapes = (
{
closed = 1;
nodes = (
(141,-18,ls),
(166,19,o),
(184,44,o),
(184,81,cs),
(184,138,o),
(145,182,o),
(89,182,cs),
(32,182,o),
(-7,142,o),
(-7,85,cs),
(-7,23,o),
(41,-22,o),
(107,-10,c),
(91,67,l),
(-40,-123,l),
(38,-170,l)
);
}
);
};
layerId = "2275FDE9-41F5-43D3-856B-3453FC30E713";
name = "new Layer";
shapes = (
{
closed = 1;
nodes = (
(141,-18,ls),
(166,19,o),
(184,44,o),
(184,81,cs),
(184,138,o),
(145,182,o),
(89,182,cs),
(32,182,o),
(-7,142,o),
(-7,85,cs),
(-7,23,o),
(41,-22,o),
(107,-10,c),
(91,67,l),
(-40,-123,l),
(38,-170,l)
);
}
);
width = 252;
},
{
background = {
shapes = (
{
closed = 1;
nodes = (
(123,-19,ls),
(135,9,o),
(140,21,o),
(140,41,cs),
(140,71,o),
(118,92,o),
(89,92,cs),
(61,92,o),
(40,71,o),
(40,42,cs),
(40,10,o),
(65,-13,o),
(98,-10,c),
(89,19,l),
(27,-131,l),
(69,-148,l)
);
}
);
};
layerId = "CAEAD647-A533-4D72-9ACE-F5DE50C4DBD4";
shapes = (
{
closed = 1;
nodes = (
(143,-19,ls),
(155,9,o),
(160,21,o),
(160,41,cs),
(160,71,o),
(138,92,o),
(109,92,cs),
(81,92,o),
(60,71,o),
(60,42,cs),
(60,10,o),
(85,-13,o),
(118,-10,c),
(109,19,l),
(47,-131,l),
(89,-148,l)
);
}
);
width = 220;
},
{
associatedMasterId = "CAEAD647-A533-4D72-9ACE-F5DE50C4DBD4";
background = {
shapes = (
{
closed = 1;
nodes = (
(76,-6,ls),
(90,15,o),
(95,28,o),
(95,42,cs),
(95,70,o),
(73,92,o),
(44,92,cs),
(16,92,o),
(-5,70,o),
(-5,42,cs),
(-5,14,o),
(17,-9,o),
(43,-9,c),
(44,22,l),
(-55,-125,l),
(-18,-149,l)
);
}
);
};
layerId = "9A49BEB0-FCC0-4D8B-9CDC-116713DE38FB";
name = "new Layer";
shapes = (
{
closed = 1;
nodes = (
(76,-6,ls),
(90,15,o),
(95,28,o),
(95,42,cs),
(95,70,o),
(73,92,o),
(44,92,cs),
(16,92,o),
(-5,70,o),
(-5,42,cs),
(-5,14,o),
(17,-9,o),
(43,-9,c),
(44,22,l),
(-55,-125,l),
(-18,-149,l)
);
}
);
width = 178;
},
{
associatedMasterId = "CAEAD647-A533-4D72-9ACE-F5DE50C4DBD4";
background = {
shapes = (
{
closed = 1;
nodes = (
(141,-18,ls),
(166,19,o),
(184,44,o),
(184,81,cs),
(184,138,o),
(145,182,o),
(89,182,cs),
(32,182,o),
(-7,142,o),
(-7,85,cs),
(-7,23,o),
(41,-22,o),
(107,-10,c),
(91,67,l),
(-40,-123,l),
(38,-170,l)
);
}
);
};
layerId = "AF6AFCE5-4865-4ED4-9E01-71B98A672F22";
name = "new Layer";
shapes = (
{
closed = 1;
nodes = (
(141,-18,ls),
(166,19,o),
(184,44,o),
(184,81,cs),
(184,138,o),
(145,182,o),
(89,182,cs),
(32,182,o),
(-7,142,o),
(-7,85,cs),
(-7,23,o),
(41,-22,o),
(107,-10,c),
(91,67,l),
(-40,-123,l),
(38,-170,l)
);
}
);
width = 252;
},
{
background = {
shapes = (
{
closed = 1;
nodes = (
(194,-18,ls),
(210,19,o),
(220,43,o),
(220,81,cs),
(220,138,o),
(181,182,o),
(125,182,cs),
(68,182,o),
(29,142,o),
(29,85,cs),
(29,23,o),
(77,-22,o),
(143,-10,c),
(127,57,l),
(43,-133,l),
(129,-170,l)
);
}
);
};
hints = (
{
horizontal = 1;
options = 4;
origin = (0,12);
stem = -1;
target = (0,6);
type = TTStem;
},
{
horizontal = 1;
options = 4;
origin = (0,12);
stem = -1;
target = (0,15);
type = TTStem;
}
);
layerId = "474EAD97-6F36-4C8E-8A0A-83C4F7DF9055";
shapes = (
{
closed = 1;
nodes = (
(214,-18,ls),
(230,19,o),
(240,43,o),
(240,81,cs),
(240,138,o),
(201,182,o),
(145,182,cs),
(88,182,o),
(49,142,o),
(49,85,cs),
(49,23,o),
(97,-22,o),
(163,-10,c),
(147,57,l),
(63,-133,l),
(149,-170,l)
);
}
);
width = 290;
}
);
unicode = 44;
}
{
glyphname = slash;
layers = (
{
background = {
shapes = (
{
closed = 1;
nodes = (
(388,785,l),
(17,-85,l),
(85,-85,l),
(457,785,l)
);
}
);
};
layerId = "9CA0F1F1-C419-4983-8E88-5CF3F967428B";
shapes = (
{
closed = 1;
nodes = (
(388,785,l),
(17,-85,l),
(85,-85,l),
(457,785,l)
);
}
);
width = 473;
},
{
background = {
shapes = (
{
closed = 1;
nodes = (
(388,785,l),
(15,-85,l),
(165,-85,l),
(537,785,l)
);
}
);
};
hints = (
{
horizontal = 1;
origin = (0,0);
type = TTSnap;
},
{
horizontal = 1;
origin = (0,1);
type = TTSnap;
}
);
layerId = "5500A485-9BC9-4FA7-853B-8075021C5598";
shapes = (
{
closed = 1;
nodes = (
(388,785,l),
(15,-85,l),
(165,-85,l),
(537,785,l)
);
}
);
width = 550;
},
{
associatedMasterId = "9CA0F1F1-C419-4983-8E88-5CF3F967428B";
background = {
shapes = (
{
closed = 1;
nodes = (
(464,785,l),
(-67,-85,l),
(8,-85,l),
(539,785,l)
);
}
);
};
layerId = "B8B1B9F7-57AD-40F6-8824-2C22876E3A5C";
name = "new Layer";
shapes = (
{
closed = 1;
nodes = (
(464,785,l),
(-67,-85,l),
(8,-85,l),
(539,785,l)
);
}
);
width = 425;
},
{
associatedMasterId = "9CA0F1F1-C419-4983-8E88-5CF3F967428B";
background = {
shapes = (
{
closed = 1;
nodes = (
(450,785,l),
(-73,-85,l),
(91,-85,l),
(612,785,l)
);
}
);
};
layerId = "2275FDE9-41F5-43D3-856B-3453FC30E713";
name = "new Layer";
shapes = (
{
closed = 1;
nodes = (
(450,785,l),
(-73,-85,l),
(91,-85,l),
(612,785,l)
);
}
);
width = 498;
},
{
background = {
shapes = (
{
closed = 1;
nodes = (
(388,785,l),
(17,-85,l),
(85,-85,l),
(457,785,l)
);
}
);
};
layerId = "CAEAD647-A533-4D72-9ACE-F5DE50C4DBD4";
shapes = (
{
closed = 1;
nodes = (
(408,785,l),
(37,-85,l),
(105,-85,l),
(477,785,l)
);
}
);
width = 513;
},
{
associatedMasterId = "CAEAD647-A533-4D72-9ACE-F5DE50C4DBD4";
background = {
shapes = (
{
closed = 1;
nodes = (
(464,785,l),
(-67,-85,l),
(8,-85,l),
(539,785,l)
);
}
);
};
layerId = "B2C0F452-FC66-4C48-A476-B487DE4EB002";
name = "new Layer";
shapes = (
{
closed = 1;
nodes = (
(464,785,l),
(-67,-85,l),
(8,-85,l),
(539,785,l)
);
}
);
width = 425;
},
{
associatedMasterId = "CAEAD647-A533-4D72-9ACE-F5DE50C4DBD4";
background = {
shapes = (
{
closed = 1;
nodes = (
(450,785,l),
(-73,-85,l),
(91,-85,l),
(612,785,l)
);
}
);
};
layerId = "7113CBC3-05E7-4D5E-A44B-8524D768BE91";
name = "new Layer";
shapes = (
{
closed = 1;
nodes = (
(450,785,l),
(-73,-85,l),
(91,-85,l),
(612,785,l)
);
}
);
width = 498;
},
{
background = {
shapes = (
{
closed = 1;
nodes = (
(388,785,l),
(15,-85,l),
(165,-85,l),
(537,785,l)
);
}
);
};
hints = (
{
horizontal = 1;
origin = (0,0);
type = TTSnap;
},
{
horizontal = 1;
origin = (0,1);
type = TTSnap;
}
);
layerId = "474EAD97-6F36-4C8E-8A0A-83C4F7DF9055";
shapes = (
{
closed = 1;
nodes = (
(408,785,l),
(35,-85,l),
(185,-85,l),
(557,785,l)
);
}
);
width = 590;
}
);
unicode = 47;
}
{
glyphname = one;
layers = (
{
background = {
shapes = (
{
closed = 1;
nodes = (
(31,700,l),
(31,639,l),
(115,639,l),
(115,0,l),
(179,0,l),
(179,700,l)
);
}
);
};
layerId = "9CA0F1F1-C419-4983-8E88-5CF3F967428B";
shapes = (
{
closed = 1;
nodes = (
(31,700,l),
(31,639,l),
(115,639,l),
(115,0,l),
(179,0,l),
(179,700,l)
);
}
);
width = 251;
},
{
background = {
shapes = (
{
closed = 1;
nodes = (
(27,700,l),
(27,566,l),
(125,566,l),
(125,0,l),
(276,0,l),
(276,700,l)
);
}
);
};
hints = (
{
horizontal = 1;
options = 4;
origin = (0,3);
type = TTSnap;
},
{
horizontal = 1;
options = 4;
origin = (0,0);
stem = 0;
target = (0,1);
type = TTStem;
}
);
layerId = "5500A485-9BC9-4FA7-853B-8075021C5598";
shapes = (
{
closed = 1;
nodes = (
(27,700,l),
(27,566,l),
(125,566,l),
(125,0,l),
(276,0,l),
(276,700,l)
);
}
);
width = 335;
},
{
associatedMasterId = "9CA0F1F1-C419-4983-8E88-5CF3F967428B";
background = {
shapes = (
{
closed = 1;
nodes = (
(142,700,l),
(126,639,l),
(209,639,l),
(50,0,l),
(116,0,l),
(291,700,l)
);
}
);
};
layerId = "B8B1B9F7-57AD-40F6-8824-2C22876E3A5C";
name = "new Layer";
shapes = (
{
closed = 1;
nodes = (
(142,700,l),
(126,639,l),
(209,639,l),
(50,0,l),
(116,0,l),
(291,700,l)
);
}
);
width = 253;
},
{
associatedMasterId = "9CA0F1F1-C419-4983-8E88-5CF3F967428B";
background = {
shapes = (
{
closed = 1;
nodes = (
(135,700,l),
(101,566,l),
(198,566,l),
(57,0,l),
(212,0,l),
(387,700,l)
);
}
);
};
layerId = "2275FDE9-41F5-43D3-856B-3453FC30E713";
name = "new Layer";
shapes = (
{
closed = 1;
nodes = (
(135,700,l),
(101,566,l),
(198,566,l),
(57,0,l),
(212,0,l),
(387,700,l)
);
}
);
width = 339;
},
{
background = {
shapes = (
{
closed = 1;
nodes = (
(31,700,l),
(31,639,l),
(115,639,l),
(115,0,l),
(179,0,l),
(179,700,l)
);
}
);
};
layerId = "CAEAD647-A533-4D72-9ACE-F5DE50C4DBD4";
shapes = (
{
closed = 1;
nodes = (
(51,700,l),
(51,639,l),
(135,639,l),
(135,0,l),
(199,0,l),
(199,700,l)
);
}
);
width = 291;
},
{
associatedMasterId = "CAEAD647-A533-4D72-9ACE-F5DE50C4DBD4";
background = {
shapes = (
{
closed = 1;
nodes = (
(142,700,l),
(126,639,l),
(209,639,l),
(50,0,l),
(116,0,l),
(291,700,l)
);
}
);
};
layerId = "1D5142D1-1853-49B4-901F-0D0BD9DA86CC";
name = "new Layer";
shapes = (
{
closed = 1;
nodes = (
(142,700,l),
(126,639,l),
(209,639,l),
(50,0,l),
(116,0,l),
(291,700,l)
);
}
);
width = 253;
},
{
associatedMasterId = "CAEAD647-A533-4D72-9ACE-F5DE50C4DBD4";
background = {
shapes = (
{
closed = 1;
nodes = (
(135,700,l),
(101,566,l),
(198,566,l),
(57,0,l),
(212,0,l),
(387,700,l)
);
}
);
};
layerId = "9B02AE11-BFC3-4EF4-A8DB-6FD6C9793F57";
name = "new Layer";
shapes = (
{
closed = 1;
nodes = (
(135,700,l),
(101,566,l),
(198,566,l),
(57,0,l),
(212,0,l),
(387,700,l)
);
}
);
width = 339;
},
{
background = {
shapes = (
{
closed = 1;
nodes = (
(27,700,l),
(27,566,l),
(125,566,l),
(125,0,l),
(276,0,l),
(276,700,l)
);
}
);
};
hints = (
{
horizontal = 1;
options = 4;
origin = (0,3);
type = TTSnap;
},
{
horizontal = 1;
options = 4;
origin = (0,0);
stem = 0;
target = (0,1);
type = TTStem;
}
);
layerId = "474EAD97-6F36-4C8E-8A0A-83C4F7DF9055";
shapes = (
{
closed = 1;
nodes = (
(47,700,l),
(47,566,l),
(145,566,l),
(145,0,l),
(296,0,l),
(296,700,l)
);
}
);
width = 375;
}
);
unicode = 49;
}
{
glyphname = two;
kernLeft = two;
kernRight = two;
layers = (
{
background = {
guides = (
{
angle = 228.8668;
pos = (358,321);
}
);
shapes = (
{
closed = 1;
nodes = (
(460,0,l),
(460,61,l),
(104,61,l),
(114,42,l),
(358,321,ls),
(406,376,o),
(452,431,o),
(452,520,cs),
(452,630,o),
(364,708,o),
(245,708,cs),
(105,708,o),
(44,609,o),
(25,514,c),
(84,498,l),
(103,576,o),
(145,645,o),
(245,645,cs),
(326,645,o),
(385,593,o),
(385,521,cs),
(385,449,o),
(351,406,o),
(309,357,cs),
(40,49,l),
(40,0,l)
);
}
);
};
guides = (
{
angle = 228.8668;
pos = (358,321);
}
);
layerId = "9CA0F1F1-C419-4983-8E88-5CF3F967428B";
shapes = (
{
closed = 1;
nodes = (
(460,0,l),
(460,61,l),
(104,61,l),
(114,42,l),
(358,321,ls),
(406,376,o),
(452,431,o),
(452,520,cs),
(452,630,o),
(364,708,o),
(245,708,cs),
(105,708,o),
(44,609,o),
(25,514,c),
(84,498,l),
(103,576,o),
(145,645,o),
(245,645,cs),
(326,645,o),
(385,593,o),
(385,521,cs),
(385,449,o),
(351,406,o),
(309,357,cs),
(40,49,l),
(40,0,l)
);
}
);
width = 496;
},
{
background = {
guides = (
{
angle = 227.0806;
pos = (400,303);
}
);
shapes = (
{
closed = 1;
nodes = (
(509,0,l),
(509,134,l),
(172,134,l),
(197,90,l),
(400,300,ls),
(449,350,o),
(508,414,o),
(508,504,cs),
(508,621,o),
(427,713,o),
(266,713,cs),
(104,713,o),
(40,602,o),
(22,508,c),
(154,465,l),
(165,515,o),
(191,575,o),
(266,575,cs),
(316,575,o),
(349,541,o),
(349,496,cs),
(349,455,o),
(326,425,o),
(289,386,cs),
(37,118,l),
(37,0,l)
);
}
);
};
guides = (
{
angle = 227.0806;
pos = (400,303);
}
);
hints = (
{
horizontal = 1;
options = 4;
origin = (0,25);
stem = 0;
target = (0,2);
type = TTStem;
},
{
horizontal = 1;
options = 4;
origin = (0,10);
stem = 0;
target = (0,17);
type = TTStem;
},
{
horizontal = 1;
options = 4;
origin = (0,2);
target = (0,24);
type = TTShift;
},
{
horizontal = 1;
options = 4;
origin = (0,2);
other1 = (0,23);
target = (0,10);
type = TTInterpolate;
},
{
horizontal = 1;
options = 4;
origin = (0,25);
other1 = (0,4);
target = (0,17);
type = TTInterpolate;
}
);
layerId = "5500A485-9BC9-4FA7-853B-8075021C5598";
shapes = (
{
closed = 1;
nodes = (
(509,0,l),
(509,134,l),
(172,134,l),
(197,90,l),
(400,300,ls),
(449,350,o),
(508,414,o),
(508,504,cs),
(508,621,o),
(427,713,o),
(266,713,cs),
(104,713,o),
(40,602,o),
(22,508,c),
(154,465,l),
(165,515,o),
(191,575,o),
(266,575,cs),
(316,575,o),
(349,541,o),
(349,496,cs),
(349,455,o),
(326,425,o),
(289,386,cs),
(37,118,l),
(37,0,l)
);
}
);
width = 549;
},
{
associatedMasterId = "9CA0F1F1-C419-4983-8E88-5CF3F967428B";
background = {
shapes = (
{
closed = 1;
nodes = (
(394,0,l),
(409,61,l),
(60,61,l),
(70,39,l),
(382,320,ls),
(448,379,o),
(509,447,o),
(509,541,cs),
(509,639,o),
(435,708,o),
(325,708,cs),
(190,708,o),
(119,604,o),
(96,515,c),
(156,500,l),
(179,576,o),
(232,645,o),
(322,645,cs),
(397,645,o),
(441,596,o),
(441,533,cs),
(441,469,o),
(398,414,o),
(344,365,cs),
(-7,49,l),
(-19,0,l)
);
}
);
};
layerId = "B8B1B9F7-57AD-40F6-8824-2C22876E3A5C";
name = "new Layer";
shapes = (
{
closed = 1;
nodes = (
(394,0,l),
(409,61,l),
(60,61,l),
(70,39,l),
(382,320,ls),
(448,379,o),
(509,447,o),
(509,541,cs),
(509,639,o),
(435,708,o),
(325,708,cs),
(190,708,o),
(119,604,o),
(96,515,c),
(156,500,l),
(179,576,o),
(232,645,o),
(322,645,cs),
(397,645,o),
(441,596,o),
(441,533,cs),
(441,469,o),
(398,414,o),
(344,365,cs),
(-7,49,l),
(-19,0,l)
);
}
);
width = 489;
},
{
associatedMasterId = "9CA0F1F1-C419-4983-8E88-5CF3F967428B";
background = {
shapes = (
{
closed = 1;
nodes = (
(447,0,l),
(480,134,l),
(162,134,l),
(179,88,l),
(417,289,ls),
(502,361,o),
(564,422,o),
(564,520,cs),
(564,619,o),
(497,713,o),
(349,713,cs),
(194,713,o),
(110,611,o),
(81,509,c),
(211,467,l),
(226,517,o),
(263,575,o),
(331,575,cs),
(374,575,o),
(402,549,o),
(402,510,cs),
(402,457,o),
(357,415,o),
(326,389,cs),
(10,118,l),
(-19,0,l)
);
}
);
};
layerId = "2275FDE9-41F5-43D3-856B-3453FC30E713";
name = "new Layer";
shapes = (
{
closed = 1;
nodes = (
(447,0,l),
(480,134,l),
(162,134,l),
(179,88,l),
(417,289,ls),
(502,361,o),
(564,422,o),
(564,520,cs),
(564,619,o),
(497,713,o),
(349,713,cs),
(194,713,o),
(110,611,o),
(81,509,c),
(211,467,l),
(226,517,o),
(263,575,o),
(331,575,cs),
(374,575,o),
(402,549,o),
(402,510,cs),
(402,457,o),
(357,415,o),
(326,389,cs),
(10,118,l),
(-19,0,l)
);
}
);
width = 553;
},
{
background = {
shapes = (
{
closed = 1;
nodes = (
(460,0,l),
(460,61,l),
(205,61,ls),
(170,61,o),
(136,59,o),
(123,54,c),
(122,57,l),
(134,65,o),
(156,89,o),
(178,115,cs),
(358,321,ls),
(406,375,o),
(452,431,o),
(452,520,cs),
(452,630,o),
(364,708,o),
(245,708,cs),
(105,708,o),
(44,609,o),
(25,514,c),
(84,498,l),
(103,576,o),
(145,645,o),
(245,645,cs),
(326,645,o),
(385,593,o),
(385,521,cs),
(385,449,o),
(351,406,o),
(309,357,cs),
(40,49,l),
(40,0,l)
);
}
);
};
layerId = "CAEAD647-A533-4D72-9ACE-F5DE50C4DBD4";
shapes = (
{
closed = 1;
nodes = (
(480,0,l),
(480,61,l),
(225,61,ls),
(190,61,o),
(156,59,o),
(143,54,c),
(142,57,l),
(154,65,o),
(176,89,o),
(198,115,cs),
(378,321,ls),
(426,375,o),
(472,431,o),
(472,520,cs),
(472,630,o),
(384,708,o),
(265,708,cs),
(125,708,o),
(64,609,o),
(45,514,c),
(104,498,l),
(123,576,o),
(165,645,o),
(265,645,cs),
(346,645,o),
(405,593,o),
(405,521,cs),
(405,449,o),
(371,406,o),
(329,357,cs),
(60,49,l),
(60,0,l)
);
}
);
width = 536;
},
{
associatedMasterId = "CAEAD647-A533-4D72-9ACE-F5DE50C4DBD4";
background = {
shapes = (
{
closed = 1;
nodes = (
(394,0,l),
(409,61,l),
(166,61,ls),
(133,61,o),
(98,59,o),
(84,54,c),
(84,57,l),
(101,67,o),
(128,92,o),
(154,115,cs),
(382,320,ls),
(448,379,o),
(509,447,o),
(509,541,cs),
(509,639,o),
(435,708,o),
(325,708,cs),
(190,708,o),
(119,604,o),
(96,515,c),
(156,500,l),
(179,576,o),
(232,645,o),
(322,645,cs),
(397,645,o),
(441,596,o),
(441,533,cs),
(441,469,o),
(398,414,o),
(344,365,cs),
(-7,49,l),
(-19,0,l)
);
}
);
};
color = 5;
layerId = "39CC08C5-41EE-4757-BD6A-B1E593305894";
name = "new Layer";
shapes = (
{
closed = 1;
nodes = (
(394,0,l),
(409,61,l),
(166,61,ls),
(133,61,o),
(98,59,o),
(84,54,c),
(84,57,l),
(101,67,o),
(128,92,o),
(154,115,cs),
(382,320,ls),
(448,379,o),
(509,447,o),
(509,541,cs),
(509,639,o),
(435,708,o),
(325,708,cs),
(190,708,o),
(119,604,o),
(96,515,c),
(156,500,l),
(179,576,o),
(232,645,o),
(322,645,cs),
(397,645,o),
(441,596,o),
(441,533,cs),
(441,469,o),
(398,414,o),
(344,365,cs),
(-7,49,l),
(-19,0,l)
);
}
);
width = 489;
},
{
associatedMasterId = "CAEAD647-A533-4D72-9ACE-F5DE50C4DBD4";
background = {
shapes = (
{
closed = 1;
nodes = (
(447,0,l),
(480,134,l),
(305,134,ls),
(270,134,o),
(233,132,o),
(220,127,c),
(219,130,l),
(233,136,o),
(263,159,o),
(297,188,cs),
(417,289,ls),
(502,361,o),
(564,423,o),
(564,522,cs),
(564,620,o),
(497,713,o),
(349,713,cs),
(194,713,o),
(110,611,o),
(81,509,c),
(211,467,l),
(226,517,o),
(263,575,o),
(331,575,cs),
(374,575,o),
(402,550,o),
(402,512,cs),
(402,458,o),
(357,415,o),
(326,389,cs),
(10,118,l),
(-19,0,l)
);
}
);
};
layerId = "09F77721-7734-4FF7-8380-20169D66CCF1";
name = "new Layer";
shapes = (
{
closed = 1;
nodes = (
(447,0,l),
(480,134,l),
(305,134,ls),
(270,134,o),
(233,132,o),
(220,127,c),
(219,130,l),
(233,136,o),
(263,159,o),
(297,188,cs),
(417,289,ls),
(502,361,o),
(564,423,o),
(564,522,cs),
(564,620,o),
(497,713,o),
(349,713,cs),
(194,713,o),
(110,611,o),
(81,509,c),
(211,467,l),
(226,517,o),
(263,575,o),
(331,575,cs),
(374,575,o),
(402,550,o),
(402,512,cs),
(402,458,o),
(357,415,o),
(326,389,cs),
(10,118,l),
(-19,0,l)
);
}
);
width = 553;
},
{
background = {
shapes = (
{
closed = 1;
nodes = (
(509,0,l),
(509,134,l),
(312,134,ls),
(276,134,o),
(240,132,o),
(227,127,c),
(225,130,l),
(238,136,o),
(265,160,o),
(290,187,cs),
(419,320,ls),
(483,388,o),
(508,441,o),
(508,507,cs),
(508,622,o),
(427,713,o),
(266,713,cs),
(104,713,o),
(40,602,o),
(22,508,c),
(154,465,l),
(165,515,o),
(191,575,o),
(266,575,cs),
(316,575,o),
(349,542,o),
(349,499,cs),
(349,457,o),
(327,426,o),
(290,387,cs),
(37,118,l),
(37,0,l)
);
}
);
};
hints = (
{
horizontal = 1;
options = 4;
origin = (0,16);
stem = 0;
target = (0,23);
type = TTStem;
},
{
horizontal = 1;
options = 4;
origin = (0,0);
stem = 0;
target = (0,1);
type = TTStem;
},
{
horizontal = 1;
options = 4;
origin = (0,1);
target = (0,30);
type = TTShift;
},
{
horizontal = 1;
options = 4;
origin = (0,16);
other1 = (0,29);
target = (0,1);
type = TTInterpolate;
},
{
horizontal = 1;
options = 4;
origin = (0,23);
other1 = (0,10);
target = (0,0);
type = TTInterpolate;
}
);
layerId = "474EAD97-6F36-4C8E-8A0A-83C4F7DF9055";
shapes = (
{
closed = 1;
nodes = (
(529,0,l),
(529,134,l),
(332,134,ls),
(296,134,o),
(260,132,o),
(247,127,c),
(245,130,l),
(258,136,o),
(285,160,o),
(310,187,cs),
(439,320,ls),
(503,388,o),
(528,441,o),
(528,507,cs),
(528,622,o),
(447,713,o),
(286,713,cs),
(124,713,o),
(60,602,o),
(42,508,c),
(174,465,l),
(185,515,o),
(211,575,o),
(286,575,cs),
(336,575,o),
(369,542,o),
(369,499,cs),
(369,457,o),
(347,426,o),
(310,387,cs),
(57,118,l),
(57,0,l)
);
}
);
width = 589;
}
);
note = "leicht optimiert";
unicode = 50;
}
{
glyphname = three;
kernLeft = three;
kernRight = three;
layers = (
{
background = {
shapes = (
{
closed = 1;
nodes = (
(382,-8,o),
(489,78,o),
(489,205,cs),
(489,323,o),
(397,407,o),
(248,407,cs),
(174,407,l),
(155,402,l),
(155,350,l),
(240,350,ls),
(347,350,o),
(422,294,o),
(422,201,cs),
(422,104,o),
(339,55,o),
(250,55,cs),
(177,55,o),
(106,88,o),
(73,166,c),
(16,136,l),
(57,44,o),
(136,-8,o),
(244,-8,cs)
);
},
{
closed = 1;
nodes = (
(468,650,l),
(468,700,l),
(59,700,l),
(59,639,l),
(405,639,l),
(387,653,l),
(155,402,l),
(235,403,l)
);
}
);
};
layerId = "9CA0F1F1-C419-4983-8E88-5CF3F967428B";
shapes = (
{
closed = 1;
nodes = (
(382,-8,o),
(489,78,o),
(489,205,cs),
(489,323,o),
(397,407,o),
(248,407,cs),
(174,407,l),
(155,402,l,{
name = "🔥";
}),
(155,350,l),
(240,350,ls),
(347,350,o),
(422,294,o),
(422,201,cs),
(422,104,o),
(339,55,o),
(250,55,cs),
(177,55,o),
(106,88,o),
(73,166,c),
(16,136,l),
(57,44,o),
(136,-8,o),
(244,-8,cs)
);
},
{
closed = 1;
nodes = (
(468,650,l),
(468,700,l),
(59,700,l),
(59,639,l),
(405,639,l),
(387,653,l),
(155,402,l,{
name = "🔥";
}),
(235,403,l)
);
}
);
width = 524;
},
{
background = {
shapes = (
{
closed = 1;
nodes = (
(436,-13,o),
(544,72,o),
(544,216,cs),
(544,347,o),
(449,430,o),
(277,430,cs),
(243,430,l),
(179,418,l),
(179,304,l),
(255,304,ls),
(333,304,o),
(385,277,o),
(385,214,cs),
(385,157,o),
(341,125,o),
(278,125,cs),
(214,125,o),
(163,158,o),
(125,228,c),
(8,153,l),
(62,29,o),
(171,-13,o),
(278,-13,cs)
);
},
{
closed = 1;
nodes = (
(512,576,l),
(512,700,l),
(53,700,l),
(53,566,l),
(413,566,l),
(376,616,l),
(179,418,l),
(326,390,l)
);
}
);
};
hints = (
{
horizontal = 1;
options = 4;
origin = (0,5);
target = (0,4);
type = TTShift;
},
{
horizontal = 1;
options = 4;
origin = (0,5);
target = (1,6);
type = TTShift;
},
{
horizontal = 1;
options = 8;
origin = (0,9);
stem = 0;
target = (0,5);
type = TTStem;
},
{
horizontal = 1;
options = 4;
origin = (0,15);
other1 = (0,18);
target = (0,9);
type = TTInterpolate;
},
{
horizontal = 1;
options = 4;
origin = (0,22);
stem = 0;
target = (0,15);
type = TTStem;
},
{
horizontal = 1;
options = 4;
origin = (1,2);
stem = 0;
target = (1,3);
type = TTStem;
},
{
horizontal = 1;
options = 4;
origin = (1,3);
other1 = (0,9);
target = (0,15);
type = TTInterpolate;
},
{
horizontal = 1;
options = 4;
origin = (1,3);
target = (1,0);
type = TTShift;
}
);
layerId = "5500A485-9BC9-4FA7-853B-8075021C5598";
shapes = (
{
closed = 1;
nodes = (
(436,-13,o),
(544,72,o),
(544,216,cs),
(544,347,o),
(449,430,o),
(277,430,cs),
(243,430,l),
(179,418,l),
(179,304,l),
(255,304,ls),
(333,304,o),
(385,277,o),
(385,214,cs),
(385,157,o),
(341,125,o),
(278,125,cs),
(214,125,o),
(163,158,o),
(125,228,c),
(8,153,l),
(62,29,o),
(171,-13,o),
(278,-13,cs)
);
},
{
closed = 1;
nodes = (
(512,576,l),
(512,700,l),
(53,700,l),
(53,566,l),
(413,566,l),
(376,616,l),
(179,418,l,{
name = "🔥";
}),
(326,390,l)
);
}
);
width = 577;
},
{
associatedMasterId = "9CA0F1F1-C419-4983-8E88-5CF3F967428B";
background = {
guides = (
{
angle = 128;
pos = (170,402);
},
{
angle = 128;
pos = (153,700);
},
{
angle = 128;
pos = (556,700);
}
);
shapes = (
{
closed = 1;
nodes = (
(350,-8,o),
(464,104,o),
(464,230,cs),
(464,341,o),
(375,407,o),
(252,407,cs),
(191,407,l),
(170,402,l),
(157,350,l),
(244,350,ls),
(340,350,o),
(396,302,o),
(396,223,cs),
(396,127,o),
(312,55,o),
(209,55,cs),
(131,55,o),
(72,97,o),
(45,169,c),
(-12,140,l),
(23,45,o),
(100,-8,o),
(204,-8,cs)
);
},
{
closed = 1;
nodes = (
(544,650,l),
(556,700,l),
(153,700,l),
(138,639,l),
(471,639,l),
(464,659,l),
(170,402,l),
(242,392,l)
);
}
);
};
guides = (
{
angle = 76;
pos = (170,402);
},
{
angle = 76;
pos = (153,700);
},
{
angle = 76;
pos = (556,700);
}
);
layerId = "B8B1B9F7-57AD-40F6-8824-2C22876E3A5C";
name = "new Layer";
shapes = (
{
closed = 1;
nodes = (
(350,-8,o),
(464,104,o),
(464,230,cs),
(464,341,o),
(375,407,o),
(252,407,cs),
(191,407,l),
(170,402,l),
(157,350,l),
(244,350,ls),
(340,350,o),
(396,302,o),
(396,223,cs),
(396,127,o),
(312,55,o),
(209,55,cs),
(131,55,o),
(72,97,o),
(45,169,c),
(-12,140,l),
(23,45,o),
(100,-8,o),
(204,-8,cs)
);
},
{
closed = 1;
nodes = (
(544,650,l),
(556,700,l),
(153,700,l),
(138,639,l),
(471,639,l),
(464,659,l),
(170,402,l),
(242,392,l)
);
}
);
width = 511;
},
{
associatedMasterId = "9CA0F1F1-C419-4983-8E88-5CF3F967428B";
background = {
guides = (
{
angle = 76;
pos = (569,576);
},
{
angle = 76;
pos = (193,418);
},
{
angle = 76;
pos = (113,566);
}
);
shapes = (
{
closed = 1;
nodes = (
(396,-13,o),
(516,87,o),
(516,242,cs),
(516,352,o),
(422,430,o),
(271,430,cs),
(261,430,l),
(193,418,l),
(165,304,l),
(247,304,ls),
(313,304,o),
(354,278,o),
(354,227,cs),
(354,164,o),
(308,125,o),
(238,125,cs),
(182,125,o),
(138,159,o),
(107,227,c),
(-14,160,l),
(26,38,o),
(131,-13,o),
(234,-13,cs)
);
},
{
closed = 1;
nodes = (
(559,576,l),
(590,700,l),
(146,700,l),
(113,566,l),
(456,566,l),
(420,616,l),
(193,418,l),
(343,390,l)
);
}
);
};
guides = (
{
angle = 76;
pos = (569,576);
},
{
angle = 76;
pos = (193,418);
},
{
angle = 76;
pos = (113,566);
}
);
layerId = "2275FDE9-41F5-43D3-856B-3453FC30E713";
name = "new Layer";
shapes = (
{
closed = 1;
nodes = (
(396,-13,o),
(516,87,o),
(516,242,cs),
(516,352,o),
(422,430,o),
(271,430,cs),
(261,430,l),
(193,418,l),
(165,304,l),
(247,304,ls),
(313,304,o),
(354,278,o),
(354,227,cs),
(354,164,o),
(308,125,o),
(238,125,cs),
(182,125,o),
(138,159,o),
(107,227,c),
(-14,160,l),
(26,38,o),
(131,-13,o),
(234,-13,cs)
);
},
{
closed = 1;
nodes = (
(559,576,l),
(590,700,l),
(146,700,l),
(113,566,l),
(456,566,l),
(420,616,l),
(193,418,l),
(343,390,l)
);
}
);
width = 563;
},
{
background = {
shapes = (
{
closed = 1;
nodes = (
(382,-8,o),
(489,78,o),
(489,205,cs),
(489,323,o),
(397,407,o),
(248,407,cs),
(174,407,l),
(155,402,l),
(155,350,l),
(240,350,ls),
(347,350,o),
(422,294,o),
(422,201,cs),
(422,104,o),
(339,55,o),
(250,55,cs),
(177,55,o),
(106,88,o),
(73,166,c),
(16,136,l),
(57,44,o),
(136,-8,o),
(244,-8,cs)
);
},
{
closed = 1;
nodes = (
(468,650,l),
(468,700,l),
(59,700,l),
(59,639,l),
(301,639,ls),
(337,639,o),
(372,641,o),
(385,646,c),
(386,643,l),
(374,637,o),
(349,612,o),
(325,586,cs),
(155,402,l),
(235,403,l)
);
}
);
};
layerId = "CAEAD647-A533-4D72-9ACE-F5DE50C4DBD4";
shapes = (
{
closed = 1;
nodes = (
(402,-8,o),
(509,78,o),
(509,205,cs),
(509,323,o),
(417,407,o),
(268,407,cs),
(194,407,l),
(175,402,l,{
name = "🔥";
}),
(175,350,l),
(260,350,ls),
(367,350,o),
(442,294,o),
(442,201,cs),
(442,104,o),
(359,55,o),
(270,55,cs),
(197,55,o),
(126,88,o),
(93,166,c),
(36,136,l),
(77,44,o),
(156,-8,o),
(264,-8,cs)
);
},
{
closed = 1;
nodes = (
(488,650,l),
(488,700,l),
(79,700,l),
(79,639,l),
(321,639,ls),
(357,639,o),
(392,641,o),
(405,646,c),
(406,643,l),
(394,637,o),
(369,612,o),
(345,586,cs),
(175,402,l,{
name = "🔥";
}),
(255,403,l)
);
}
);
width = 564;
},
{
associatedMasterId = "CAEAD647-A533-4D72-9ACE-F5DE50C4DBD4";
background = {
shapes = (
{
closed = 1;
nodes = (
(350,-8,o),
(464,104,o),
(464,230,cs),
(464,341,o),
(375,407,o),
(252,407,cs),
(191,407,l),
(170,402,l),
(157,350,l),
(244,350,ls),
(340,350,o),
(396,302,o),
(396,223,cs),
(396,127,o),
(312,55,o),
(209,55,cs),
(131,55,o),
(72,97,o),
(45,169,c),
(-12,140,l),
(23,45,o),
(100,-8,o),
(204,-8,cs)
);
},
{
closed = 1;
nodes = (
(544,650,l),
(556,700,l),
(153,700,l),
(138,639,l),
(368,639,ls),
(402,639,o),
(440,641,o),
(453,646,c),
(453,643,l),
(435,635,o),
(407,608,o),
(380,585,cs),
(170,402,l),
(242,392,l)
);
}
);
};
color = 5;
layerId = "B601EA6D-18F6-4F7A-AB9B-32619A700E7F";
name = "new Layer";
shapes = (
{
closed = 1;
nodes = (
(350,-8,o),
(464,104,o),
(464,230,cs),
(464,341,o),
(375,407,o),
(252,407,cs),
(191,407,l),
(170,402,l),
(157,350,l),
(244,350,ls),
(340,350,o),
(396,302,o),
(396,223,cs),
(396,127,o),
(312,55,o),
(209,55,cs),
(131,55,o),
(72,97,o),
(45,169,c),
(-12,140,l),
(23,45,o),
(100,-8,o),
(204,-8,cs)
);
},
{
closed = 1;
nodes = (
(544,650,l),
(556,700,l),
(153,700,l),
(138,639,l),
(368,639,ls),
(402,639,o),
(440,641,o),
(453,646,c),
(453,643,l),
(435,635,o),
(407,608,o),
(380,585,cs),
(170,402,l),
(242,392,l)
);
}
);
width = 511;
},
{
associatedMasterId = "CAEAD647-A533-4D72-9ACE-F5DE50C4DBD4";
background = {
shapes = (
{
closed = 1;
nodes = (
(396,-13,o),
(516,87,o),
(516,242,cs),
(516,352,o),
(422,430,o),
(271,430,cs),
(261,430,l),
(193,418,l),
(165,304,l),
(247,304,ls),
(313,304,o),
(354,278,o),
(354,227,cs),
(354,164,o),
(308,125,o),
(238,125,cs),
(182,125,o),
(138,159,o),
(107,227,c),
(-14,160,l),
(26,38,o),
(131,-13,o),
(234,-13,cs)
);
},
{
closed = 1;
nodes = (
(559,576,l),
(590,700,l),
(146,700,l),
(113,566,l),
(293,566,ls),
(329,566,o),
(367,568,o),
(380,573,c),
(381,570,l),
(369,565,o),
(335,541,o),
(302,513,cs),
(193,418,l),
(343,390,l)
);
}
);
};
layerId = "D801DBA0-56C8-4796-B851-E4B68DAF2CF4";
name = "new Layer";
shapes = (
{
closed = 1;
nodes = (
(396,-13,o),
(516,87,o),
(516,242,cs),
(516,352,o),
(422,430,o),
(271,430,cs),
(261,430,l),
(193,418,l),
(165,304,l),
(247,304,ls),
(313,304,o),
(354,278,o),
(354,227,cs),
(354,164,o),
(308,125,o),
(238,125,cs),
(182,125,o),
(138,159,o),
(107,227,c),
(-14,160,l),
(26,38,o),
(131,-13,o),
(234,-13,cs)
);
},
{
closed = 1;
nodes = (
(559,576,l),
(590,700,l),
(146,700,l),
(113,566,l),
(293,566,ls),
(329,566,o),
(367,568,o),
(380,573,c),
(381,570,l),
(369,565,o),
(335,541,o),
(302,513,cs),
(193,418,l),
(343,390,l)
);
}
);
width = 563;
},
{
background = {
shapes = (
{
closed = 1;
nodes = (
(436,-13,o),
(544,72,o),
(544,216,cs),
(544,347,o),
(449,430,o),
(277,430,cs),
(243,430,l),
(179,418,l),
(179,304,l),
(255,304,ls),
(333,304,o),
(385,277,o),
(385,214,cs),
(385,157,o),
(341,125,o),
(278,125,cs),
(214,125,o),
(163,158,o),
(125,228,c),
(8,153,l),
(62,29,o),
(171,-13,o),
(278,-13,cs)
);
},
{
closed = 1;
nodes = (
(512,576,l),
(512,700,l),
(53,700,l),
(53,566,l),
(251,566,ls),
(289,566,o),
(325,568,o),
(338,573,c),
(340,570,l),
(327,564,o),
(299,540,o),
(273,513,cs),
(179,418,l),
(326,390,l)
);
}
);
};
hints = (
{
horizontal = 1;
options = 4;
origin = (0,6);
target = (0,4);
type = TTShift;
},
{
horizontal = 1;
options = 4;
origin = (0,6);
target = (1,12);
type = TTShift;
},
{
horizontal = 1;
options = 8;
origin = (0,8);
stem = 0;
target = (0,6);
type = TTStem;
},
{
horizontal = 1;
options = 4;
origin = (0,15);
other1 = (0,18);
target = (0,8);
type = TTInterpolate;
},
{
horizontal = 1;
options = 4;
origin = (0,22);
stem = 0;
target = (0,15);
type = TTStem;
},
{
horizontal = 1;
options = 4;
origin = (1,2);
stem = 0;
target = (1,3);
type = TTStem;
},
{
horizontal = 1;
options = 4;
origin = (1,3);
other1 = (0,8);
target = (0,15);
type = TTInterpolate;
},
{
horizontal = 1;
options = 4;
origin = (1,3);
target = (1,0);
type = TTShift;
}
);
layerId = "474EAD97-6F36-4C8E-8A0A-83C4F7DF9055";
shapes = (
{
closed = 1;
nodes = (
(456,-13,o),
(564,72,o),
(564,216,cs),
(564,347,o),
(469,430,o),
(297,430,cs),
(263,430,l),
(199,418,l),
(199,304,l),
(275,304,ls),
(353,304,o),
(405,277,o),
(405,214,cs),
(405,157,o),
(361,125,o),
(298,125,cs),
(234,125,o),
(183,158,o),
(145,228,c),
(28,153,l),
(82,29,o),
(191,-13,o),
(298,-13,cs)
);
},
{
closed = 1;
nodes = (
(532,576,l),
(532,700,l),
(73,700,l),
(73,566,l),
(271,566,ls),
(309,566,o),
(345,568,o),
(358,573,c),
(360,570,l),
(347,564,o),
(319,540,o),
(293,513,cs),
(199,418,l,{
name = "🔥";
}),
(346,390,l)
);
}
);
width = 617;
}
);
note = "leicht optimiert";
unicode = 51;
}
{
glyphname = four;
kernLeft = four;
kernRight = four;
layers = (
{
background = {
shapes = (
{
closed = 1;
nodes = (
(513,187,l),
(513,248,l),
(62,248,l),
(62,225,l),
(381,641,l),
(393,700,l),
(353,700,l),
(15,258,l),
(15,187,l)
);
},
{
closed = 1;
nodes = (
(411,0,l),
(411,700,l),
(352,700,l),
(346,646,l),
(346,0,l)
);
}
);
};
layerId = "9CA0F1F1-C419-4983-8E88-5CF3F967428B";
shapes = (
{
closed = 1;
nodes = (
(513,187,l),
(513,248,l),
(62,248,l),
(62,225,l),
(381,641,l),
(393,700,l),
(353,700,l),
(15,258,l),
(15,187,l)
);
},
{
closed = 1;
nodes = (
(411,0,l),
(411,700,l),
(352,700,l),
(346,646,l),
(346,0,l)
);
}
);
width = 535;
},
{
background = {
shapes = (
{
closed = 1;
nodes = (
(565,147,l),
(565,281,l),
(129,281,l),
(130,226,l),
(436,616,l),
(431,700,l),
(337,700,l),
(18,292,l),
(18,147,l)
);
},
{
closed = 1;
nodes = (
(478,0,l),
(478,700,l),
(359,700,l),
(327,583,l),
(327,0,l)
);
}
);
};
hints = (
{
horizontal = 1;
origin = (1,0);
type = TTSnap;
},
{
horizontal = 1;
origin = (1,1);
type = TTSnap;
},
{
horizontal = 1;
origin = (1,0);
other1 = (0,0);
target = (1,1);
type = TTInterpolate;
},
{
horizontal = 1;
origin = (0,0);
stem = 0;
target = (0,1);
type = TTStem;
},
{
horizontal = 1;
options = 4;
origin = (0,0);
target = (0,0,1,4);
type = TTShift;
},
{
horizontal = 1;
options = 4;
origin = (0,1);
target = (0,2,1,4);
type = TTShift;
},
{
horizontal = 1;
options = 4;
origin = (0,1);
target = (0,7);
type = TTShift;
},
{
horizontal = 1;
options = 4;
origin = (1,1);
other1 = (0,4,1,4);
target = (0,1);
type = TTInterpolate;
}
);
layerId = "5500A485-9BC9-4FA7-853B-8075021C5598";
shapes = (
{
closed = 1;
nodes = (
(565,147,l),
(565,281,l),
(129,281,l),
(130,226,l),
(436,616,l),
(431,700,l),
(337,700,l),
(18,292,l),
(18,147,l)
);
},
{
closed = 1;
nodes = (
(478,0,l),
(478,700,l),
(359,700,l),
(327,583,l),
(327,0,l)
);
}
);
width = 596;
},
{
associatedMasterId = "9CA0F1F1-C419-4983-8E88-5CF3F967428B";
background = {
shapes = (
{
closed = 1;
nodes = (
(499,187,l),
(515,248,l),
(73,248,l),
(70,225,l),
(477,638,l),
(503,700,l),
(462,700,l),
(27,258,l),
(9,187,l)
);
},
{
closed = 1;
nodes = (
(353,0,l),
(527,700,l),
(467,700,l),
(448,646,l),
(287,0,l)
);
}
);
};
layerId = "B8B1B9F7-57AD-40F6-8824-2C22876E3A5C";
name = "new Layer";
shapes = (
{
closed = 1;
nodes = (
(499,187,l),
(515,248,l),
(73,248,l),
(70,225,l),
(477,638,l),
(503,700,l),
(462,700,l),
(27,258,l),
(9,187,l)
);
},
{
closed = 1;
nodes = (
(353,0,l),
(527,700,l),
(467,700,l),
(448,646,l),
(287,0,l)
);
}
);
width = 539;
},
{
associatedMasterId = "9CA0F1F1-C419-4983-8E88-5CF3F967428B";
background = {
shapes = (
{
closed = 1;
nodes = (
(542,147,l),
(576,281,l),
(150,281,l),
(147,226,l),
(525,616,l),
(543,700,l),
(436,700,l),
(39,292,l),
(2,147,l)
);
},
{
closed = 1;
nodes = (
(422,0,l),
(596,700,l),
(474,700,l),
(412,583,l),
(267,0,l)
);
}
);
};
layerId = "2275FDE9-41F5-43D3-856B-3453FC30E713";
name = "new Layer";
shapes = (
{
closed = 1;
nodes = (
(542,147,l),
(576,281,l),
(150,281,l),
(147,226,l),
(525,616,l),
(543,700,l),
(436,700,l),
(39,292,l),
(2,147,l)
);
},
{
closed = 1;
nodes = (
(422,0,l),
(596,700,l),
(474,700,l),
(412,583,l),
(267,0,l)
);
}
);
width = 604;
},
{
background = {
shapes = (
{
closed = 1;
nodes = (
(411,700,l),
(353,700,l),
(15,258,l),
(15,187,l),
(346,187,l),
(346,0,l),
(411,0,l),
(411,187,l),
(513,187,l),
(513,248,l),
(411,248,l)
);
},
{
closed = 1;
nodes = (
(346,248,l),
(148,248,ls),
(114,248,o),
(81,246,o),
(68,240,c),
(67,244,l),
(79,250,o),
(102,276,o),
(122,303,cs),
(294,528,ls),
(320,562,o),
(344,598,o),
(349,611,c),
(352,610,l),
(348,596,o),
(346,554,o),
(346,511,cs)
);
}
);
};
layerId = "CAEAD647-A533-4D72-9ACE-F5DE50C4DBD4";
shapes = (
{
closed = 1;
nodes = (
(431,700,l),
(373,700,l),
(35,258,l),
(35,187,l),
(366,187,l),
(366,0,l),
(431,0,l),
(431,187,l),
(533,187,l),
(533,248,l),
(431,248,l)
);
},
{
closed = 1;
nodes = (
(366,248,l),
(168,248,ls),
(134,248,o),
(101,246,o),
(88,240,c),
(87,244,l),
(99,250,o),
(122,276,o),
(142,303,cs),
(314,528,ls),
(340,562,o),
(364,598,o),
(369,611,c),
(372,610,l),
(368,596,o),
(366,554,o),
(366,511,cs)
);
}
);
width = 575;
},
{
associatedMasterId = "CAEAD647-A533-4D72-9ACE-F5DE50C4DBD4";
background = {
shapes = (
{
closed = 1;
nodes = (
(534,700,l),
(469,700,l),
(34,258,l),
(17,187,l),
(341,187,l),
(294,0,l),
(360,0,l),
(407,187,l),
(506,187,l),
(522,248,l),
(422,248,l)
);
},
{
closed = 1;
nodes = (
(356,248,l),
(166,248,ls),
(133,248,o),
(99,246,o),
(85,240,c),
(85,244,l),
(98,250,o),
(127,276,o),
(154,303,cs),
(376,528,ls),
(409,562,o),
(441,599,o),
(449,611,c),
(452,610,l),
(445,596,o),
(432,554,o),
(421,511,cs)
);
}
);
};
color = 5;
layerId = "FE739B2A-390B-4EAA-B23A-C7D7A37A2A37";
name = "new Layer";
shapes = (
{
closed = 1;
nodes = (
(534,700,l),
(469,700,l),
(34,258,l),
(17,187,l),
(341,187,l),
(294,0,l),
(360,0,l),
(407,187,l),
(506,187,l),
(522,248,l),
(422,248,l)
);
},
{
closed = 1;
nodes = (
(356,248,l),
(166,248,ls),
(133,248,o),
(99,246,o),
(85,240,c),
(85,244,l),
(98,250,o),
(127,276,o),
(154,303,cs),
(376,528,ls),
(409,562,o),
(441,599,o),
(449,611,c),
(452,610,l),
(445,596,o),
(432,554,o),
(421,511,cs)
);
}
);
width = 546;
},
{
associatedMasterId = "CAEAD647-A533-4D72-9ACE-F5DE50C4DBD4";
background = {
shapes = (
{
closed = 1;
nodes = (
(596,700,l),
(436,700,l),
(39,292,l),
(2,147,l),
(304,147,l),
(267,0,l),
(422,0,l),
(459,147,l),
(542,147,l),
(576,281,l),
(492,281,l)
);
},
{
closed = 1;
nodes = (
(337,281,l),
(266,281,ls),
(231,281,o),
(196,279,o),
(180,273,c),
(180,276,l),
(195,283,o),
(225,306,o),
(252,334,cs),
(316,401,ls),
(354,440,o),
(385,478,o),
(393,493,c),
(396,492,l),
(388,477,o),
(374,430,o),
(362,383,cs)
);
}
);
};
layerId = "00350692-CEAD-4632-8453-14C15E2C7B71";
name = "new Layer";
shapes = (
{
closed = 1;
nodes = (
(596,700,l),
(436,700,l),
(39,292,l),
(2,147,l),
(304,147,l),
(267,0,l),
(422,0,l),
(459,147,l),
(542,147,l),
(576,281,l),
(492,281,l)
);
},
{
closed = 1;
nodes = (
(337,281,l),
(266,281,ls),
(231,281,o),
(196,279,o),
(180,273,c),
(180,276,l),
(195,283,o),
(225,306,o),
(252,334,cs),
(316,401,ls),
(354,440,o),
(385,478,o),
(393,493,c),
(396,492,l),
(388,477,o),
(374,430,o),
(362,383,cs)
);
}
);
width = 604;
},
{
background = {
shapes = (
{
closed = 1;
nodes = (
(478,700,l),
(337,700,l),
(18,292,l),
(18,147,l),
(327,147,l),
(327,0,l),
(478,0,l),
(478,147,l),
(565,147,l),
(565,281,l),
(478,281,l)
);
},
{
closed = 1;
nodes = (
(327,281,l),
(240,281,ls),
(206,281,o),
(174,279,o),
(161,273,c),
(160,276,l),
(172,283,o),
(194,307,o),
(214,333,cs),
(274,410,ls),
(301,443,o),
(325,478,o),
(330,491,c),
(333,490,l),
(329,476,o),
(327,434,o),
(327,391,cs)
);
}
);
};
hints = (
{
horizontal = 1;
origin = (0,5);
type = TTSnap;
},
{
horizontal = 1;
origin = (0,0);
type = TTSnap;
},
{
horizontal = 1;
origin = (0,5);
other1 = (0,8);
target = (0,0);
type = TTInterpolate;
},
{
horizontal = 1;
origin = (0,8);
stem = 0;
target = (0,9);
type = TTStem;
},
{
horizontal = 1;
options = 4;
origin = (0,8);
target = (0,4);
type = TTShift;
},
{
horizontal = 1;
options = 4;
origin = (0,9);
target = (1,0);
type = TTShift;
},
{
horizontal = 1;
options = 4;
origin = (0,9);
target = (0,2);
type = TTShift;
},
{
horizontal = 1;
options = 4;
origin = (0,0);
other1 = (1,12);
target = (0,9);
type = TTInterpolate;
}
);
layerId = "474EAD97-6F36-4C8E-8A0A-83C4F7DF9055";
shapes = (
{
closed = 1;
nodes = (
(498,700,l),
(357,700,l),
(38,292,l),
(38,147,l),
(347,147,l),
(347,0,l),
(498,0,l),
(498,147,l),
(585,147,l),
(585,281,l),
(498,281,l)
);
},
{
closed = 1;
nodes = (
(347,281,l),
(260,281,ls),
(226,281,o),
(194,279,o),
(181,273,c),
(180,276,l),
(192,283,o),
(214,307,o),
(234,333,cs),
(294,410,ls),
(321,443,o),
(345,478,o),
(350,491,c),
(353,490,l),
(349,476,o),
(347,434,o),
(347,391,cs)
);
}
);
width = 636;
}
);
unicode = 52;
}
{
glyphname = six;
layers = (
{
background = {
shapes = (
{
closed = 1;
nodes = (
(327,700,l),
(78,360,ls),
(40,308,o),
(26,261,o),
(26,211,cs),
(26,86,o),
(125,-8,o),
(263,-8,cs),
(401,-8,o),
(500,86,o),
(500,210,cs),
(500,334,o),
(403,428,o),
(274,428,cs),
(218,428,o),
(179,410,o),
(155,388,c),
(155,368,l),
(407,700,l)
);
},
{
closed = 1;
nodes = (
(363,366,o),
(432,300,o),
(432,211,cs),
(432,121,o),
(363,55,o),
(263,55,cs),
(163,55,o),
(93,120,o),
(93,211,cs),
(93,300,o),
(163,366,o),
(263,366,cs)
);
}
);
};
layerId = "9CA0F1F1-C419-4983-8E88-5CF3F967428B";
shapes = (
{
closed = 1;
nodes = (
(327,700,l),
(78,360,ls),
(40,308,o),
(26,261,o),
(26,211,cs),
(26,86,o),
(125,-8,o),
(263,-8,cs),
(401,-8,o),
(500,86,o),
(500,210,cs),
(500,334,o),
(403,428,o),
(274,428,cs),
(218,428,o),
(179,410,o),
(155,388,c),
(155,368,l),
(407,700,l)
);
},
{
closed = 1;
nodes = (
(363,366,o),
(432,300,o),
(432,211,cs),
(432,121,o),
(363,55,o),
(263,55,cs),
(163,55,o),
(93,120,o),
(93,211,cs),
(93,300,o),
(163,366,o),
(263,366,cs)
);
}
);
width = 521;
},
{
background = {
shapes = (
{
closed = 1;
nodes = (
(306,700,l),
(104,426,ls),
(52,357,o),
(29,292,o),
(29,223,cs),
(29,90,o),
(140,-13,o),
(286,-13,cs),
(433,-13,o),
(545,92,o),
(545,230,cs),
(545,356,o),
(443,451,o),
(322,451,cs),
(277,451,o),
(244,437,o),
(212,416,c),
(263,411,l),
(488,700,l)
);
},
{
closed = 1;
nodes = (
(341,323,o),
(386,282,o),
(386,223,cs),
(386,165,o),
(343,125,o),
(286,125,cs),
(228,125,o),
(188,164,o),
(188,223,cs),
(188,282,o),
(230,323,o),
(286,323,cs)
);
}
);
};
hints = (
{
horizontal = 1;
options = 4;
origin = (0,7);
stem = 0;
target = (1,5);
type = TTStem;
},
{
horizontal = 1;
options = 4;
origin = (1,11);
stem = 0;
target = (0,13);
type = TTStem;
},
{
horizontal = 1;
options = 4;
origin = (0,0);
type = TTSnap;
},
{
horizontal = 1;
options = 4;
origin = (0,13);
target = (0,1);
type = TTShift;
}
);
layerId = "5500A485-9BC9-4FA7-853B-8075021C5598";
shapes = (
{
closed = 1;
nodes = (
(306,700,l),
(104,426,ls),
(52,357,o),
(29,292,o),
(29,223,cs),
(29,90,o),
(140,-13,o),
(286,-13,cs),
(433,-13,o),
(545,92,o),
(545,230,cs),
(545,356,o),
(443,451,o),
(322,451,cs),
(277,451,o),
(244,437,o),
(212,416,c),
(263,411,l),
(488,700,l)
);
},
{
closed = 1;
nodes = (
(341,323,o),
(386,282,o),
(386,223,cs),
(386,165,o),
(343,125,o),
(286,125,cs),
(228,125,o),
(188,164,o),
(188,223,cs),
(188,282,o),
(230,323,o),
(286,323,cs)
);
}
);
width = 566;
},
{
associatedMasterId = "9CA0F1F1-C419-4983-8E88-5CF3F967428B";
background = {
shapes = (
{
closed = 1;
nodes = (
(404,700,l),
(100,360,ls),
(53,307,o),
(21,247,o),
(21,179,cs),
(21,69,o),
(106,-8,o),
(228,-8,cs),
(379,-8,o),
(490,112,o),
(490,241,cs),
(490,353,o),
(409,427,o),
(292,427,cs),
(238,427,o),
(210,409,o),
(182,388,c),
(183,368,l),
(487,700,l)
);
},
{
closed = 1;
nodes = (
(364,366,o),
(422,317,o),
(422,240,cs),
(422,135,o),
(340,55,o),
(229,55,cs),
(145,55,o),
(89,106,o),
(89,185,cs),
(89,283,o),
(174,366,o),
(280,366,cs)
);
}
);
};
layerId = "B8B1B9F7-57AD-40F6-8824-2C22876E3A5C";
name = "new Layer";
shapes = (
{
closed = 1;
nodes = (
(404,700,l),
(100,360,ls),
(53,307,o),
(21,247,o),
(21,179,cs),
(21,69,o),
(106,-8,o),
(228,-8,cs),
(379,-8,o),
(490,112,o),
(490,241,cs),
(490,353,o),
(409,427,o),
(292,427,cs),
(238,427,o),
(210,409,o),
(182,388,c),
(183,368,l),
(487,700,l)
);
},
{
closed = 1;
nodes = (
(364,366,o),
(422,317,o),
(422,240,cs),
(422,135,o),
(340,55,o),
(229,55,cs),
(145,55,o),
(89,106,o),
(89,185,cs),
(89,283,o),
(174,366,o),
(280,366,cs)
);
}
);
width = 520;
},
{
associatedMasterId = "9CA0F1F1-C419-4983-8E88-5CF3F967428B";
background = {
shapes = (
{
closed = 1;
nodes = (
(374,700,l),
(128,426,ls),
(77,370,o),
(19,298,o),
(19,201,cs),
(19,73,o),
(121,-13,o),
(253,-13,cs),
(416,-13,o),
(533,118,o),
(533,250,cs),
(533,367,o),
(440,451,o),
(333,451,cs),
(290,451,o),
(275,437,o),
(240,416,c),
(291,411,l),
(561,700,l)
);
},
{
closed = 1;
nodes = (
(335,323,o),
(371,290,o),
(371,240,cs),
(371,182,o),
(324,125,o),
(260,125,cs),
(212,125,o),
(176,158,o),
(176,208,cs),
(176,266,o),
(223,323,o),
(287,323,cs)
);
}
);
};
layerId = "2275FDE9-41F5-43D3-856B-3453FC30E713";
name = "new Layer";
shapes = (
{
closed = 1;
nodes = (
(374,700,l),
(128,426,ls),
(77,370,o),
(19,298,o),
(19,201,cs),
(19,73,o),
(121,-13,o),
(253,-13,cs),
(416,-13,o),
(533,118,o),
(533,250,cs),
(533,367,o),
(440,451,o),
(333,451,cs),
(290,451,o),
(275,437,o),
(240,416,c),
(291,411,l),
(561,700,l)
);
},
{
closed = 1;
nodes = (
(335,323,o),
(371,290,o),
(371,240,cs),
(371,182,o),
(324,125,o),
(260,125,cs),
(212,125,o),
(176,158,o),
(176,208,cs),
(176,266,o),
(223,323,o),
(287,323,cs)
);
}
);
width = 560;
},
{
background = {
shapes = (
{
closed = 1;
nodes = (
(327,700,l),
(78,360,ls),
(40,308,o),
(26,261,o),
(26,211,cs),
(26,86,o),
(125,-8,o),
(263,-8,cs),
(401,-8,o),
(500,86,o),
(500,210,cs),
(500,334,o),
(403,428,o),
(274,428,cs),
(218,428,o),
(179,410,o),
(155,388,c),
(155,368,l),
(407,700,l)
);
},
{
closed = 1;
nodes = (
(363,366,o),
(432,300,o),
(432,211,cs),
(432,121,o),
(363,55,o),
(263,55,cs),
(163,55,o),
(93,120,o),
(93,211,cs),
(93,300,o),
(163,366,o),
(263,366,cs)
);
}
);
};
layerId = "CAEAD647-A533-4D72-9ACE-F5DE50C4DBD4";
shapes = (
{
closed = 1;
nodes = (
(347,700,l),
(98,360,ls),
(60,308,o),
(46,261,o),
(46,211,cs),
(46,86,o),
(145,-8,o),
(283,-8,cs),
(421,-8,o),
(520,86,o),
(520,210,cs),
(520,334,o),
(423,428,o),
(294,428,cs),
(238,428,o),
(199,410,o),
(175,388,c),
(175,368,l),
(427,700,l)
);
},
{
closed = 1;
nodes = (
(383,366,o),
(452,300,o),
(452,211,cs),
(452,121,o),
(383,55,o),
(283,55,cs),
(183,55,o),
(113,120,o),
(113,211,cs),
(113,300,o),
(183,366,o),
(283,366,cs)
);
}
);
width = 561;
},
{
associatedMasterId = "CAEAD647-A533-4D72-9ACE-F5DE50C4DBD4";
background = {
shapes = (
{
closed = 1;
nodes = (
(404,700,l),
(100,360,ls),
(53,307,o),
(21,247,o),
(21,179,cs),
(21,69,o),
(106,-8,o),
(228,-8,cs),
(379,-8,o),
(490,112,o),
(490,241,cs),
(490,353,o),
(409,427,o),
(292,427,cs),
(238,427,o),
(210,409,o),
(182,388,c),
(183,368,l),
(487,700,l)
);
},
{
closed = 1;
nodes = (
(364,366,o),
(422,317,o),
(422,240,cs),
(422,135,o),
(340,55,o),
(229,55,cs),
(145,55,o),
(89,106,o),
(89,185,cs),
(89,283,o),
(174,366,o),
(280,366,cs)
);
}
);
};
layerId = "B717D457-17E9-4451-A53F-4C53871F56A1";
name = "new Layer";
shapes = (
{
closed = 1;
nodes = (
(404,700,l),
(100,360,ls),
(53,307,o),
(21,247,o),
(21,179,cs),
(21,69,o),
(106,-8,o),
(228,-8,cs),
(379,-8,o),
(490,112,o),
(490,241,cs),
(490,353,o),
(409,427,o),
(292,427,cs),
(238,427,o),
(210,409,o),
(182,388,c),
(183,368,l),
(487,700,l)
);
},
{
closed = 1;
nodes = (
(364,366,o),
(422,317,o),
(422,240,cs),
(422,135,o),
(340,55,o),
(229,55,cs),
(145,55,o),
(89,106,o),
(89,185,cs),
(89,283,o),
(174,366,o),
(280,366,cs)
);
}
);
width = 520;
},
{
associatedMasterId = "CAEAD647-A533-4D72-9ACE-F5DE50C4DBD4";
background = {
shapes = (
{
closed = 1;
nodes = (
(374,700,l),
(128,426,ls),
(77,370,o),
(19,298,o),
(19,201,cs),
(19,73,o),
(121,-13,o),
(253,-13,cs),
(416,-13,o),
(533,118,o),
(533,250,cs),
(533,367,o),
(440,451,o),
(333,451,cs),
(290,451,o),
(275,437,o),
(240,416,c),
(291,411,l),
(561,700,l)
);
},
{
closed = 1;
nodes = (
(335,323,o),
(371,290,o),
(371,240,cs),
(371,182,o),
(324,125,o),
(260,125,cs),
(212,125,o),
(176,158,o),
(176,208,cs),
(176,266,o),
(223,323,o),
(287,323,cs)
);
}
);
};
layerId = "62F1C1FD-4156-4B8F-8AAB-6992458BFB3D";
name = "new Layer";
shapes = (
{
closed = 1;
nodes = (
(374,700,l),
(128,426,ls),
(77,370,o),
(19,298,o),
(19,201,cs),
(19,73,o),
(121,-13,o),
(253,-13,cs),
(416,-13,o),
(533,118,o),
(533,250,cs),
(533,367,o),
(440,451,o),
(333,451,cs),
(290,451,o),
(275,437,o),
(240,416,c),
(291,411,l),
(561,700,l)
);
},
{
closed = 1;
nodes = (
(335,323,o),
(371,290,o),
(371,240,cs),
(371,182,o),
(324,125,o),
(260,125,cs),
(212,125,o),
(176,158,o),
(176,208,cs),
(176,266,o),
(223,323,o),
(287,323,cs)
);
}
);
width = 560;
},
{
background = {
shapes = (
{
closed = 1;
nodes = (
(306,700,l),
(104,426,ls),
(52,357,o),
(29,292,o),
(29,223,cs),
(29,90,o),
(140,-13,o),
(286,-13,cs),
(433,-13,o),
(545,92,o),
(545,230,cs),
(545,356,o),
(443,451,o),
(322,451,cs),
(277,451,o),
(244,437,o),
(212,416,c),
(263,411,l),
(488,700,l)
);
},
{
closed = 1;
nodes = (
(341,323,o),
(386,282,o),
(386,223,cs),
(386,165,o),
(343,125,o),
(286,125,cs),
(228,125,o),
(188,164,o),
(188,223,cs),
(188,282,o),
(230,323,o),
(286,323,cs)
);
}
);
};
hints = (
{
horizontal = 1;
options = 4;
origin = (0,7);
stem = 0;
target = (1,5);
type = TTStem;
},
{
horizontal = 1;
options = 4;
origin = (1,11);
stem = 0;
target = (0,13);
type = TTStem;
},
{
horizontal = 1;
options = 4;
origin = (0,0);
type = TTSnap;
},
{
horizontal = 1;
options = 4;
origin = (0,13);
target = (0,1);
type = TTShift;
}
);
layerId = "474EAD97-6F36-4C8E-8A0A-83C4F7DF9055";
shapes = (
{
closed = 1;
nodes = (
(326,700,l),
(124,426,ls),
(72,357,o),
(49,292,o),
(49,223,cs),
(49,90,o),
(160,-13,o),
(306,-13,cs),
(453,-13,o),
(565,92,o),
(565,230,cs),
(565,356,o),
(463,451,o),
(342,451,cs),
(297,451,o),
(264,437,o),
(232,416,c),
(283,411,l),
(508,700,l)
);
},
{
closed = 1;
nodes = (
(361,323,o),
(406,282,o),
(406,223,cs),
(406,165,o),
(363,125,o),
(306,125,cs),
(248,125,o),
(208,164,o),
(208,223,cs),
(208,282,o),
(250,323,o),
(306,323,cs)
);
}
);
width = 606;
}
);
unicode = 54;
}
{
glyphname = seven;
kernLeft = seven;
kernRight = seven;
layers = (
{
background = {
shapes = (
{
closed = 1;
nodes = (
(24,700,l),
(24,639,l),
(411,639,l),
(395,666,l),
(33,0,l),
(106,0,l),
(458,651,l),
(458,700,l)
);
}
);
};
layerId = "9CA0F1F1-C419-4983-8E88-5CF3F967428B";
shapes = (
{
closed = 1;
nodes = (
(24,700,l),
(24,639,l),
(411,639,l),
(395,666,l),
(33,0,l),
(106,0,l),
(458,651,l),
(458,700,l)
);
}
);
width = 472;
},
{
background = {
shapes = (
{
closed = 1;
nodes = (
(27,700,l),
(27,566,l),
(387,566,l),
(348,621,l),
(22,0,l),
(191,0,l),
(497,582,l),
(497,700,l)
);
}
);
};
hints = (
{
horizontal = 1;
options = 4;
origin = (0,4);
type = TTSnap;
},
{
horizontal = 1;
options = 4;
origin = (0,0);
stem = 0;
target = (0,1);
type = TTStem;
},
{
horizontal = 1;
options = 4;
origin = (0,1);
target = (0,6);
type = TTShift;
}
);
layerId = "5500A485-9BC9-4FA7-853B-8075021C5598";
shapes = (
{
closed = 1;
nodes = (
(27,700,l),
(27,566,l),
(387,566,l),
(348,621,l),
(22,0,l),
(191,0,l),
(497,582,l),
(497,700,l)
);
}
);
width = 514;
},
{
associatedMasterId = "9CA0F1F1-C419-4983-8E88-5CF3F967428B";
background = {
shapes = (
{
closed = 1;
nodes = (
(121,700,l),
(106,639,l),
(485,639,l),
(474,666,l),
(15,0,l),
(90,0,l),
(536,651,l),
(548,700,l)
);
}
);
};
layerId = "B8B1B9F7-57AD-40F6-8824-2C22876E3A5C";
name = "new Layer";
shapes = (
{
closed = 1;
nodes = (
(121,700,l),
(106,639,l),
(485,639,l),
(474,666,l),
(15,0,l),
(90,0,l),
(536,651,l),
(548,700,l)
);
}
);
width = 457;
},
{
associatedMasterId = "9CA0F1F1-C419-4983-8E88-5CF3F967428B";
background = {
shapes = (
{
closed = 1;
nodes = (
(125,700,l),
(92,566,l),
(443,566,l),
(412,621,l),
(-4,0,l),
(175,0,l),
(560,582,l),
(589,700,l)
);
}
);
};
layerId = "2275FDE9-41F5-43D3-856B-3453FC30E713";
name = "new Layer";
shapes = (
{
closed = 1;
nodes = (
(125,700,l),
(92,566,l),
(443,566,l),
(412,621,l),
(-4,0,l),
(175,0,l),
(560,582,l),
(589,700,l)
);
}
);
width = 504;
},
{
background = {
shapes = (
{
closed = 1;
nodes = (
(321,639,ls),
(350,639,o),
(379,641,o),
(391,648,c),
(393,645,l),
(381,637,o),
(366,613,o),
(352,587,cs),
(33,0,l),
(106,0,l),
(458,651,l),
(458,700,l),
(24,700,l),
(24,639,l)
);
}
);
};
layerId = "CAEAD647-A533-4D72-9ACE-F5DE50C4DBD4";
shapes = (
{
closed = 1;
nodes = (
(341,639,ls),
(370,639,o),
(399,641,o),
(411,648,c),
(413,645,l),
(401,637,o),
(386,613,o),
(372,587,cs),
(53,0,l),
(126,0,l),
(478,651,l),
(478,700,l),
(44,700,l),
(44,639,l)
);
}
);
width = 512;
},
{
associatedMasterId = "CAEAD647-A533-4D72-9ACE-F5DE50C4DBD4";
background = {
shapes = (
{
closed = 1;
nodes = (
(401,639,ls),
(429,639,o),
(459,641,o),
(473,648,c),
(474,645,l),
(460,637,o),
(438,614,o),
(419,587,cs),
(15,0,l),
(90,0,l),
(536,651,l),
(548,700,l),
(121,700,l),
(106,639,l)
);
}
);
};
color = 5;
layerId = "E302BD94-A972-403A-B425-A5C065C6534C";
name = "new Layer";
shapes = (
{
closed = 1;
nodes = (
(401,639,ls),
(429,639,o),
(459,641,o),
(473,648,c),
(474,645,l),
(460,637,o),
(438,614,o),
(419,587,cs),
(15,0,l),
(90,0,l),
(536,651,l),
(548,700,l),
(121,700,l),
(106,639,l)
);
}
);
width = 457;
},
{
associatedMasterId = "CAEAD647-A533-4D72-9ACE-F5DE50C4DBD4";
background = {
shapes = (
{
closed = 1;
nodes = (
(317,566,ls),
(345,566,o),
(373,568,o),
(386,575,c),
(388,572,l),
(376,564,o),
(355,537,o),
(340,514,cs),
(-4,0,l),
(175,0,l),
(560,582,l),
(589,700,l),
(125,700,l),
(92,566,l)
);
}
);
};
layerId = "4E5DE285-CEB0-485A-BE4A-C9AEC0FE5EA7";
name = "new Layer";
shapes = (
{
closed = 1;
nodes = (
(317,566,ls),
(345,566,o),
(373,568,o),
(386,575,c),
(388,572,l),
(376,564,o),
(355,537,o),
(340,514,cs),
(-4,0,l),
(175,0,l),
(560,582,l),
(589,700,l),
(125,700,l),
(92,566,l)
);
}
);
width = 504;
},
{
background = {
shapes = (
{
closed = 1;
nodes = (
(261,566,ls),
(290,566,o),
(318,568,o),
(330,575,c),
(332,572,l),
(320,564,o),
(305,540,o),
(292,514,cs),
(22,0,l),
(191,0,l),
(497,582,l),
(497,700,l),
(27,700,l),
(27,566,l)
);
}
);
};
hints = (
{
horizontal = 1;
options = 4;
origin = (0,8);
type = TTSnap;
},
{
horizontal = 1;
options = 4;
origin = (0,12);
stem = 0;
target = (0,13);
type = TTStem;
},
{
horizontal = 1;
options = 4;
origin = (0,13);
target = (0,10);
type = TTShift;
}
);
layerId = "474EAD97-6F36-4C8E-8A0A-83C4F7DF9055";
shapes = (
{
closed = 1;
nodes = (
(281,566,ls),
(310,566,o),
(338,568,o),
(350,575,c),
(352,572,l),
(340,564,o),
(325,540,o),
(312,514,cs),
(42,0,l),
(211,0,l),
(517,582,l),
(517,700,l),
(47,700,l),
(47,566,l)
);
}
);
width = 554;
}
);
unicode = 55;
}
{
glyphname = nine;
layers = (
{
background = {
shapes = (
{
closed = 1;
nodes = (
(196,-3,l),
(449,344,ls),
(482,389,o),
(496,436,o),
(496,486,cs),
(496,611,o),
(397,705,o),
(258,705,cs),
(121,705,o),
(22,611,o),
(22,486,cs),
(22,363,o),
(119,269,o),
(248,269,cs),
(303,269,o),
(343,287,o),
(366,309,c),
(367,329,l),
(115,-3,l)
);
},
{
closed = 1;
nodes = (
(159,331,o),
(89,397,o),
(89,486,cs),
(89,576,o),
(159,642,o),
(258,642,cs),
(359,642,o),
(428,577,o),
(428,486,cs),
(428,397,o),
(359,331,o),
(258,331,cs)
);
}
);
};
layerId = "9CA0F1F1-C419-4983-8E88-5CF3F967428B";
shapes = (
{
closed = 1;
nodes = (
(196,-3,l),
(449,344,ls),
(482,389,o),
(496,436,o),
(496,486,cs),
(496,611,o),
(397,705,o),
(258,705,cs),
(121,705,o),
(22,611,o),
(22,486,cs),
(22,363,o),
(119,269,o),
(248,269,cs),
(303,269,o),
(343,287,o),
(366,309,c),
(367,329,l),
(115,-3,l)
);
},
{
closed = 1;
nodes = (
(159,331,o),
(89,397,o),
(89,486,cs),
(89,576,o),
(159,642,o),
(258,642,cs),
(359,642,o),
(428,577,o),
(428,486,cs),
(428,397,o),
(359,331,o),
(258,331,cs)
);
}
);
width = 523;
},
{
background = {
shapes = (
{
closed = 1;
nodes = (
(260,0,l),
(462,274,ls),
(513,344,o),
(537,408,o),
(537,477,cs),
(537,610,o),
(425,713,o),
(280,713,cs),
(132,713,o),
(21,608,o),
(21,470,cs),
(21,344,o),
(123,249,o),
(243,249,cs),
(289,249,o),
(321,262,o),
(354,283,c),
(303,289,l),
(78,0,l)
);
},
{
closed = 1;
nodes = (
(224,377,o),
(180,418,o),
(180,477,cs),
(180,535,o),
(222,575,o),
(280,575,cs),
(337,575,o),
(378,535,o),
(378,477,cs),
(378,418,o),
(335,377,o),
(280,377,cs)
);
}
);
};
hints = (
{
horizontal = 1;
options = 4;
origin = (0,18);
type = TTSnap;
},
{
horizontal = 1;
options = 4;
origin = (0,13);
stem = 0;
target = (1,11);
type = TTStem;
},
{
horizontal = 1;
options = 4;
origin = (0,7);
stem = 0;
target = (1,5);
type = TTStem;
},
{
horizontal = 1;
options = 4;
origin = (0,13);
target = (0,1);
type = TTShift;
}
);
layerId = "5500A485-9BC9-4FA7-853B-8075021C5598";
shapes = (
{
closed = 1;
nodes = (
(260,0,l),
(462,274,ls),
(513,344,o),
(537,408,o),
(537,477,cs),
(537,610,o),
(425,713,o),
(280,713,cs),
(132,713,o),
(21,608,o),
(21,470,cs),
(21,344,o),
(123,249,o),
(243,249,cs),
(289,249,o),
(321,262,o),
(354,283,c),
(303,289,l),
(78,0,l)
);
},
{
closed = 1;
nodes = (
(224,377,o),
(180,418,o),
(180,477,cs),
(180,535,o),
(222,575,o),
(280,575,cs),
(337,575,o),
(378,535,o),
(378,477,cs),
(378,418,o),
(335,377,o),
(280,377,cs)
);
}
);
width = 566;
},
{
associatedMasterId = "9CA0F1F1-C419-4983-8E88-5CF3F967428B";
background = {
shapes = (
{
closed = 1;
nodes = (
(163,0,l),
(467,340,ls),
(514,393,o),
(546,453,o),
(546,521,cs),
(546,631,o),
(461,708,o),
(339,708,cs),
(188,708,o),
(77,588,o),
(77,459,cs),
(77,347,o),
(158,273,o),
(275,273,cs),
(329,273,o),
(357,291,o),
(385,312,c),
(384,332,l),
(80,0,l)
);
},
{
closed = 1;
nodes = (
(203,334,o),
(145,383,o),
(145,460,cs),
(145,565,o),
(227,645,o),
(338,645,cs),
(422,645,o),
(478,594,o),
(478,515,cs),
(478,417,o),
(393,334,o),
(287,334,cs)
);
}
);
};
layerId = "B8B1B9F7-57AD-40F6-8824-2C22876E3A5C";
name = "new Layer";
shapes = (
{
closed = 1;
nodes = (
(163,0,l),
(467,340,ls),
(514,393,o),
(546,453,o),
(546,521,cs),
(546,631,o),
(461,708,o),
(339,708,cs),
(188,708,o),
(77,588,o),
(77,459,cs),
(77,347,o),
(158,273,o),
(275,273,cs),
(329,273,o),
(357,291,o),
(385,312,c),
(384,332,l),
(80,0,l)
);
},
{
closed = 1;
nodes = (
(203,334,o),
(145,383,o),
(145,460,cs),
(145,565,o),
(227,645,o),
(338,645,cs),
(422,645,o),
(478,594,o),
(478,515,cs),
(478,417,o),
(393,334,o),
(287,334,cs)
);
}
);
width = 521;
},
{
associatedMasterId = "9CA0F1F1-C419-4983-8E88-5CF3F967428B";
background = {
shapes = (
{
closed = 1;
nodes = (
(227,0,l),
(473,274,ls),
(524,330,o),
(582,402,o),
(582,499,cs),
(582,627,o),
(480,713,o),
(348,713,cs),
(185,713,o),
(68,582,o),
(68,450,cs),
(68,333,o),
(161,249,o),
(268,249,cs),
(311,249,o),
(326,263,o),
(361,284,c),
(310,289,l),
(40,0,l)
);
},
{
closed = 1;
nodes = (
(266,377,o),
(230,410,o),
(230,460,cs),
(230,518,o),
(277,575,o),
(341,575,cs),
(389,575,o),
(425,542,o),
(425,492,cs),
(425,434,o),
(378,377,o),
(314,377,cs)
);
}
);
};
layerId = "2275FDE9-41F5-43D3-856B-3453FC30E713";
name = "new Layer";
shapes = (
{
closed = 1;
nodes = (
(227,0,l),
(473,274,ls),
(524,330,o),
(582,402,o),
(582,499,cs),
(582,627,o),
(480,713,o),
(348,713,cs),
(185,713,o),
(68,582,o),
(68,450,cs),
(68,333,o),
(161,249,o),
(268,249,cs),
(311,249,o),
(326,263,o),
(361,284,c),
(310,289,l),
(40,0,l)
);
},
{
closed = 1;
nodes = (
(266,377,o),
(230,410,o),
(230,460,cs),
(230,518,o),
(277,575,o),
(341,575,cs),
(389,575,o),
(425,542,o),
(425,492,cs),
(425,434,o),
(378,377,o),
(314,377,cs)
);
}
);
width = 561;
},
{
background = {
shapes = (
{
closed = 1;
nodes = (
(196,-3,l),
(449,344,ls),
(482,389,o),
(496,436,o),
(496,486,cs),
(496,611,o),
(397,705,o),
(258,705,cs),
(121,705,o),
(22,611,o),
(22,486,cs),
(22,363,o),
(119,269,o),
(248,269,cs),
(303,269,o),
(343,287,o),
(366,309,c),
(367,329,l),
(115,-3,l)
);
},
{
closed = 1;
nodes = (
(159,331,o),
(89,397,o),
(89,486,cs),
(89,576,o),
(159,642,o),
(258,642,cs),
(359,642,o),
(428,577,o),
(428,486,cs),
(428,397,o),
(359,331,o),
(258,331,cs)
);
}
);
};
layerId = "CAEAD647-A533-4D72-9ACE-F5DE50C4DBD4";
shapes = (
{
closed = 1;
nodes = (
(216,-3,l),
(469,344,ls),
(502,389,o),
(516,436,o),
(516,486,cs),
(516,611,o),
(417,705,o),
(278,705,cs),
(141,705,o),
(42,611,o),
(42,486,cs),
(42,363,o),
(139,269,o),
(268,269,cs),
(323,269,o),
(363,287,o),
(386,309,c),
(387,329,l),
(135,-3,l)
);
},
{
closed = 1;
nodes = (
(179,331,o),
(109,397,o),
(109,486,cs),
(109,576,o),
(179,642,o),
(278,642,cs),
(379,642,o),
(448,577,o),
(448,486,cs),
(448,397,o),
(379,331,o),
(278,331,cs)
);
}
);
width = 563;
},
{
associatedMasterId = "CAEAD647-A533-4D72-9ACE-F5DE50C4DBD4";
background = {
shapes = (
{
closed = 1;
nodes = (
(163,0,l),
(467,340,ls),
(514,393,o),
(546,453,o),
(546,521,cs),
(546,631,o),
(461,708,o),
(339,708,cs),
(188,708,o),
(77,588,o),
(77,459,cs),
(77,347,o),
(158,273,o),
(275,273,cs),
(329,273,o),
(357,291,o),
(385,312,c),
(384,332,l),
(80,0,l)
);
},
{
closed = 1;
nodes = (
(203,334,o),
(145,383,o),
(145,460,cs),
(145,565,o),
(227,645,o),
(338,645,cs),
(422,645,o),
(478,594,o),
(478,515,cs),
(478,417,o),
(393,334,o),
(287,334,cs)
);
}
);
};
layerId = "F3F43A60-9D0D-4A2A-8F3D-362627AD7899";
name = "new Layer";
shapes = (
{
closed = 1;
nodes = (
(163,0,l),
(467,340,ls),
(514,393,o),
(546,453,o),
(546,521,cs),
(546,631,o),
(461,708,o),
(339,708,cs),
(188,708,o),
(77,588,o),
(77,459,cs),
(77,347,o),
(158,273,o),
(275,273,cs),
(329,273,o),
(357,291,o),
(385,312,c),
(384,332,l),
(80,0,l)
);
},
{
closed = 1;
nodes = (
(203,334,o),
(145,383,o),
(145,460,cs),
(145,565,o),
(227,645,o),
(338,645,cs),
(422,645,o),
(478,594,o),
(478,515,cs),
(478,417,o),
(393,334,o),
(287,334,cs)
);
}
);
width = 521;
},
{
associatedMasterId = "CAEAD647-A533-4D72-9ACE-F5DE50C4DBD4";
background = {
shapes = (
{
closed = 1;
nodes = (
(227,0,l),
(473,274,ls),
(524,330,o),
(582,402,o),
(582,499,cs),
(582,627,o),
(480,713,o),
(348,713,cs),
(185,713,o),
(68,582,o),
(68,450,cs),
(68,333,o),
(161,249,o),
(268,249,cs),
(311,249,o),
(326,263,o),
(361,284,c),
(310,289,l),
(40,0,l)
);
},
{
closed = 1;
nodes = (
(266,377,o),
(230,410,o),
(230,460,cs),
(230,518,o),
(277,575,o),
(341,575,cs),
(389,575,o),
(425,542,o),
(425,492,cs),
(425,434,o),
(378,377,o),
(314,377,cs)
);
}
);
};
layerId = "F224BD31-A316-47AB-B74D-899CB78B910D";
name = "new Layer";
shapes = (
{
closed = 1;
nodes = (
(227,0,l),
(473,274,ls),
(524,330,o),
(582,402,o),
(582,499,cs),
(582,627,o),
(480,713,o),
(348,713,cs),
(185,713,o),
(68,582,o),
(68,450,cs),
(68,333,o),
(161,249,o),
(268,249,cs),
(311,249,o),
(326,263,o),
(361,284,c),
(310,289,l),
(40,0,l)
);
},
{
closed = 1;
nodes = (
(266,377,o),
(230,410,o),
(230,460,cs),
(230,518,o),
(277,575,o),
(341,575,cs),
(389,575,o),
(425,542,o),
(425,492,cs),
(425,434,o),
(378,377,o),
(314,377,cs)
);
}
);
width = 561;
},
{
background = {
shapes = (
{
closed = 1;
nodes = (
(260,0,l),
(462,274,ls),
(513,344,o),
(537,408,o),
(537,477,cs),
(537,610,o),
(425,713,o),
(280,713,cs),
(132,713,o),
(21,608,o),
(21,470,cs),
(21,344,o),
(123,249,o),
(243,249,cs),
(289,249,o),
(321,262,o),
(354,283,c),
(303,289,l),
(78,0,l)
);
},
{
closed = 1;
nodes = (
(224,377,o),
(180,418,o),
(180,477,cs),
(180,535,o),
(222,575,o),
(280,575,cs),
(337,575,o),
(378,535,o),
(378,477,cs),
(378,418,o),
(335,377,o),
(280,377,cs)
);
}
);
};
hints = (
{
horizontal = 1;
options = 4;
origin = (0,18);
type = TTSnap;
},
{
horizontal = 1;
options = 4;
origin = (0,13);
stem = 0;
target = (1,11);
type = TTStem;
},
{
horizontal = 1;
options = 4;
origin = (0,7);
stem = 0;
target = (1,5);
type = TTStem;
},
{
horizontal = 1;
options = 4;
origin = (0,13);
target = (0,1);
type = TTShift;
}
);
layerId = "474EAD97-6F36-4C8E-8A0A-83C4F7DF9055";
shapes = (
{
closed = 1;
nodes = (
(280,0,l),
(482,274,ls),
(533,344,o),
(557,408,o),
(557,477,cs),
(557,610,o),
(445,713,o),
(300,713,cs),
(152,713,o),
(41,608,o),
(41,470,cs),
(41,344,o),
(143,249,o),
(263,249,cs),
(309,249,o),
(341,262,o),
(374,283,c),
(323,289,l),
(98,0,l)
);
},
{
closed = 1;
nodes = (
(244,377,o),
(200,418,o),
(200,477,cs),
(200,535,o),
(242,575,o),
(300,575,cs),
(357,575,o),
(398,535,o),
(398,477,cs),
(398,418,o),
(355,377,o),
(300,377,cs)
);
}
);
width = 606;
}
);
unicode = 57;
}
{
glyphname = less;
layers = (
{
background = {
shapes = (
{
closed = 1;
nodes = (
(452,157,l),
(156,297,l),
(156,257,l),
(452,398,l),
(452,464,l),
(117,298,l),
(117,256,l),
(452,91,l)
);
}
);
};
layerId = "9CA0F1F1-C419-4983-8E88-5CF3F967428B";
shapes = (
{
alignment = -1;
angle = 180;
pos = (600,555);
ref = greater;
}
);
width = 600;
},
{
background = {
hints = (
{
horizontal = 1;
options = 4;
origin = (0,0);
target = (0,7);
type = TTStem;
},
{
horizontal = 1;
options = 4;
origin = (0,4);
target = (0,3);
type = TTStem;
}
);
shapes = (
{
closed = 1;
nodes = (
(466,195,l),
(183,318,l),
(183,252,l),
(466,375,l),
(466,514,l),
(110,343,l),
(110,228,l),
(466,58,l)
);
}
);
};
layerId = "5500A485-9BC9-4FA7-853B-8075021C5598";
shapes = (
{
alignment = -1;
angle = 180;
pos = (600,571);
ref = greater;
}
);
width = 600;
},
{
associatedMasterId = "9CA0F1F1-C419-4983-8E88-5CF3F967428B";
background = {
shapes = (
{
closed = 1;
nodes = (
(440,143,l),
(174,315,l),
(165,285,l),
(490,395,l),
(506,464,l),
(136,328,l),
(125,286,l),
(424,84,l)
);
}
);
};
layerId = "B8B1B9F7-57AD-40F6-8824-2C22876E3A5C";
name = "new Layer";
shapes = (
{
alignment = -1;
angle = 180;
pos = (609,555);
ref = greater;
}
);
width = 600;
},
{
associatedMasterId = "9CA0F1F1-C419-4983-8E88-5CF3F967428B";
background = {
shapes = (
{
closed = 1;
nodes = (
(452,181,l),
(206,324,l),
(191,266,l),
(497,369,l),
(534,514,l),
(140,363,l),
(111,248,l),
(420,58,l)
);
}
);
};
layerId = "2275FDE9-41F5-43D3-856B-3453FC30E713";
name = "new Layer";
shapes = (
{
alignment = -1;
angle = 180;
pos = (608,571);
ref = greater;
}
);
width = 600;
},
{
background = {
shapes = (
{
closed = 1;
nodes = (
(452,157,l),
(156,297,l),
(156,257,l),
(452,398,l),
(452,464,l),
(117,298,l),
(117,256,l),
(452,91,l)
);
}
);
};
layerId = "CAEAD647-A533-4D72-9ACE-F5DE50C4DBD4";
shapes = (
{
closed = 1;
nodes = (
(472,157,l),
(176,297,l),
(176,257,l),
(472,398,l),
(472,464,l),
(137,298,l),
(137,256,l),
(472,91,l)
);
}
);
width = 640;
},
{
associatedMasterId = "CAEAD647-A533-4D72-9ACE-F5DE50C4DBD4";
background = {
shapes = (
{
closed = 1;
nodes = (
(440,143,l),
(174,315,l),
(165,285,l),
(490,395,l),
(506,464,l),
(136,328,l),
(125,286,l),
(424,84,l)
);
}
);
};
layerId = "78C02108-57DB-4BB3-87E8-341669E1D266";
name = "new Layer";
shapes = (
{
alignment = -1;
angle = 180;
pos = (609,555);
ref = greater;
}
);
width = 600;
},
{
associatedMasterId = "CAEAD647-A533-4D72-9ACE-F5DE50C4DBD4";
background = {
shapes = (
{
closed = 1;
nodes = (
(452,181,l),
(206,324,l),
(191,266,l),
(497,369,l),
(534,514,l),
(140,363,l),
(111,248,l),
(420,58,l)
);
}
);
};
layerId = "1A728A88-7F76-487A-BB50-562F1CD81098";
name = "new Layer";
shapes = (
{
alignment = -1;
angle = 180;
pos = (608,571);
ref = greater;
}
);
width = 600;
},
{
background = {
hints = (
{
horizontal = 1;
options = 4;
origin = (0,0);
target = (0,7);
type = TTStem;
},
{
horizontal = 1;
options = 4;
origin = (0,4);
target = (0,3);
type = TTStem;
}
);
shapes = (
{
closed = 1;
nodes = (
(466,195,l),
(183,318,l),
(183,252,l),
(466,375,l),
(466,514,l),
(110,343,l),
(110,228,l),
(466,58,l)
);
}
);
};
hints = (
{
horizontal = 1;
options = 4;
origin = (0,0);
target = (0,7);
type = TTStem;
},
{
horizontal = 1;
options = 4;
origin = (0,4);
target = (0,3);
type = TTStem;
}
);
layerId = "474EAD97-6F36-4C8E-8A0A-83C4F7DF9055";
shapes = (
{
closed = 1;
nodes = (
(486,195,l),
(203,318,l),
(203,252,l),
(486,375,l),
(486,514,l),
(130,343,l),
(130,228,l),
(486,58,l)
);
}
);
width = 640;
}
);
unicode = 60;
}
{
glyphname = backslash;
layers = (
{
background = {
shapes = (
{
closed = 1;
nodes = (
(388,-85,l),
(456,-85,l),
(85,785,l),
(16,785,l)
);
}
);
};
layerId = "9CA0F1F1-C419-4983-8E88-5CF3F967428B";
shapes = (
{
closed = 1;
nodes = (
(388,-85,l),
(456,-85,l),
(85,785,l),
(16,785,l)
);
}
);
width = 473;
},
{
background = {
shapes = (
{
closed = 1;
nodes = (
(385,-85,l),
(535,-85,l),
(162,785,l),
(13,785,l)
);
}
);
};
hints = (
{
horizontal = 1;
origin = (0,2);
type = TTSnap;
},
{
horizontal = 1;
origin = (0,1);
type = TTSnap;
}
);
layerId = "5500A485-9BC9-4FA7-853B-8075021C5598";
shapes = (
{
closed = 1;
nodes = (
(385,-85,l),
(535,-85,l),
(162,785,l),
(13,785,l)
);
}
);
width = 550;
},
{
associatedMasterId = "9CA0F1F1-C419-4983-8E88-5CF3F967428B";
background = {
shapes = (
{
closed = 1;
nodes = (
(296,-85,l),
(359,-85,l),
(204,785,l),
(140,785,l)
);
}
);
};
layerId = "B8B1B9F7-57AD-40F6-8824-2C22876E3A5C";
name = "new Layer";
shapes = (
{
closed = 1;
nodes = (
(296,-85,l),
(359,-85,l),
(204,785,l),
(140,785,l)
);
}
);
width = 452;
},
{
associatedMasterId = "9CA0F1F1-C419-4983-8E88-5CF3F967428B";
background = {
shapes = (
{
closed = 1;
nodes = (
(291,-85,l),
(430,-85,l),
(273,785,l),
(135,785,l)
);
}
);
};
layerId = "2275FDE9-41F5-43D3-856B-3453FC30E713";
name = "new Layer";
shapes = (
{
closed = 1;
nodes = (
(291,-85,l),
(430,-85,l),
(273,785,l),
(135,785,l)
);
}
);
width = 525;
},
{
background = {
shapes = (
{
closed = 1;
nodes = (
(388,-85,l),
(456,-85,l),
(85,785,l),
(16,785,l)
);
}
);
};
layerId = "CAEAD647-A533-4D72-9ACE-F5DE50C4DBD4";
shapes = (
{
closed = 1;
nodes = (
(408,-85,l),
(476,-85,l),
(105,785,l),
(36,785,l)
);
}
);
width = 513;
},
{
associatedMasterId = "CAEAD647-A533-4D72-9ACE-F5DE50C4DBD4";
background = {
shapes = (
{
closed = 1;
nodes = (
(296,-85,l),
(359,-85,l),
(204,785,l),
(140,785,l)
);
}
);
};
layerId = "92EA1DEB-301C-4869-81F0-CF51249162E6";
name = "new Layer";
shapes = (
{
closed = 1;
nodes = (
(296,-85,l),
(359,-85,l),
(204,785,l),
(140,785,l)
);
}
);
width = 452;
},
{
associatedMasterId = "CAEAD647-A533-4D72-9ACE-F5DE50C4DBD4";
background = {
shapes = (
{
closed = 1;
nodes = (
(291,-85,l),
(430,-85,l),
(273,785,l),
(135,785,l)
);
}
);
};
layerId = "658572BB-B47F-42EA-B5FC-62C71EB54C14";
name = "new Layer";
shapes = (
{
closed = 1;
nodes = (
(291,-85,l),
(430,-85,l),
(273,785,l),
(135,785,l)
);
}
);
width = 525;
},
{
background = {
shapes = (
{
closed = 1;
nodes = (
(385,-85,l),
(535,-85,l),
(162,785,l),
(13,785,l)
);
}
);
};
hints = (
{
horizontal = 1;
origin = (0,2);
type = TTSnap;
},
{
horizontal = 1;
origin = (0,1);
type = TTSnap;
}
);
layerId = "474EAD97-6F36-4C8E-8A0A-83C4F7DF9055";
shapes = (
{
closed = 1;
nodes = (
(405,-85,l),
(555,-85,l),
(182,785,l),
(33,785,l)
);
}
);
width = 590;
}
);
unicode = 92;
}
{
color = 6;
glyphname = bracketright;
layers = (
{
background = {
shapes = (
{
closed = 1;
nodes = (
(195,-131,l),
(195,701,l),
(131,701,l),
(131,-131,l)
);
},
{
closed = 1;
nodes = (
(168,-131,l),
(168,-73,l),
(16,-73,l),
(16,-131,l)
);
},
{
closed = 1;
nodes = (
(168,642,l),
(168,701,l),
(16,701,l),
(16,642,l)
);
}
);
};
layerId = "9CA0F1F1-C419-4983-8E88-5CF3F967428B";
shapes = (
{
alignment = -1;
angle = 180;
pos = (264,569);
ref = bracketleft;
}
);
width = 264;
},
{
background = {
hints = (
{
horizontal = 1;
options = 4;
origin = (2,0);
target = (0,1);
type = TTStem;
},
{
horizontal = 1;
options = 4;
origin = (0,0);
target = (1,1);
type = TTStem;
}
);
shapes = (
{
closed = 1;
nodes = (
(285,-131,l),
(285,701,l),
(137,701,l),
(137,-131,l)
);
},
{
closed = 1;
nodes = (
(222,-131,l),
(222,1,l),
(25,1,l),
(25,-131,l)
);
},
{
closed = 1;
nodes = (
(222,569,l),
(222,701,l),
(25,701,l),
(25,569,l)
);
}
);
};
layerId = "5500A485-9BC9-4FA7-853B-8075021C5598";
shapes = (
{
alignment = -1;
angle = 180;
pos = (341,569);
ref = bracketleft;
}
);
width = 341;
},
{
associatedMasterId = "9CA0F1F1-C419-4983-8E88-5CF3F967428B";
background = {
shapes = (
{
closed = 1;
nodes = (
(98,-131,l),
(306,701,l),
(240,701,l),
(32,-131,l)
);
},
{
closed = 1;
nodes = (
(70,-131,l),
(85,-73,l),
(-66,-73,l),
(-81,-131,l)
);
},
{
closed = 1;
nodes = (
(263,642,l),
(278,701,l),
(127,701,l),
(112,642,l)
);
}
);
};
layerId = "B8B1B9F7-57AD-40F6-8824-2C22876E3A5C";
name = "new Layer";
shapes = (
{
alignment = -1;
angle = 180;
pos = (278,569);
ref = bracketleft;
}
);
width = 264;
},
{
associatedMasterId = "9CA0F1F1-C419-4983-8E88-5CF3F967428B";
background = {
shapes = (
{
closed = 1;
nodes = (
(186,-131,l),
(394,701,l),
(244,701,l),
(36,-131,l)
);
},
{
closed = 1;
nodes = (
(123,-131,l),
(156,1,l),
(-41,1,l),
(-74,-131,l)
);
},
{
closed = 1;
nodes = (
(298,569,l),
(331,701,l),
(134,701,l),
(101,569,l)
);
}
);
};
layerId = "2275FDE9-41F5-43D3-856B-3453FC30E713";
name = "new Layer";
shapes = (
{
alignment = -1;
angle = 180;
pos = (351,569);
ref = bracketleft;
}
);
width = 343;
},
{
background = {
shapes = (
{
closed = 1;
nodes = (
(195,-131,l),
(195,701,l),
(131,701,l),
(131,-131,l)
);
},
{
closed = 1;
nodes = (
(168,-131,l),
(168,-73,l),
(16,-73,l),
(16,-131,l)
);
},
{
closed = 1;
nodes = (
(168,642,l),
(168,701,l),
(16,701,l),
(16,642,l)
);
}
);
};
layerId = "CAEAD647-A533-4D72-9ACE-F5DE50C4DBD4";
shapes = (
{
closed = 1;
nodes = (
(215,-131,l),
(215,701,l),
(151,701,l),
(151,-131,l)
);
},
{
closed = 1;
nodes = (
(188,-131,l),
(188,-73,l),
(36,-73,l),
(36,-131,l)
);
},
{
closed = 1;
nodes = (
(188,642,l),
(188,701,l),
(36,701,l),
(36,642,l)
);
}
);
width = 304;
},
{
associatedMasterId = "CAEAD647-A533-4D72-9ACE-F5DE50C4DBD4";
background = {
shapes = (
{
closed = 1;
nodes = (
(98,-131,l),
(306,701,l),
(240,701,l),
(32,-131,l)
);
},
{
closed = 1;
nodes = (
(70,-131,l),
(85,-73,l),
(-66,-73,l),
(-81,-131,l)
);
},
{
closed = 1;
nodes = (
(263,642,l),
(278,701,l),
(127,701,l),
(112,642,l)
);
}
);
};
layerId = "1CC1989F-EE16-4A2B-9C81-D767AA54CA13";
name = "new Layer";
shapes = (
{
alignment = -1;
angle = 180;
pos = (278,569);
ref = bracketleft;
}
);
width = 264;
},
{
associatedMasterId = "CAEAD647-A533-4D72-9ACE-F5DE50C4DBD4";
background = {
shapes = (
{
closed = 1;
nodes = (
(186,-131,l),
(394,701,l),
(244,701,l),
(36,-131,l)
);
},
{
closed = 1;
nodes = (
(123,-131,l),
(156,1,l),
(-41,1,l),
(-74,-131,l)
);
},
{
closed = 1;
nodes = (
(298,569,l),
(331,701,l),
(134,701,l),
(101,569,l)
);
}
);
};
layerId = "CEDDE073-9C4D-4279-95FA-A3BE4B255A10";
name = "new Layer";
shapes = (
{
alignment = -1;
angle = 180;
pos = (351,569);
ref = bracketleft;
}
);
width = 343;
},
{
background = {
hints = (
{
horizontal = 1;
options = 4;
origin = (2,0);
target = (0,1);
type = TTStem;
},
{
horizontal = 1;
options = 4;
origin = (0,0);
target = (1,1);
type = TTStem;
}
);
shapes = (
{
closed = 1;
nodes = (
(285,-131,l),
(285,701,l),
(137,701,l),
(137,-131,l)
);
},
{
closed = 1;
nodes = (
(222,-131,l),
(222,1,l),
(25,1,l),
(25,-131,l)
);
},
{
closed = 1;
nodes = (
(222,569,l),
(222,701,l),
(25,701,l),
(25,569,l)
);
}
);
};
hints = (
{
horizontal = 1;
options = 4;
origin = (1,3);
target = (1,2);
type = TTStem;
},
{
horizontal = 1;
options = 4;
origin = (2,2);
target = (2,3);
type = TTStem;
}
);
layerId = "474EAD97-6F36-4C8E-8A0A-83C4F7DF9055";
shapes = (
{
closed = 1;
nodes = (
(305,-131,l),
(305,701,l),
(157,701,l),
(157,-131,l)
);
},
{
closed = 1;
nodes = (
(242,-131,l),
(242,1,l),
(45,1,l),
(45,-131,l)
);
},
{
closed = 1;
nodes = (
(242,569,l),
(242,701,l),
(45,701,l),
(45,569,l)
);
}
);
width = 381;
}
);
unicode = 93;
}
{
glyphname = asciicircum;
layers = (
{
background = {
shapes = (
{
closed = 1;
nodes = (
(318,662,l),
(281,662,l),
(437,377,l),
(503,377,l),
(324,701,l),
(277,701,l),
(97,377,l),
(162,377,l)
);
}
);
};
layerId = "9CA0F1F1-C419-4983-8E88-5CF3F967428B";
shapes = (
{
closed = 1;
nodes = (
(318,662,l),
(281,662,l),
(437,377,l),
(503,377,l),
(324,701,l),
(277,701,l),
(97,377,l),
(162,377,l)
);
}
);
width = 600;
},
{
background = {
shapes = (
{
closed = 1;
nodes = (
(343,625,l),
(253,625,l),
(388,377,l),
(530,377,l),
(346,700,l),
(253,700,l),
(70,377,l),
(208,377,l)
);
}
);
};
hints = (
{
horizontal = 1;
options = 4;
origin = (0,5);
type = TTSnap;
},
{
horizontal = 1;
options = 4;
origin = (0,2);
target = (0,7);
type = TTShift;
}
);
layerId = "5500A485-9BC9-4FA7-853B-8075021C5598";
shapes = (
{
closed = 1;
nodes = (
(343,625,l),
(253,625,l),
(388,377,l),
(530,377,l),
(346,700,l),
(253,700,l),
(70,377,l),
(208,377,l)
);
}
);
width = 600;
},
{
associatedMasterId = "9CA0F1F1-C419-4983-8E88-5CF3F967428B";
background = {
shapes = (
{
closed = 1;
nodes = (
(433,662,l),
(396,662,l),
(478,377,l),
(537,377,l),
(438,701,l),
(391,701,l),
(131,377,l),
(203,377,l)
);
}
);
};
layerId = "B8B1B9F7-57AD-40F6-8824-2C22876E3A5C";
name = "new Layer";
shapes = (
{
closed = 1;
nodes = (
(433,662,l),
(396,662,l),
(478,377,l),
(537,377,l),
(438,701,l),
(391,701,l),
(131,377,l),
(203,377,l)
);
}
);
width = 600;
},
{
associatedMasterId = "9CA0F1F1-C419-4983-8E88-5CF3F967428B";
background = {
shapes = (
{
closed = 1;
nodes = (
(443,625,l),
(353,625,l),
(427,377,l),
(559,377,l),
(455,700,l),
(362,700,l),
(99,377,l),
(247,377,l)
);
}
);
};
layerId = "2275FDE9-41F5-43D3-856B-3453FC30E713";
name = "new Layer";
shapes = (
{
closed = 1;
nodes = (
(443,625,l),
(353,625,l),
(427,377,l),
(559,377,l),
(455,700,l),
(362,700,l),
(99,377,l),
(247,377,l)
);
}
);
width = 600;
},
{
background = {
shapes = (
{
closed = 1;
nodes = (
(318,662,l),
(281,662,l),
(437,377,l),
(503,377,l),
(324,701,l),
(277,701,l),
(97,377,l),
(162,377,l)
);
}
);
};
layerId = "CAEAD647-A533-4D72-9ACE-F5DE50C4DBD4";
shapes = (
{
closed = 1;
nodes = (
(338,662,l),
(301,662,l),
(457,377,l),
(523,377,l),
(344,701,l),
(297,701,l),
(117,377,l),
(182,377,l)
);
}
);
width = 640;
},
{
associatedMasterId = "CAEAD647-A533-4D72-9ACE-F5DE50C4DBD4";
background = {
shapes = (
{
closed = 1;
nodes = (
(433,662,l),
(396,662,l),
(478,377,l),
(537,377,l),
(438,701,l),
(391,701,l),
(131,377,l),
(203,377,l)
);
}
);
};
layerId = "A94E49C5-5413-4994-9874-6EB0735690E6";
name = "new Layer";
shapes = (
{
closed = 1;
nodes = (
(433,662,l),
(396,662,l),
(478,377,l),
(537,377,l),
(438,701,l),
(391,701,l),
(131,377,l),
(203,377,l)
);
}
);
width = 600;
},
{
associatedMasterId = "CAEAD647-A533-4D72-9ACE-F5DE50C4DBD4";
background = {
shapes = (
{
closed = 1;
nodes = (
(443,625,l),
(353,625,l),
(427,377,l),
(559,377,l),
(455,700,l),
(362,700,l),
(99,377,l),
(247,377,l)
);
}
);
};
layerId = "06168A4C-2462-445C-B147-F2F10EBE0686";
name = "new Layer";
shapes = (
{
closed = 1;
nodes = (
(443,625,l),
(353,625,l),
(427,377,l),
(559,377,l),
(455,700,l),
(362,700,l),
(99,377,l),
(247,377,l)
);
}
);
width = 600;
},
{
background = {
shapes = (
{
closed = 1;
nodes = (
(343,625,l),
(253,625,l),
(388,377,l),
(530,377,l),
(346,700,l),
(253,700,l),
(70,377,l),
(208,377,l)
);
}
);
};
hints = (
{
horizontal = 1;
options = 4;
origin = (0,5);
type = TTSnap;
},
{
horizontal = 1;
options = 4;
origin = (0,2);
target = (0,7);
type = TTShift;
}
);
layerId = "474EAD97-6F36-4C8E-8A0A-83C4F7DF9055";
shapes = (
{
closed = 1;
nodes = (
(363,625,l),
(273,625,l),
(408,377,l),
(550,377,l),
(366,700,l),
(273,700,l),
(90,377,l),
(228,377,l)
);
}
);
width = 640;
}
);
unicode = 94;
}
{
glyphname = braceleft;
layers = (
{
background = {
shapes = (
{
closed = 1;
nodes = (
(283,-131,l),
(283,-73,l),
(251,-73,ls),
(198,-73,o),
(143,-30,o),
(165,52,cs),
(189,124,ls),
(220,215,o),
(145,274,o),
(73,290,c),
(73,280,l),
(145,295,o),
(220,354,o),
(189,445,cs),
(165,517,ls),
(143,598,o),
(198,642,o),
(251,642,cs),
(283,642,l),
(283,700,l),
(251,700,ls),
(153,700,o),
(65,627,o),
(101,510,cs),
(126,438,ls),
(154,358,o),
(83,314,o),
(13,314,c),
(13,255,l),
(83,255,o),
(153,211,o),
(126,131,cs),
(101,58,ls),
(66,-58,o),
(153,-131,o),
(251,-131,cs)
);
}
);
};
layerId = "9CA0F1F1-C419-4983-8E88-5CF3F967428B";
shapes = (
{
closed = 1;
nodes = (
(283,-131,l),
(283,-73,l),
(251,-73,ls),
(198,-73,o),
(143,-30,o),
(165,52,cs),
(189,124,ls),
(220,215,o),
(145,274,o),
(73,290,c),
(73,280,l),
(145,295,o),
(220,354,o),
(189,445,cs),
(165,517,ls),
(143,598,o),
(198,642,o),
(251,642,cs),
(283,642,l),
(283,700,l),
(251,700,ls),
(153,700,o),
(65,627,o),
(101,510,cs),
(126,438,ls),
(154,358,o),
(83,314,o),
(13,314,c),
(13,255,l),
(83,255,o),
(153,211,o),
(126,131,cs),
(101,58,ls),
(66,-58,o),
(153,-131,o),
(251,-131,cs)
);
}
);
width = 302;
},
{
background = {
shapes = (
{
closed = 1;
nodes = (
(345,-131,l),
(345,-3,l),
(309,-3,ls),
(275,-3,o),
(240,32,o),
(254,82,cs),
(270,125,ls),
(303,214,o),
(238,281,o),
(102,300,c),
(102,271,l),
(238,288,o),
(303,355,o),
(270,444,cs),
(254,487,ls),
(240,537,o),
(275,572,o),
(309,572,cs),
(345,572,l),
(345,700,l),
(291,700,ls),
(165,700,o),
(63,607,o),
(106,480,cs),
(123,435,ls),
(143,383,o),
(87,347,o),
(20,347,c),
(20,222,l),
(87,222,o),
(143,184,o),
(123,133,cs),
(106,89,ls),
(62,-37,o),
(165,-131,o),
(291,-131,cs)
);
}
);
};
hints = (
{
horizontal = 1;
options = 4;
origin = (0,19);
target = (0,18);
type = TTStem;
},
{
horizontal = 1;
options = 4;
origin = (0,0);
target = (0,1);
type = TTStem;
},
{
horizontal = 1;
options = 4;
origin = (0,18);
other1 = (0,28);
target = (0,1);
type = TTInterpolate;
},
{
horizontal = 1;
options = 4;
origin = (0,28);
target = (0,27);
type = TTStem;
},
{
horizontal = 1;
options = 4;
origin = (0,28);
other1 = (0,9,0,13);
target = (0,27);
type = TTInterpolate;
}
);
layerId = "5500A485-9BC9-4FA7-853B-8075021C5598";
shapes = (
{
closed = 1;
nodes = (
(345,-131,l),
(345,-3,l),
(309,-3,ls),
(275,-3,o),
(240,32,o),
(254,82,cs),
(270,125,ls),
(303,214,o),
(238,281,o),
(102,300,c),
(102,271,l),
(238,288,o),
(303,355,o),
(270,444,cs),
(254,487,ls),
(240,537,o),
(275,572,o),
(309,572,cs),
(345,572,l),
(345,700,l),
(291,700,ls),
(165,700,o),
(63,607,o),
(106,480,cs),
(123,435,ls),
(143,383,o),
(87,347,o),
(20,347,c),
(20,222,l),
(87,222,o),
(143,184,o),
(123,133,cs),
(106,89,ls),
(62,-37,o),
(165,-131,o),
(291,-131,cs)
);
}
);
width = 379;
},
{
associatedMasterId = "9CA0F1F1-C419-4983-8E88-5CF3F967428B";
background = {
shapes = (
{
closed = 1;
nodes = (
(194,-131,l),
(209,-73,l),
(178,-73,ls),
(126,-73,o),
(82,-29,o),
(127,51,cs),
(168,124,ls),
(216,210,o),
(161,271,o),
(92,287,c),
(90,277,l),
(174,288,o),
(250,354,o),
(245,445,cs),
(241,518,ls),
(237,598,o),
(294,642,o),
(345,642,cs),
(387,642,l),
(402,700,l),
(353,700,ls),
(256,700,o),
(167,626,o),
(177,510,cs),
(183,438,ls),
(190,358,o),
(107,314,o),
(39,314,c),
(25,255,l),
(93,255,o),
(151,213,o),
(105,131,cs),
(63,57,ls),
(6,-43,o),
(76,-131,o),
(173,-131,cs)
);
}
);
};
layerId = "B8B1B9F7-57AD-40F6-8824-2C22876E3A5C";
name = "new Layer";
shapes = (
{
closed = 1;
nodes = (
(194,-131,l),
(209,-73,l),
(178,-73,ls),
(126,-73,o),
(82,-29,o),
(127,51,cs),
(168,124,ls),
(216,210,o),
(161,271,o),
(92,287,c),
(90,277,l),
(174,288,o),
(250,354,o),
(245,445,cs),
(241,518,ls),
(237,598,o),
(294,642,o),
(345,642,cs),
(387,642,l),
(402,700,l),
(353,700,ls),
(256,700,o),
(167,626,o),
(177,510,cs),
(183,438,ls),
(190,358,o),
(107,314,o),
(39,314,c),
(25,255,l),
(93,255,o),
(151,213,o),
(105,131,cs),
(63,57,ls),
(6,-43,o),
(76,-131,o),
(173,-131,cs)
);
}
);
width = 310;
},
{
associatedMasterId = "9CA0F1F1-C419-4983-8E88-5CF3F967428B";
background = {
shapes = (
{
closed = 1;
nodes = (
(248,-131,l),
(280,-3,l),
(244,-3,ls),
(212,-3,o),
(187,32,o),
(216,82,cs),
(241,125,ls),
(284,200,o),
(248,273,o),
(114,293,c),
(107,264,l),
(250,281,o),
(327,347,o),
(318,436,cs),
(313,487,ls),
(308,537,o),
(347,572,o),
(383,572,cs),
(424,572,l),
(456,700,l),
(372,700,ls),
(247,700,o),
(148,606,o),
(162,480,cs),
(167,435,ls),
(173,383,o),
(110,347,o),
(45,347,c),
(13,222,l),
(78,222,o),
(123,184,o),
(92,133,cs),
(65,89,ls),
(-9,-32,o),
(90,-131,o),
(224,-131,cs)
);
}
);
};
layerId = "2275FDE9-41F5-43D3-856B-3453FC30E713";
name = "new Layer";
shapes = (
{
closed = 1;
nodes = (
(248,-131,l),
(280,-3,l),
(244,-3,ls),
(212,-3,o),
(187,32,o),
(216,82,cs),
(241,125,ls),
(284,200,o),
(248,273,o),
(114,293,c),
(107,264,l),
(250,281,o),
(327,347,o),
(318,436,cs),
(313,487,ls),
(308,537,o),
(347,572,o),
(383,572,cs),
(424,572,l),
(456,700,l),
(372,700,ls),
(247,700,o),
(148,606,o),
(162,480,cs),
(167,435,ls),
(173,383,o),
(110,347,o),
(45,347,c),
(13,222,l),
(78,222,o),
(123,184,o),
(92,133,cs),
(65,89,ls),
(-9,-32,o),
(90,-131,o),
(224,-131,cs)
);
}
);
width = 382;
},
{
background = {
shapes = (
{
closed = 1;
nodes = (
(283,-131,l),
(283,-73,l),
(251,-73,ls),
(198,-73,o),
(143,-30,o),
(165,52,cs),
(189,124,ls),
(220,215,o),
(145,274,o),
(73,290,c),
(73,280,l),
(145,295,o),
(220,354,o),
(189,445,cs),
(165,517,ls),
(143,598,o),
(198,642,o),
(251,642,cs),
(283,642,l),
(283,700,l),
(251,700,ls),
(153,700,o),
(65,627,o),
(101,510,cs),
(126,438,ls),
(154,358,o),
(83,314,o),
(13,314,c),
(13,255,l),
(83,255,o),
(153,211,o),
(126,131,cs),
(101,58,ls),
(66,-58,o),
(153,-131,o),
(251,-131,cs)
);
}
);
};
layerId = "CAEAD647-A533-4D72-9ACE-F5DE50C4DBD4";
shapes = (
{
closed = 1;
nodes = (
(303,-131,l),
(303,-73,l),
(271,-73,ls),
(218,-73,o),
(163,-30,o),
(185,52,cs),
(209,124,ls),
(240,215,o),
(165,274,o),
(93,290,c),
(93,280,l),
(165,295,o),
(240,354,o),
(209,445,cs),
(185,517,ls),
(163,598,o),
(218,642,o),
(271,642,cs),
(303,642,l),
(303,700,l),
(271,700,ls),
(173,700,o),
(85,627,o),
(121,510,cs),
(146,438,ls),
(174,358,o),
(103,314,o),
(33,314,c),
(33,255,l),
(103,255,o),
(173,211,o),
(146,131,cs),
(121,58,ls),
(86,-58,o),
(173,-131,o),
(271,-131,cs)
);
}
);
width = 342;
},
{
associatedMasterId = "CAEAD647-A533-4D72-9ACE-F5DE50C4DBD4";
background = {
shapes = (
{
closed = 1;
nodes = (
(194,-131,l),
(209,-73,l),
(178,-73,ls),
(126,-73,o),
(82,-29,o),
(127,51,cs),
(168,124,ls),
(216,210,o),
(161,271,o),
(92,287,c),
(90,277,l),
(174,288,o),
(250,354,o),
(245,445,cs),
(241,518,ls),
(237,598,o),
(294,642,o),
(345,642,cs),
(387,642,l),
(402,700,l),
(353,700,ls),
(256,700,o),
(167,626,o),
(177,510,cs),
(183,438,ls),
(190,358,o),
(107,314,o),
(39,314,c),
(25,255,l),
(93,255,o),
(151,213,o),
(105,131,cs),
(63,57,ls),
(6,-43,o),
(76,-131,o),
(173,-131,cs)
);
}
);
};
layerId = "BBF50C95-11E7-4C6C-A6B4-F7DAB4109038";
name = "new Layer";
shapes = (
{
closed = 1;
nodes = (
(194,-131,l),
(209,-73,l),
(178,-73,ls),
(126,-73,o),
(82,-29,o),
(127,51,cs),
(168,124,ls),
(216,210,o),
(161,271,o),
(92,287,c),
(90,277,l),
(174,288,o),
(250,354,o),
(245,445,cs),
(241,518,ls),
(237,598,o),
(294,642,o),
(345,642,cs),
(387,642,l),
(402,700,l),
(353,700,ls),
(256,700,o),
(167,626,o),
(177,510,cs),
(183,438,ls),
(190,358,o),
(107,314,o),
(39,314,c),
(25,255,l),
(93,255,o),
(151,213,o),
(105,131,cs),
(63,57,ls),
(6,-43,o),
(76,-131,o),
(173,-131,cs)
);
}
);
width = 310;
},
{
associatedMasterId = "CAEAD647-A533-4D72-9ACE-F5DE50C4DBD4";
background = {
shapes = (
{
closed = 1;
nodes = (
(248,-131,l),
(280,-3,l),
(244,-3,ls),
(212,-3,o),
(187,32,o),
(216,82,cs),
(241,125,ls),
(284,200,o),
(248,273,o),
(114,293,c),
(107,264,l),
(250,281,o),
(327,347,o),
(318,436,cs),
(313,487,ls),
(308,537,o),
(347,572,o),
(383,572,cs),
(424,572,l),
(456,700,l),
(372,700,ls),
(247,700,o),
(148,606,o),
(162,480,cs),
(167,435,ls),
(173,383,o),
(110,347,o),
(45,347,c),
(13,222,l),
(78,222,o),
(123,184,o),
(92,133,cs),
(65,89,ls),
(-9,-32,o),
(90,-131,o),
(224,-131,cs)
);
}
);
};
layerId = "3237CBDB-1313-4732-858E-BDB012F0979C";
name = "new Layer";
shapes = (
{
closed = 1;
nodes = (
(248,-131,l),
(280,-3,l),
(244,-3,ls),
(212,-3,o),
(187,32,o),
(216,82,cs),
(241,125,ls),
(284,200,o),
(248,273,o),
(114,293,c),
(107,264,l),
(250,281,o),
(327,347,o),
(318,436,cs),
(313,487,ls),
(308,537,o),
(347,572,o),
(383,572,cs),
(424,572,l),
(456,700,l),
(372,700,ls),
(247,700,o),
(148,606,o),
(162,480,cs),
(167,435,ls),
(173,383,o),
(110,347,o),
(45,347,c),
(13,222,l),
(78,222,o),
(123,184,o),
(92,133,cs),
(65,89,ls),
(-9,-32,o),
(90,-131,o),
(224,-131,cs)
);
}
);
width = 382;
},
{
background = {
shapes = (
{
closed = 1;
nodes = (
(345,-131,l),
(345,-3,l),
(309,-3,ls),
(275,-3,o),
(240,32,o),
(254,82,cs),
(270,125,ls),
(303,214,o),
(238,281,o),
(102,300,c),
(102,271,l),
(238,288,o),
(303,355,o),
(270,444,cs),
(254,487,ls),
(240,537,o),
(275,572,o),
(309,572,cs),
(345,572,l),
(345,700,l),
(291,700,ls),
(165,700,o),
(63,607,o),
(106,480,cs),
(123,435,ls),
(143,383,o),
(87,347,o),
(20,347,c),
(20,222,l),
(87,222,o),
(143,184,o),
(123,133,cs),
(106,89,ls),
(62,-37,o),
(165,-131,o),
(291,-131,cs)
);
}
);
};
hints = (
{
horizontal = 1;
options = 4;
origin = (0,19);
target = (0,18);
type = TTStem;
},
{
horizontal = 1;
options = 4;
origin = (0,0);
target = (0,1);
type = TTStem;
},
{
horizontal = 1;
options = 4;
origin = (0,18);
other1 = (0,28);
target = (0,1);
type = TTInterpolate;
},
{
horizontal = 1;
options = 4;
origin = (0,28);
target = (0,27);
type = TTStem;
},
{
horizontal = 1;
options = 4;
origin = (0,28);
other1 = (0,9,0,13);
target = (0,27);
type = TTInterpolate;
}
);
layerId = "474EAD97-6F36-4C8E-8A0A-83C4F7DF9055";
shapes = (
{
closed = 1;
nodes = (
(365,-131,l),
(365,-3,l),
(329,-3,ls),
(295,-3,o),
(260,32,o),
(274,82,cs),
(290,125,ls),
(323,214,o),
(258,281,o),
(122,300,c),
(122,271,l),
(258,288,o),
(323,355,o),
(290,444,cs),
(274,487,ls),
(260,537,o),
(295,572,o),
(329,572,cs),
(365,572,l),
(365,700,l),
(311,700,ls),
(185,700,o),
(83,607,o),
(126,480,cs),
(143,435,ls),
(163,383,o),
(107,347,o),
(40,347,c),
(40,222,l),
(107,222,o),
(163,184,o),
(143,133,cs),
(126,89,ls),
(82,-37,o),
(185,-131,o),
(311,-131,cs)
);
}
);
width = 419;
}
);
unicode = 123;
}
{
glyphname = bar;
layers = (
{
background = {
shapes = (
{
closed = 1;
nodes = (
(69,760,l),
(69,-133,l),
(132,-133,l),
(132,760,l)
);
}
);
};
layerId = "9CA0F1F1-C419-4983-8E88-5CF3F967428B";
shapes = (
{
closed = 1;
nodes = (
(69,760,l),
(69,-133,l),
(132,-133,l),
(132,760,l)
);
}
);
width = 201;
},
{
background = {
shapes = (
{
closed = 1;
nodes = (
(56,760,l),
(56,-133,l),
(202,-133,l),
(202,760,l)
);
}
);
};
hints = (
{
horizontal = 1;
origin = (0,0);
type = TTSnap;
},
{
horizontal = 1;
origin = (0,1);
type = TTSnap;
}
);
layerId = "5500A485-9BC9-4FA7-853B-8075021C5598";
shapes = (
{
closed = 1;
nodes = (
(56,760,l),
(56,-133,l),
(202,-133,l),
(202,760,l)
);
}
);
width = 258;
},
{
associatedMasterId = "9CA0F1F1-C419-4983-8E88-5CF3F967428B";
background = {
shapes = (
{
closed = 1;
nodes = (
(194,760,l),
(-28,-133,l),
(36,-133,l),
(258,760,l)
);
}
);
};
layerId = "B8B1B9F7-57AD-40F6-8824-2C22876E3A5C";
name = "new Layer";
shapes = (
{
closed = 1;
nodes = (
(194,760,l),
(-28,-133,l),
(36,-133,l),
(258,760,l)
);
}
);
width = 202;
},
{
associatedMasterId = "9CA0F1F1-C419-4983-8E88-5CF3F967428B";
background = {
shapes = (
{
closed = 1;
nodes = (
(179,760,l),
(-43,-133,l),
(107,-133,l),
(329,760,l)
);
}
);
};
layerId = "2275FDE9-41F5-43D3-856B-3453FC30E713";
name = "new Layer";
shapes = (
{
closed = 1;
nodes = (
(179,760,l),
(-43,-133,l),
(107,-133,l),
(329,760,l)
);
}
);
width = 264;
},
{
background = {
shapes = (
{
closed = 1;
nodes = (
(69,760,l),
(69,-133,l),
(132,-133,l),
(132,760,l)
);
}
);
};
layerId = "CAEAD647-A533-4D72-9ACE-F5DE50C4DBD4";
shapes = (
{
closed = 1;
nodes = (
(89,760,l),
(89,-133,l),
(152,-133,l),
(152,760,l)
);
}
);
width = 241;
},
{
associatedMasterId = "CAEAD647-A533-4D72-9ACE-F5DE50C4DBD4";
background = {
shapes = (
{
closed = 1;
nodes = (
(194,760,l),
(-28,-133,l),
(36,-133,l),
(258,760,l)
);
}
);
};
layerId = "AFDBF285-56D3-42B3-A1C9-DFDD84DAE339";
name = "new Layer";
shapes = (
{
closed = 1;
nodes = (
(194,760,l),
(-28,-133,l),
(36,-133,l),
(258,760,l)
);
}
);
width = 202;
},
{
associatedMasterId = "CAEAD647-A533-4D72-9ACE-F5DE50C4DBD4";
background = {
shapes = (
{
closed = 1;
nodes = (
(179,760,l),
(-43,-133,l),
(107,-133,l),
(329,760,l)
);
}
);
};
layerId = "503EB178-54BA-429C-8D0D-3986C8AB93ED";
name = "new Layer";
shapes = (
{
closed = 1;
nodes = (
(179,760,l),
(-43,-133,l),
(107,-133,l),
(329,760,l)
);
}
);
width = 264;
},
{
background = {
shapes = (
{
closed = 1;
nodes = (
(56,760,l),
(56,-133,l),
(202,-133,l),
(202,760,l)
);
}
);
};
hints = (
{
horizontal = 1;
origin = (0,0);
type = TTSnap;
},
{
horizontal = 1;
origin = (0,1);
type = TTSnap;
}
);
layerId = "474EAD97-6F36-4C8E-8A0A-83C4F7DF9055";
shapes = (
{
closed = 1;
nodes = (
(76,760,l),
(76,-133,l),
(222,-133,l),
(222,760,l)
);
}
);
width = 298;
}
);
unicode = 124;
}
{
color = 6;
glyphname = braceright;
layers = (
{
background = {
shapes = (
{
closed = 1;
nodes = (
(19,700,l),
(19,642,l),
(51,642,ls),
(104,642,o),
(159,599,o),
(137,517,cs),
(113,445,ls),
(82,354,o),
(157,295,o),
(229,279,c),
(229,289,l),
(157,274,o),
(82,215,o),
(113,124,cs),
(137,52,ls),
(159,-29,o),
(104,-73,o),
(51,-73,cs),
(19,-73,l),
(19,-131,l),
(51,-131,ls),
(149,-131,o),
(237,-58,o),
(201,59,cs),
(176,131,ls),
(148,211,o),
(219,255,o),
(289,255,c),
(289,314,l),
(219,314,o),
(149,358,o),
(176,438,cs),
(201,511,ls),
(236,627,o),
(149,700,o),
(51,700,cs)
);
}
);
};
layerId = "9CA0F1F1-C419-4983-8E88-5CF3F967428B";
shapes = (
{
alignment = -1;
angle = 180;
pos = (302,569);
ref = braceleft;
}
);
width = 302;
},
{
background = {
hints = (
{
horizontal = 1;
options = 4;
origin = (0,2);
target = (0,35);
type = TTStem;
},
{
horizontal = 1;
options = 4;
origin = (0,28);
target = (0,27);
type = TTStem;
},
{
horizontal = 1;
options = 4;
origin = (0,20);
target = (0,17);
type = TTStem;
},
{
horizontal = 1;
options = 4;
origin = (0,27);
target = (0,28);
type = TTInterpolate;
}
);
shapes = (
{
closed = 1;
nodes = (
(34,700,l),
(34,572,l),
(70,572,ls),
(104,572,o),
(139,537,o),
(125,487,cs),
(109,444,ls),
(76,355,o),
(141,288,o),
(277,269,c),
(277,298,l),
(141,281,o),
(76,214,o),
(109,125,cs),
(125,82,ls),
(139,32,o),
(104,-3,o),
(70,-3,cs),
(34,-3,l),
(34,-131,l),
(88,-131,ls),
(214,-131,o),
(316,-38,o),
(273,89,cs),
(256,134,ls),
(236,186,o),
(292,222,o),
(359,222,c),
(359,347,l),
(292,347,o),
(236,385,o),
(256,436,cs),
(273,480,ls),
(317,606,o),
(214,700,o),
(88,700,cs)
);
}
);
};
layerId = "5500A485-9BC9-4FA7-853B-8075021C5598";
shapes = (
{
alignment = -1;
angle = 180;
pos = (379,569);
ref = braceleft;
}
);
width = 379;
},
{
associatedMasterId = "9CA0F1F1-C419-4983-8E88-5CF3F967428B";
background = {
shapes = (
{
closed = 1;
nodes = (
(129,700,l),
(114,642,l),
(145,642,ls),
(197,642,o),
(241,598,o),
(196,518,cs),
(155,445,ls),
(107,359,o),
(162,298,o),
(231,282,c),
(233,292,l),
(149,281,o),
(73,215,o),
(78,124,cs),
(82,51,ls),
(86,-29,o),
(29,-73,o),
(-22,-73,cs),
(-64,-73,l),
(-79,-131,l),
(-30,-131,ls),
(67,-131,o),
(156,-57,o),
(146,59,cs),
(140,131,ls),
(133,211,o),
(216,255,o),
(284,255,c),
(298,314,l),
(230,314,o),
(172,356,o),
(218,438,cs),
(260,512,ls),
(317,612,o),
(247,700,o),
(150,700,cs)
);
}
);
};
layerId = "B8B1B9F7-57AD-40F6-8824-2C22876E3A5C";
name = "new Layer";
shapes = (
{
alignment = -1;
angle = 180;
pos = (323,569);
ref = braceleft;
}
);
width = 309;
},
{
associatedMasterId = "9CA0F1F1-C419-4983-8E88-5CF3F967428B";
background = {
shapes = (
{
closed = 1;
nodes = (
(142,700,l),
(110,572,l),
(146,572,ls),
(178,572,o),
(203,537,o),
(174,487,cs),
(149,444,ls),
(106,369,o),
(142,296,o),
(276,276,c),
(283,305,l),
(140,288,o),
(63,222,o),
(72,133,cs),
(77,82,ls),
(82,32,o),
(43,-3,o),
(7,-3,cs),
(-34,-3,l),
(-66,-131,l),
(18,-131,ls),
(143,-131,o),
(242,-37,o),
(228,89,cs),
(223,134,ls),
(217,186,o),
(280,222,o),
(345,222,c),
(377,347,l),
(312,347,o),
(267,385,o),
(298,436,cs),
(325,480,ls),
(399,601,o),
(300,700,o),
(166,700,cs)
);
}
);
};
layerId = "2275FDE9-41F5-43D3-856B-3453FC30E713";
name = "new Layer";
shapes = (
{
alignment = -1;
angle = 180;
pos = (390,569);
ref = braceleft;
}
);
width = 382;
},
{
background = {
shapes = (
{
closed = 1;
nodes = (
(19,700,l),
(19,642,l),
(51,642,ls),
(104,642,o),
(159,599,o),
(137,517,cs),
(113,445,ls),
(82,354,o),
(157,295,o),
(229,279,c),
(229,289,l),
(157,274,o),
(82,215,o),
(113,124,cs),
(137,52,ls),
(159,-29,o),
(104,-73,o),
(51,-73,cs),
(19,-73,l),
(19,-131,l),
(51,-131,ls),
(149,-131,o),
(237,-58,o),
(201,59,cs),
(176,131,ls),
(148,211,o),
(219,255,o),
(289,255,c),
(289,314,l),
(219,314,o),
(149,358,o),
(176,438,cs),
(201,511,ls),
(236,627,o),
(149,700,o),
(51,700,cs)
);
}
);
};
layerId = "CAEAD647-A533-4D72-9ACE-F5DE50C4DBD4";
shapes = (
{
closed = 1;
nodes = (
(39,700,l),
(39,642,l),
(71,642,ls),
(124,642,o),
(179,599,o),
(157,517,cs),
(133,445,ls),
(102,354,o),
(177,295,o),
(249,279,c),
(249,289,l),
(177,274,o),
(102,215,o),
(133,124,cs),
(157,52,ls),
(179,-29,o),
(124,-73,o),
(71,-73,cs),
(39,-73,l),
(39,-131,l),
(71,-131,ls),
(169,-131,o),
(257,-58,o),
(221,59,cs),
(196,131,ls),
(168,211,o),
(239,255,o),
(309,255,c),
(309,314,l),
(239,314,o),
(169,358,o),
(196,438,cs),
(221,511,ls),
(256,627,o),
(169,700,o),
(71,700,cs)
);
}
);
width = 342;
},
{
associatedMasterId = "CAEAD647-A533-4D72-9ACE-F5DE50C4DBD4";
background = {
shapes = (
{
closed = 1;
nodes = (
(129,700,l),
(114,642,l),
(145,642,ls),
(197,642,o),
(241,598,o),
(196,518,cs),
(155,445,ls),
(107,359,o),
(162,298,o),
(231,282,c),
(233,292,l),
(149,281,o),
(73,215,o),
(78,124,cs),
(82,51,ls),
(86,-29,o),
(29,-73,o),
(-22,-73,cs),
(-64,-73,l),
(-79,-131,l),
(-30,-131,ls),
(67,-131,o),
(156,-57,o),
(146,59,cs),
(140,131,ls),
(133,211,o),
(216,255,o),
(284,255,c),
(298,314,l),
(230,314,o),
(172,356,o),
(218,438,cs),
(260,512,ls),
(317,612,o),
(247,700,o),
(150,700,cs)
);
}
);
};
layerId = "B594ADD6-20A0-419C-9306-0891F7CCB95B";
name = "new Layer";
shapes = (
{
alignment = -1;
angle = 180;
pos = (323,569);
ref = braceleft;
}
);
width = 309;
},
{
associatedMasterId = "CAEAD647-A533-4D72-9ACE-F5DE50C4DBD4";
background = {
shapes = (
{
closed = 1;
nodes = (
(142,700,l),
(110,572,l),
(146,572,ls),
(178,572,o),
(203,537,o),
(174,487,cs),
(149,444,ls),
(106,369,o),
(142,296,o),
(276,276,c),
(283,305,l),
(140,288,o),
(63,222,o),
(72,133,cs),
(77,82,ls),
(82,32,o),
(43,-3,o),
(7,-3,cs),
(-34,-3,l),
(-66,-131,l),
(18,-131,ls),
(143,-131,o),
(242,-37,o),
(228,89,cs),
(223,134,ls),
(217,186,o),
(280,222,o),
(345,222,c),
(377,347,l),
(312,347,o),
(267,385,o),
(298,436,cs),
(325,480,ls),
(399,601,o),
(300,700,o),
(166,700,cs)
);
}
);
};
layerId = "5B8D81E1-F6C7-4BBA-8506-25747A4A26DC";
name = "new Layer";
shapes = (
{
alignment = -1;
angle = 180;
pos = (390,569);
ref = braceleft;
}
);
width = 382;
},
{
background = {
hints = (
{
horizontal = 1;
options = 4;
origin = (0,2);
target = (0,35);
type = TTStem;
},
{
horizontal = 1;
options = 4;
origin = (0,28);
target = (0,27);
type = TTStem;
},
{
horizontal = 1;
options = 4;
origin = (0,20);
target = (0,17);
type = TTStem;
},
{
horizontal = 1;
options = 4;
origin = (0,27);
target = (0,28);
type = TTInterpolate;
}
);
shapes = (
{
closed = 1;
nodes = (
(34,700,l),
(34,572,l),
(70,572,ls),
(104,572,o),
(139,537,o),
(125,487,cs),
(109,444,ls),
(76,355,o),
(141,288,o),
(277,269,c),
(277,298,l),
(141,281,o),
(76,214,o),
(109,125,cs),
(125,82,ls),
(139,32,o),
(104,-3,o),
(70,-3,cs),
(34,-3,l),
(34,-131,l),
(88,-131,ls),
(214,-131,o),
(316,-38,o),
(273,89,cs),
(256,134,ls),
(236,186,o),
(292,222,o),
(359,222,c),
(359,347,l),
(292,347,o),
(236,385,o),
(256,436,cs),
(273,480,ls),
(317,606,o),
(214,700,o),
(88,700,cs)
);
}
);
};
hints = (
{
horizontal = 1;
options = 4;
origin = (0,19);
target = (0,18);
type = TTStem;
},
{
horizontal = 1;
options = 4;
origin = (0,0);
target = (0,1);
type = TTStem;
},
{
horizontal = 1;
options = 4;
origin = (0,18);
other1 = (0,28);
target = (0,1);
type = TTInterpolate;
},
{
horizontal = 1;
options = 4;
origin = (0,28);
target = (0,27);
type = TTStem;
},
{
horizontal = 1;
options = 4;
origin = (0,28);
other1 = (0,9,0,13);
target = (0,27);
type = TTInterpolate;
}
);
layerId = "474EAD97-6F36-4C8E-8A0A-83C4F7DF9055";
shapes = (
{
closed = 1;
nodes = (
(54,700,l),
(54,572,l),
(90,572,ls),
(124,572,o),
(159,537,o),
(145,487,cs),
(129,444,ls),
(96,355,o),
(161,288,o),
(297,269,c),
(297,298,l),
(161,281,o),
(96,214,o),
(129,125,cs),
(145,82,ls),
(159,32,o),
(124,-3,o),
(90,-3,cs),
(54,-3,l),
(54,-131,l),
(108,-131,ls),
(234,-131,o),
(336,-38,o),
(293,89,cs),
(276,134,ls),
(256,186,o),
(312,222,o),
(379,222,c),
(379,347,l),
(312,347,o),
(256,385,o),
(276,436,cs),
(293,480,ls),
(337,606,o),
(234,700,o),
(108,700,cs)
);
}
);
width = 419;
}
);
unicode = 125;
}
{
export = 0;
glyphname = exclamdown;
layers = (
{
background = {
shapes = (
{
closed = 1;
nodes = (
(129,-229,l),
(129,120,l),
(119,258,l),
(73,258,l),
(63,120,l),
(63,-229,l)
);
},
{
closed = 1;
nodes = (
(68,480,o),
(46,458,o),
(46,429,cs),
(46,401,o),
(68,379,o),
(97,379,cs),
(125,379,o),
(146,401,o),
(146,429,cs),
(146,458,o),
(125,480,o),
(97,480,cs)
);
}
);
};
layerId = "9CA0F1F1-C419-4983-8E88-5CF3F967428B";
shapes = (
{
alignment = -1;
angle = 180;
pos = (201,499);
ref = exclam;
}
);
width = 192;
},
{
background = {
shapes = (
{
closed = 1;
nodes = (
(203,-211,l),
(203,100,l),
(183,232,l),
(73,232,l),
(53,100,l),
(53,-211,l)
);
},
{
closed = 1;
nodes = (
(72,502,o),
(33,461,o),
(33,404,cs),
(33,347,o),
(72,307,o),
(128,307,cs),
(185,307,o),
(224,347,o),
(224,404,cs),
(224,461,o),
(185,502,o),
(128,502,cs)
);
}
);
};
layerId = "5500A485-9BC9-4FA7-853B-8075021C5598";
shapes = (
{
alignment = -1;
angle = 180;
pos = (261,520);
ref = exclam;
}
);
width = 256;
},
{
background = {
shapes = (
{
closed = 1;
nodes = (
(129,-229,l),
(129,120,l),
(119,258,l),
(73,258,l),
(63,120,l),
(63,-229,l)
);
},
{
closed = 1;
nodes = (
(68,480,o),
(46,458,o),
(46,429,cs),
(46,401,o),
(68,379,o),
(97,379,cs),
(125,379,o),
(146,401,o),
(146,429,cs),
(146,458,o),
(125,480,o),
(97,480,cs)
);
}
);
};
layerId = "CAEAD647-A533-4D72-9ACE-F5DE50C4DBD4";
shapes = (
{
alignment = -1;
angle = 180;
pos = (201,499);
ref = exclam;
}
);
width = 192;
},
{
background = {
shapes = (
{
closed = 1;
nodes = (
(203,-211,l),
(203,100,l),
(183,232,l),
(73,232,l),
(53,100,l),
(53,-211,l)
);
},
{
closed = 1;
nodes = (
(72,502,o),
(33,461,o),
(33,404,cs),
(33,347,o),
(72,307,o),
(128,307,cs),
(185,307,o),
(224,347,o),
(224,404,cs),
(224,461,o),
(185,502,o),
(128,502,cs)
);
}
);
};
layerId = "474EAD97-6F36-4C8E-8A0A-83C4F7DF9055";
shapes = (
{
alignment = -1;
angle = 180;
pos = (261,520);
ref = exclam;
}
);
width = 256;
}
);
unicode = 161;
}
{
glyphname = sterling;
layers = (
{
background = {
shapes = (
{
closed = 1;
nodes = (
(102,0,l),
(570,0,l),
(570,63,l),
(153,63,l),
(159,38,l),
(253,89,o),
(287,143,o),
(287,217,cs),
(287,323,o),
(211,428,o),
(211,512,cs),
(211,598,o),
(272,644,o),
(350,644,cs),
(419,644,o),
(479,610,o),
(505,519,c),
(568,540,l),
(535,656,o),
(455,709,o),
(350,709,cs),
(236,709,o),
(141,641,o),
(141,515,cs),
(141,417,o),
(217,307,o),
(217,217,cs),
(217,156,o),
(193,116,o),
(102,52,c)
);
},
{
closed = 1;
nodes = (
(445,304,l),
(445,360,l),
(80,360,l),
(80,304,l)
);
}
);
};
layerId = "9CA0F1F1-C419-4983-8E88-5CF3F967428B";
shapes = (
{
closed = 1;
nodes = (
(570,0,l),
(570,63,l),
(153,63,l),
(159,38,l),
(253,89,o),
(287,143,o),
(287,217,cs),
(287,323,o),
(211,428,o),
(211,512,cs),
(211,598,o),
(272,644,o),
(350,644,cs),
(419,644,o),
(479,610,o),
(505,519,c),
(568,540,l),
(535,656,o),
(455,709,o),
(350,709,cs),
(236,709,o),
(141,641,o),
(141,515,cs),
(141,417,o),
(217,307,o),
(217,217,cs),
(217,156,o),
(193,116,o),
(102,52,c),
(102,0,l)
);
},
{
closed = 1;
nodes = (
(445,304,l),
(445,360,l),
(80,360,l),
(80,304,l)
);
}
);
width = 650;
},
{
background = {
shapes = (
{
closed = 1;
nodes = (
(68,0,l),
(578,0,l),
(578,141,l),
(142,141,l),
(120,63,l),
(256,122,o),
(317,174,o),
(317,284,cs),
(317,366,o),
(260,430,o),
(260,490,cs),
(260,546,o),
(299,569,o),
(347,569,cs),
(392,569,o),
(440,547,o),
(451,473,c),
(592,511,l),
(572,640,o),
(480,715,o),
(347,715,cs),
(211,715,o),
(96,646,o),
(96,505,cs),
(96,410,o),
(153,340,o),
(153,275,cs),
(153,224,o),
(139,164,o),
(68,122,c)
);
},
{
closed = 1;
nodes = (
(462,289,l),
(462,397,l),
(70,397,l),
(70,289,l)
);
}
);
};
hints = (
{
horizontal = 1;
options = 4;
origin = (0,29);
target = (0,2);
type = TTStem;
},
{
horizontal = 1;
options = 4;
origin = (0,19);
target = (0,12);
type = TTStem;
},
{
horizontal = 1;
options = 4;
origin = (1,2);
target = (1,1);
type = TTShift;
},
{
horizontal = 1;
options = 4;
origin = (1,3);
target = (1,0);
type = TTShift;
},
{
horizontal = 1;
options = 4;
origin = (0,2);
target = (0,28);
type = TTShift;
},
{
horizontal = 1;
origin = (0,2);
other1 = (1,2);
target = (0,12);
type = TTInterpolate;
},
{
horizontal = 1;
origin = (1,2);
target = (1,3);
type = TTStem;
},
{
horizontal = 1;
options = 4;
origin = (1,2);
other1 = (0,15);
target = (0,12);
type = TTInterpolate;
}
);
layerId = "5500A485-9BC9-4FA7-853B-8075021C5598";
shapes = (
{
closed = 1;
nodes = (
(578,0,l),
(578,141,l),
(142,141,l),
(120,63,l),
(256,122,o),
(317,174,o),
(317,284,cs),
(317,365,o),
(260,429,o),
(260,488,cs),
(260,544,o),
(299,567,o),
(347,567,cs),
(392,567,o),
(440,545,o),
(451,471,c),
(592,509,l),
(572,638,o),
(480,713,o),
(347,713,cs),
(211,713,o),
(96,644,o),
(96,503,cs),
(96,409,o),
(153,339,o),
(153,275,cs),
(153,224,o),
(139,164,o),
(68,122,c),
(68,0,l)
);
},
{
closed = 1;
nodes = (
(462,289,l),
(462,397,l),
(70,397,l),
(70,289,l)
);
}
);
width = 650;
},
{
associatedMasterId = "9CA0F1F1-C419-4983-8E88-5CF3F967428B";
background = {
shapes = (
{
closed = 1;
nodes = (
(57,0,l),
(507,0,l),
(523,63,l),
(125,63,l),
(131,49,l),
(231,82,o),
(294,165,o),
(294,269,cs),
(294,341,o),
(269,419,o),
(269,486,cs),
(269,588,o),
(326,646,o),
(426,646,cs),
(492,646,o),
(545,614,o),
(566,524,c),
(631,542,l),
(610,658,o),
(530,711,o),
(428,711,cs),
(291,711,o),
(199,625,o),
(199,493,cs),
(199,421,o),
(224,338,o),
(224,271,cs),
(224,175,o),
(166,115,o),
(70,52,c)
);
},
{
closed = 1;
nodes = (
(461,304,l),
(475,360,l),
(117,360,l),
(103,304,l)
);
}
);
};
layerId = "B8B1B9F7-57AD-40F6-8824-2C22876E3A5C";
name = "new Layer";
shapes = (
{
closed = 1;
nodes = (
(507,0,l),
(523,63,l),
(125,63,l),
(131,49,l),
(231,82,o),
(294,165,o),
(294,269,cs),
(294,340,o),
(269,418,o),
(269,484,cs),
(269,586,o),
(326,644,o),
(426,644,cs),
(492,644,o),
(545,612,o),
(566,522,c),
(631,540,l),
(610,656,o),
(530,709,o),
(428,709,cs),
(291,709,o),
(199,623,o),
(199,491,cs),
(199,420,o),
(224,337,o),
(224,271,cs),
(224,175,o),
(166,115,o),
(70,52,c),
(57,0,l)
);
},
{
closed = 1;
nodes = (
(461,304,l),
(475,360,l),
(117,360,l),
(103,304,l)
);
}
);
width = 650;
},
{
associatedMasterId = "9CA0F1F1-C419-4983-8E88-5CF3F967428B";
background = {
shapes = (
{
closed = 1;
nodes = (
(15,0,l),
(513,0,l),
(548,141,l),
(125,141,l),
(98,63,l),
(239,121,o),
(330,190,o),
(330,329,cs),
(330,381,o),
(316,429,o),
(316,469,cs),
(316,527,o),
(345,569,o),
(410,569,cs),
(453,569,o),
(497,547,o),
(500,473,c),
(643,511,l),
(638,640,o),
(555,715,o),
(422,715,cs),
(259,715,o),
(151,628,o),
(151,473,cs),
(151,415,o),
(167,356,o),
(167,309,cs),
(167,239,o),
(119,162,o),
(45,122,c)
);
},
{
closed = 1;
nodes = (
(473,289,l),
(500,397,l),
(114,397,l),
(87,289,l)
);
}
);
};
layerId = "2275FDE9-41F5-43D3-856B-3453FC30E713";
name = "new Layer";
shapes = (
{
closed = 1;
nodes = (
(513,0,l),
(548,141,l),
(125,141,l),
(98,63,l),
(239,121,o),
(330,190,o),
(330,329,cs),
(330,380,o),
(316,428,o),
(316,467,cs),
(316,525,o),
(345,567,o),
(410,567,cs),
(453,567,o),
(497,545,o),
(500,471,c),
(643,509,l),
(638,638,o),
(555,713,o),
(422,713,cs),
(259,713,o),
(151,626,o),
(151,471,cs),
(151,414,o),
(167,355,o),
(167,309,cs),
(167,239,o),
(119,162,o),
(45,122,c),
(15,0,l)
);
},
{
closed = 1;
nodes = (
(473,289,l),
(500,397,l),
(114,397,l),
(87,289,l)
);
}
);
width = 650;
},
{
background = {
shapes = (
{
closed = 1;
nodes = (
(102,0,l),
(570,0,l),
(570,63,l),
(153,63,l),
(159,38,l),
(253,89,o),
(287,143,o),
(287,217,cs),
(287,323,o),
(211,428,o),
(211,512,cs),
(211,598,o),
(272,644,o),
(350,644,cs),
(419,644,o),
(479,610,o),
(505,519,c),
(568,540,l),
(535,656,o),
(455,709,o),
(350,709,cs),
(236,709,o),
(141,641,o),
(141,515,cs),
(141,417,o),
(217,307,o),
(217,217,cs),
(217,156,o),
(193,116,o),
(102,52,c)
);
},
{
closed = 1;
nodes = (
(445,304,l),
(445,360,l),
(80,360,l),
(80,304,l)
);
}
);
};
layerId = "CAEAD647-A533-4D72-9ACE-F5DE50C4DBD4";
shapes = (
{
closed = 1;
nodes = (
(590,0,l),
(590,63,l),
(173,63,l),
(179,38,l),
(273,89,o),
(307,143,o),
(307,217,cs),
(307,323,o),
(231,428,o),
(231,512,cs),
(231,598,o),
(292,644,o),
(370,644,cs),
(439,644,o),
(499,610,o),
(525,519,c),
(588,540,l),
(555,656,o),
(475,709,o),
(370,709,cs),
(256,709,o),
(161,641,o),
(161,515,cs),
(161,417,o),
(237,307,o),
(237,217,cs),
(237,156,o),
(213,116,o),
(122,52,c),
(122,0,l)
);
},
{
closed = 1;
nodes = (
(465,304,l),
(465,360,l),
(100,360,l),
(100,304,l)
);
}
);
width = 690;
},
{
associatedMasterId = "CAEAD647-A533-4D72-9ACE-F5DE50C4DBD4";
background = {
shapes = (
{
closed = 1;
nodes = (
(57,0,l),
(507,0,l),
(523,63,l),
(125,63,l),
(131,49,l),
(231,82,o),
(294,165,o),
(294,269,cs),
(294,341,o),
(269,419,o),
(269,486,cs),
(269,588,o),
(326,646,o),
(426,646,cs),
(492,646,o),
(545,614,o),
(566,524,c),
(631,542,l),
(610,658,o),
(530,711,o),
(428,711,cs),
(291,711,o),
(199,625,o),
(199,493,cs),
(199,421,o),
(224,338,o),
(224,271,cs),
(224,175,o),
(166,115,o),
(70,52,c)
);
},
{
closed = 1;
nodes = (
(461,304,l),
(475,360,l),
(117,360,l),
(103,304,l)
);
}
);
};
layerId = "A1B38FB4-3618-4458-B0AF-A9E8D9C92AC1";
name = "new Layer";
shapes = (
{
closed = 1;
nodes = (
(507,0,l),
(523,63,l),
(125,63,l),
(131,49,l),
(231,82,o),
(294,165,o),
(294,269,cs),
(294,340,o),
(269,418,o),
(269,484,cs),
(269,586,o),
(326,644,o),
(426,644,cs),
(492,644,o),
(545,612,o),
(566,522,c),
(631,540,l),
(610,656,o),
(530,709,o),
(428,709,cs),
(291,709,o),
(199,623,o),
(199,491,cs),
(199,420,o),
(224,337,o),
(224,271,cs),
(224,175,o),
(166,115,o),
(70,52,c),
(57,0,l)
);
},
{
closed = 1;
nodes = (
(461,304,l),
(475,360,l),
(117,360,l),
(103,304,l)
);
}
);
width = 650;
},
{
associatedMasterId = "CAEAD647-A533-4D72-9ACE-F5DE50C4DBD4";
background = {
shapes = (
{
closed = 1;
nodes = (
(15,0,l),
(513,0,l),
(548,141,l),
(125,141,l),
(98,63,l),
(239,121,o),
(330,190,o),
(330,329,cs),
(330,381,o),
(316,429,o),
(316,469,cs),
(316,527,o),
(345,569,o),
(410,569,cs),
(453,569,o),
(497,547,o),
(500,473,c),
(643,511,l),
(638,640,o),
(555,715,o),
(422,715,cs),
(259,715,o),
(151,628,o),
(151,473,cs),
(151,415,o),
(167,356,o),
(167,309,cs),
(167,239,o),
(119,162,o),
(45,122,c)
);
},
{
closed = 1;
nodes = (
(473,289,l),
(500,397,l),
(114,397,l),
(87,289,l)
);
}
);
};
layerId = "18184C1B-A03E-4EF4-BEAD-E752CDD26FBB";
name = "new Layer";
shapes = (
{
closed = 1;
nodes = (
(513,0,l),
(548,141,l),
(125,141,l),
(98,63,l),
(239,121,o),
(330,190,o),
(330,329,cs),
(330,380,o),
(316,428,o),
(316,467,cs),
(316,525,o),
(345,567,o),
(410,567,cs),
(453,567,o),
(497,545,o),
(500,471,c),
(643,509,l),
(638,638,o),
(555,713,o),
(422,713,cs),
(259,713,o),
(151,626,o),
(151,471,cs),
(151,414,o),
(167,355,o),
(167,309,cs),
(167,239,o),
(119,162,o),
(45,122,c),
(15,0,l)
);
},
{
closed = 1;
nodes = (
(473,289,l),
(500,397,l),
(114,397,l),
(87,289,l)
);
}
);
width = 650;
},
{
background = {
shapes = (
{
closed = 1;
nodes = (
(68,0,l),
(578,0,l),
(578,141,l),
(142,141,l),
(120,63,l),
(256,122,o),
(317,174,o),
(317,284,cs),
(317,366,o),
(260,430,o),
(260,490,cs),
(260,546,o),
(299,569,o),
(347,569,cs),
(392,569,o),
(440,547,o),
(451,473,c),
(592,511,l),
(572,640,o),
(480,715,o),
(347,715,cs),
(211,715,o),
(96,646,o),
(96,505,cs),
(96,410,o),
(153,340,o),
(153,275,cs),
(153,224,o),
(139,164,o),
(68,122,c)
);
},
{
closed = 1;
nodes = (
(462,289,l),
(462,397,l),
(70,397,l),
(70,289,l)
);
}
);
};
hints = (
{
horizontal = 1;
options = 4;
origin = (0,29);
target = (0,2);
type = TTStem;
},
{
horizontal = 1;
options = 4;
origin = (0,19);
target = (0,12);
type = TTStem;
},
{
horizontal = 1;
options = 4;
origin = (1,2);
target = (1,1);
type = TTShift;
},
{
horizontal = 1;
options = 4;
origin = (1,3);
target = (1,0);
type = TTShift;
},
{
horizontal = 1;
options = 4;
origin = (0,2);
target = (0,28);
type = TTShift;
},
{
horizontal = 1;
origin = (0,2);
other1 = (1,2);
target = (0,12);
type = TTInterpolate;
},
{
horizontal = 1;
origin = (1,2);
target = (1,3);
type = TTStem;
},
{
horizontal = 1;
options = 4;
origin = (1,2);
other1 = (0,15);
target = (0,12);
type = TTInterpolate;
}
);
layerId = "474EAD97-6F36-4C8E-8A0A-83C4F7DF9055";
shapes = (
{
closed = 1;
nodes = (
(598,0,l),
(598,141,l),
(162,141,l),
(140,63,l),
(276,122,o),
(337,174,o),
(337,284,cs),
(337,365,o),
(280,429,o),
(280,488,cs),
(280,544,o),
(319,567,o),
(367,567,cs),
(412,567,o),
(460,545,o),
(471,471,c),
(612,509,l),
(592,638,o),
(500,713,o),
(367,713,cs),
(231,713,o),
(116,644,o),
(116,503,cs),
(116,409,o),
(173,339,o),
(173,275,cs),
(173,224,o),
(159,164,o),
(88,122,c),
(88,0,l)
);
},
{
closed = 1;
nodes = (
(482,289,l),
(482,397,l),
(90,397,l),
(90,289,l)
);
}
);
width = 690;
}
);
unicode = 163;
}
{
glyphname = currency;
layers = (
{
background = {
shapes = (
{
closed = 1;
nodes = (
(420,174,o),
(497,252,o),
(497,352,cs),
(497,450,o),
(420,528,o),
(325,528,cs),
(230,528,o),
(153,450,o),
(153,352,cs),
(153,252,o),
(230,174,o),
(325,174,cs)
);
},
{
closed = 1;
nodes = (
(240,225,l),
(204,262,l),
(100,156,l),
(136,120,l)
);
},
{
closed = 1;
nodes = (
(550,156,l),
(446,261,l),
(408,228,l),
(514,120,l)
);
},
{
closed = 1;
nodes = (
(257,224,o),
(204,280,o),
(204,352,cs),
(204,422,o),
(257,478,o),
(325,478,cs),
(392,478,o),
(446,422,o),
(446,352,cs),
(446,280,o),
(392,224,o),
(325,224,cs)
);
},
{
closed = 1;
nodes = (
(240,475,l),
(135,582,l),
(100,546,l),
(206,438,l)
);
},
{
closed = 1;
nodes = (
(550,546,l),
(514,582,l),
(411,477,l),
(445,440,l)
);
}
);
};
layerId = "9CA0F1F1-C419-4983-8E88-5CF3F967428B";
shapes = (
{
closed = 1;
nodes = (
(420,174,o),
(497,252,o),
(497,352,cs),
(497,450,o),
(420,528,o),
(325,528,cs),
(230,528,o),
(153,450,o),
(153,352,cs),
(153,252,o),
(230,174,o),
(325,174,cs)
);
},
{
closed = 1;
nodes = (
(240,225,l),
(204,262,l),
(100,156,l),
(136,120,l)
);
},
{
closed = 1;
nodes = (
(550,156,l),
(446,261,l),
(408,228,l),
(514,120,l)
);
},
{
closed = 1;
nodes = (
(257,224,o),
(204,280,o),
(204,352,cs),
(204,422,o),
(257,478,o),
(325,478,cs),
(392,478,o),
(446,422,o),
(446,352,cs),
(446,280,o),
(392,224,o),
(325,224,cs)
);
},
{
closed = 1;
nodes = (
(240,475,l),
(135,582,l),
(100,546,l),
(206,438,l)
);
},
{
closed = 1;
nodes = (
(550,546,l),
(514,582,l),
(411,477,l),
(445,440,l)
);
}
);
width = 650;
},
{
background = {
shapes = (
{
closed = 1;
nodes = (
(437,142,o),
(528,234,o),
(528,352,cs),
(528,466,o),
(437,559,o),
(325,559,cs),
(213,559,o),
(122,466,o),
(122,352,cs),
(122,234,o),
(213,142,o),
(325,142,cs)
);
},
{
closed = 1;
nodes = (
(269,210,l),
(190,291,l),
(53,153,l),
(132,72,l)
);
},
{
closed = 1;
nodes = (
(597,153,l),
(460,290,l),
(378,212,l),
(517,72,l)
);
},
{
closed = 1;
nodes = (
(274,255,o),
(235,296,o),
(235,352,cs),
(235,404,o),
(274,445,o),
(325,445,cs),
(376,445,o),
(416,404,o),
(416,352,cs),
(416,296,o),
(376,255,o),
(325,255,cs)
);
},
{
closed = 1;
nodes = (
(270,489,l),
(133,629,l),
(53,548,l),
(191,409,l)
);
},
{
closed = 1;
nodes = (
(597,548,l),
(516,629,l),
(380,492,l),
(460,410,l)
);
}
);
};
hints = (
{
horizontal = 1;
options = 4;
origin = (0,11);
target = (3,11);
type = TTStem;
},
{
horizontal = 1;
options = 4;
origin = (0,5);
target = (3,5);
type = TTStem;
}
);
layerId = "5500A485-9BC9-4FA7-853B-8075021C5598";
shapes = (
{
closed = 1;
nodes = (
(437,142,o),
(528,234,o),
(528,352,cs),
(528,466,o),
(437,559,o),
(325,559,cs),
(213,559,o),
(122,466,o),
(122,352,cs),
(122,234,o),
(213,142,o),
(325,142,cs)
);
},
{
closed = 1;
nodes = (
(269,210,l),
(190,291,l),
(53,153,l),
(132,72,l)
);
},
{
closed = 1;
nodes = (
(597,153,l),
(460,290,l),
(378,212,l),
(517,72,l)
);
},
{
closed = 1;
nodes = (
(274,255,o),
(235,296,o),
(235,352,cs),
(235,404,o),
(274,445,o),
(325,445,cs),
(376,445,o),
(416,404,o),
(416,352,cs),
(416,296,o),
(376,255,o),
(325,255,cs)
);
},
{
closed = 1;
nodes = (
(270,489,l),
(133,629,l),
(53,548,l),
(191,409,l)
);
},
{
closed = 1;
nodes = (
(597,548,l),
(516,629,l),
(380,492,l),
(460,410,l)
);
}
);
width = 650;
},
{
associatedMasterId = "9CA0F1F1-C419-4983-8E88-5CF3F967428B";
background = {
shapes = (
{
closed = 1;
nodes = (
(432,173,o),
(519,268,o),
(519,383,cs),
(519,470,o),
(463,530,o),
(374,530,cs),
(268,530,o),
(181,435,o),
(181,320,cs),
(181,233,o),
(237,173,o),
(326,173,cs)
);
},
{
closed = 1;
nodes = (
(237,222,l),
(207,263,l),
(84,162,l),
(115,122,l)
);
},
{
closed = 1;
nodes = (
(526,147,l),
(443,259,l),
(401,229,l),
(484,114,l)
);
},
{
closed = 1;
nodes = (
(270,224,o),
(235,265,o),
(235,324,cs),
(235,404,o),
(290,480,o),
(374,480,cs),
(431,480,o),
(465,439,o),
(465,379,cs),
(465,300,o),
(411,224,o),
(328,224,cs)
);
},
{
closed = 1;
nodes = (
(295,473,l),
(212,589,l),
(171,556,l),
(255,439,l)
);
},
{
closed = 1;
nodes = (
(615,537,l),
(584,577,l),
(463,478,l),
(492,437,l)
);
}
);
};
layerId = "B8B1B9F7-57AD-40F6-8824-2C22876E3A5C";
name = "new Layer";
shapes = (
{
closed = 1;
nodes = (
(432,173,o),
(519,268,o),
(519,383,cs),
(519,470,o),
(463,530,o),
(374,530,cs),
(268,530,o),
(181,435,o),
(181,320,cs),
(181,233,o),
(237,173,o),
(326,173,cs)
);
},
{
closed = 1;
nodes = (
(237,222,l),
(207,263,l),
(84,162,l),
(115,122,l)
);
},
{
closed = 1;
nodes = (
(526,147,l),
(443,259,l),
(401,229,l),
(484,114,l)
);
},
{
closed = 1;
nodes = (
(270,224,o),
(235,265,o),
(235,324,cs),
(235,404,o),
(290,480,o),
(374,480,cs),
(431,480,o),
(465,439,o),
(465,379,cs),
(465,300,o),
(411,224,o),
(328,224,cs)
);
},
{
closed = 1;
nodes = (
(295,473,l),
(212,589,l),
(171,556,l),
(255,439,l)
);
},
{
closed = 1;
nodes = (
(615,537,l),
(584,577,l),
(463,478,l),
(492,437,l)
);
}
);
width = 650;
},
{
associatedMasterId = "9CA0F1F1-C419-4983-8E88-5CF3F967428B";
background = {
shapes = (
{
closed = 1;
nodes = (
(458,142,o),
(556,250,o),
(556,382,cs),
(556,485,o),
(487,560,o),
(373,560,cs),
(242,560,o),
(144,450,o),
(144,318,cs),
(144,216,o),
(213,142,o),
(327,142,cs)
);
},
{
closed = 1;
nodes = (
(290,223,l),
(220,309,l),
(49,171,l),
(120,85,l)
);
},
{
closed = 1;
nodes = (
(571,138,l),
(472,270,l),
(374,202,l),
(474,67,l)
);
},
{
closed = 1;
nodes = (
(300,254,o),
(265,277,o),
(265,327,cs),
(265,386,o),
(309,445,o),
(364,445,cs),
(399,445,o),
(435,422,o),
(435,372,cs),
(435,313,o),
(391,254,o),
(335,254,cs)
);
},
{
closed = 1;
nodes = (
(314,494,l),
(213,634,l),
(116,563,l),
(218,424,l)
);
},
{
closed = 1;
nodes = (
(659,528,l),
(586,614,l),
(417,477,l),
(488,390,l)
);
}
);
};
layerId = "2275FDE9-41F5-43D3-856B-3453FC30E713";
name = "new Layer";
shapes = (
{
closed = 1;
nodes = (
(458,142,o),
(556,250,o),
(556,382,cs),
(556,485,o),
(487,560,o),
(373,560,cs),
(242,560,o),
(144,450,o),
(144,318,cs),
(144,216,o),
(213,142,o),
(327,142,cs)
);
},
{
closed = 1;
nodes = (
(290,223,l),
(220,309,l),
(49,171,l),
(120,85,l)
);
},
{
closed = 1;
nodes = (
(571,138,l),
(472,270,l),
(374,202,l),
(474,67,l)
);
},
{
closed = 1;
nodes = (
(300,254,o),
(265,277,o),
(265,327,cs),
(265,386,o),
(309,445,o),
(364,445,cs),
(399,445,o),
(435,422,o),
(435,372,cs),
(435,313,o),
(391,254,o),
(335,254,cs)
);
},
{
closed = 1;
nodes = (
(314,494,l),
(213,634,l),
(116,563,l),
(218,424,l)
);
},
{
closed = 1;
nodes = (
(659,528,l),
(586,614,l),
(417,477,l),
(488,390,l)
);
}
);
width = 650;
},
{
background = {
shapes = (
{
closed = 1;
nodes = (
(420,174,o),
(497,252,o),
(497,352,cs),
(497,450,o),
(420,528,o),
(325,528,cs),
(230,528,o),
(153,450,o),
(153,352,cs),
(153,252,o),
(230,174,o),
(325,174,cs)
);
},
{
closed = 1;
nodes = (
(240,225,l),
(204,262,l),
(100,156,l),
(136,120,l)
);
},
{
closed = 1;
nodes = (
(550,156,l),
(446,261,l),
(408,228,l),
(514,120,l)
);
},
{
closed = 1;
nodes = (
(257,224,o),
(204,280,o),
(204,352,cs),
(204,422,o),
(257,478,o),
(325,478,cs),
(392,478,o),
(446,422,o),
(446,352,cs),
(446,280,o),
(392,224,o),
(325,224,cs)
);
},
{
closed = 1;
nodes = (
(240,475,l),
(135,582,l),
(100,546,l),
(206,438,l)
);
},
{
closed = 1;
nodes = (
(550,546,l),
(514,582,l),
(411,477,l),
(445,440,l)
);
}
);
};
layerId = "CAEAD647-A533-4D72-9ACE-F5DE50C4DBD4";
shapes = (
{
closed = 1;
nodes = (
(440,174,o),
(517,252,o),
(517,352,cs),
(517,450,o),
(440,528,o),
(345,528,cs),
(250,528,o),
(173,450,o),
(173,352,cs),
(173,252,o),
(250,174,o),
(345,174,cs)
);
},
{
closed = 1;
nodes = (
(260,225,l),
(224,262,l),
(120,156,l),
(156,120,l)
);
},
{
closed = 1;
nodes = (
(570,156,l),
(466,261,l),
(428,228,l),
(534,120,l)
);
},
{
closed = 1;
nodes = (
(277,224,o),
(224,280,o),
(224,352,cs),
(224,422,o),
(277,478,o),
(345,478,cs),
(412,478,o),
(466,422,o),
(466,352,cs),
(466,280,o),
(412,224,o),
(345,224,cs)
);
},
{
closed = 1;
nodes = (
(260,475,l),
(155,582,l),
(120,546,l),
(226,438,l)
);
},
{
closed = 1;
nodes = (
(570,546,l),
(534,582,l),
(431,477,l),
(465,440,l)
);
}
);
width = 690;
},
{
associatedMasterId = "CAEAD647-A533-4D72-9ACE-F5DE50C4DBD4";
background = {
shapes = (
{
closed = 1;
nodes = (
(432,173,o),
(519,268,o),
(519,383,cs),
(519,470,o),
(463,530,o),
(374,530,cs),
(268,530,o),
(181,435,o),
(181,320,cs),
(181,233,o),
(237,173,o),
(326,173,cs)
);
},
{
closed = 1;
nodes = (
(237,222,l),
(207,263,l),
(84,162,l),
(115,122,l)
);
},
{
closed = 1;
nodes = (
(526,147,l),
(443,259,l),
(401,229,l),
(484,114,l)
);
},
{
closed = 1;
nodes = (
(270,224,o),
(235,265,o),
(235,324,cs),
(235,404,o),
(290,480,o),
(374,480,cs),
(431,480,o),
(465,439,o),
(465,379,cs),
(465,300,o),
(411,224,o),
(328,224,cs)
);
},
{
closed = 1;
nodes = (
(295,473,l),
(212,589,l),
(171,556,l),
(255,439,l)
);
},
{
closed = 1;
nodes = (
(615,537,l),
(584,577,l),
(463,478,l),
(492,437,l)
);
}
);
};
layerId = "78B02AD1-EEC2-4851-B4AA-D021C59117ED";
name = "new Layer";
shapes = (
{
closed = 1;
nodes = (
(432,173,o),
(519,268,o),
(519,383,cs),
(519,470,o),
(463,530,o),
(374,530,cs),
(268,530,o),
(181,435,o),
(181,320,cs),
(181,233,o),
(237,173,o),
(326,173,cs)
);
},
{
closed = 1;
nodes = (
(237,222,l),
(207,263,l),
(84,162,l),
(115,122,l)
);
},
{
closed = 1;
nodes = (
(526,147,l),
(443,259,l),
(401,229,l),
(484,114,l)
);
},
{
closed = 1;
nodes = (
(270,224,o),
(235,265,o),
(235,324,cs),
(235,404,o),
(290,480,o),
(374,480,cs),
(431,480,o),
(465,439,o),
(465,379,cs),
(465,300,o),
(411,224,o),
(328,224,cs)
);
},
{
closed = 1;
nodes = (
(295,473,l),
(212,589,l),
(171,556,l),
(255,439,l)
);
},
{
closed = 1;
nodes = (
(615,537,l),
(584,577,l),
(463,478,l),
(492,437,l)
);
}
);
width = 650;
},
{
associatedMasterId = "CAEAD647-A533-4D72-9ACE-F5DE50C4DBD4";
background = {
shapes = (
{
closed = 1;
nodes = (
(458,142,o),
(556,250,o),
(556,382,cs),
(556,485,o),
(487,560,o),
(373,560,cs),
(242,560,o),
(144,450,o),
(144,318,cs),
(144,216,o),
(213,142,o),
(327,142,cs)
);
},
{
closed = 1;
nodes = (
(290,223,l),
(220,309,l),
(49,171,l),
(120,85,l)
);
},
{
closed = 1;
nodes = (
(571,138,l),
(472,270,l),
(374,202,l),
(474,67,l)
);
},
{
closed = 1;
nodes = (
(300,254,o),
(265,277,o),
(265,327,cs),
(265,386,o),
(309,445,o),
(364,445,cs),
(399,445,o),
(435,422,o),
(435,372,cs),
(435,313,o),
(391,254,o),
(335,254,cs)
);
},
{
closed = 1;
nodes = (
(314,494,l),
(213,634,l),
(116,563,l),
(218,424,l)
);
},
{
closed = 1;
nodes = (
(659,528,l),
(586,614,l),
(417,477,l),
(488,390,l)
);
}
);
};
layerId = "B0E72D7B-C3E1-4504-AC1D-7792A02BB25A";
name = "new Layer";
shapes = (
{
closed = 1;
nodes = (
(458,142,o),
(556,250,o),
(556,382,cs),
(556,485,o),
(487,560,o),
(373,560,cs),
(242,560,o),
(144,450,o),
(144,318,cs),
(144,216,o),
(213,142,o),
(327,142,cs)
);
},
{
closed = 1;
nodes = (
(290,223,l),
(220,309,l),
(49,171,l),
(120,85,l)
);
},
{
closed = 1;
nodes = (
(571,138,l),
(472,270,l),
(374,202,l),
(474,67,l)
);
},
{
closed = 1;
nodes = (
(300,254,o),
(265,277,o),
(265,327,cs),
(265,386,o),
(309,445,o),
(364,445,cs),
(399,445,o),
(435,422,o),
(435,372,cs),
(435,313,o),
(391,254,o),
(335,254,cs)
);
},
{
closed = 1;
nodes = (
(314,494,l),
(213,634,l),
(116,563,l),
(218,424,l)
);
},
{
closed = 1;
nodes = (
(659,528,l),
(586,614,l),
(417,477,l),
(488,390,l)
);
}
);
width = 650;
},
{
background = {
shapes = (
{
closed = 1;
nodes = (
(437,142,o),
(528,234,o),
(528,352,cs),
(528,466,o),
(437,559,o),
(325,559,cs),
(213,559,o),
(122,466,o),
(122,352,cs),
(122,234,o),
(213,142,o),
(325,142,cs)
);
},
{
closed = 1;
nodes = (
(269,210,l),
(190,291,l),
(53,153,l),
(132,72,l)
);
},
{
closed = 1;
nodes = (
(597,153,l),
(460,290,l),
(378,212,l),
(517,72,l)
);
},
{
closed = 1;
nodes = (
(274,255,o),
(235,296,o),
(235,352,cs),
(235,404,o),
(274,445,o),
(325,445,cs),
(376,445,o),
(416,404,o),
(416,352,cs),
(416,296,o),
(376,255,o),
(325,255,cs)
);
},
{
closed = 1;
nodes = (
(270,489,l),
(133,629,l),
(53,548,l),
(191,409,l)
);
},
{
closed = 1;
nodes = (
(597,548,l),
(516,629,l),
(380,492,l),
(460,410,l)
);
}
);
};
hints = (
{
horizontal = 1;
options = 4;
origin = (0,11);
target = (3,11);
type = TTStem;
},
{
horizontal = 1;
options = 4;
origin = (0,5);
target = (3,5);
type = TTStem;
}
);
layerId = "474EAD97-6F36-4C8E-8A0A-83C4F7DF9055";
shapes = (
{
closed = 1;
nodes = (
(457,142,o),
(548,234,o),
(548,352,cs),
(548,466,o),
(457,559,o),
(345,559,cs),
(233,559,o),
(142,466,o),
(142,352,cs),
(142,234,o),
(233,142,o),
(345,142,cs)
);
},
{
closed = 1;
nodes = (
(289,210,l),
(210,291,l),
(73,153,l),
(152,72,l)
);
},
{
closed = 1;
nodes = (
(617,153,l),
(480,290,l),
(398,212,l),
(537,72,l)
);
},
{
closed = 1;
nodes = (
(294,255,o),
(255,296,o),
(255,352,cs),
(255,404,o),
(294,445,o),
(345,445,cs),
(396,445,o),
(436,404,o),
(436,352,cs),
(436,296,o),
(396,255,o),
(345,255,cs)
);
},
{
closed = 1;
nodes = (
(290,489,l),
(153,629,l),
(73,548,l),
(211,409,l)
);
},
{
closed = 1;
nodes = (
(617,548,l),
(536,629,l),
(400,492,l),
(480,410,l)
);
}
);
width = 690;
}
);
unicode = 164;
}
{
glyphname = section;
layers = (
{
background = {
shapes = (
{
closed = 1;
nodes = (
(412,-138,o),
(497,-73,o),
(497,24,cs),
(497,100,o),
(439,155,o),
(348,179,cs),
(229,210,ls),
(151,230,o),
(108,251,o),
(108,303,cs),
(108,356,o),
(148,393,o),
(201,406,c),
(149,434,l),
(84,409,o),
(38,363,o),
(38,295,cs),
(38,222,o),
(97,171,o),
(194,147,cs),
(313,118,ls),
(391,99,o),
(427,67,o),
(427,18,cs),
(427,-40,o),
(371,-76,o),
(281,-76,cs),
(191,-76,o),
(117,-24,o),
(105,73,c),
(43,54,l),
(63,-70,o),
(154,-138,o),
(281,-138,cs)
);
},
{
closed = 1;
nodes = (
(338,115,l),
(447,137,o),
(513,196,o),
(513,274,cs),
(513,350,o),
(449,403,o),
(348,429,cs),
(220,462,ls),
(163,477,o),
(129,501,o),
(129,553,cs),
(129,610,o),
(183,647,o),
(262,647,cs),
(336,647,o),
(406,607,o),
(425,515,c),
(488,535,l),
(462,649,o),
(373,709,o),
(260,709,cs),
(141,709,o),
(59,643,o),
(59,548,cs),
(59,473,o),
(108,419,o),
(184,400,cs),
(313,368,ls),
(402,346,o),
(443,317,o),
(443,268,cs),
(443,212,o),
(405,174,o),
(344,165,c)
);
}
);
};
layerId = "9CA0F1F1-C419-4983-8E88-5CF3F967428B";
shapes = (
{
closed = 1;
nodes = (
(412,-138,o),
(497,-73,o),
(497,24,cs),
(497,100,o),
(439,155,o),
(348,179,cs),
(229,210,ls),
(151,230,o),
(108,251,o),
(108,303,cs),
(108,356,o),
(148,393,o),
(201,406,c),
(149,434,l),
(84,409,o),
(38,363,o),
(38,295,cs),
(38,222,o),
(97,171,o),
(194,147,cs),
(313,118,ls),
(391,99,o),
(427,67,o),
(427,18,cs),
(427,-40,o),
(371,-76,o),
(281,-76,cs),
(191,-76,o),
(117,-24,o),
(105,73,c),
(45,54,l),
(64,-67,o),
(155,-138,o),
(281,-138,cs)
);
},
{
closed = 1;
nodes = (
(447,137,o),
(513,196,o),
(513,274,cs),
(513,350,o),
(449,403,o),
(348,429,cs),
(220,462,ls),
(163,477,o),
(129,501,o),
(129,553,cs),
(129,610,o),
(183,647,o),
(262,647,cs),
(336,647,o),
(406,607,o),
(425,515,c),
(488,535,l),
(462,649,o),
(373,709,o),
(260,709,cs),
(141,709,o),
(59,643,o),
(59,548,cs),
(59,473,o),
(108,419,o),
(184,400,cs),
(313,368,ls),
(402,346,o),
(443,317,o),
(443,268,cs),
(443,212,o),
(405,174,o),
(344,165,c),
(338,115,l)
);
}
);
width = 549;
},
{
background = {
shapes = (
{
closed = 1;
nodes = (
(445,-137,o),
(540,-59,o),
(540,47,cs),
(540,145,o),
(477,199,o),
(350,228,cs),
(293,241,ls),
(230,255,o),
(187,259,o),
(187,298,cs),
(187,333,o),
(218,357,o),
(275,359,c),
(219,436,l),
(112,420,o),
(43,362,o),
(43,270,cs),
(43,194,o),
(99,130,o),
(231,106,cs),
(289,95,ls),
(358,82,o),
(395,68,o),
(395,37,cs),
(395,6,o),
(356,-15,o),
(294,-15,cs),
(220,-15,o),
(161,18,o),
(145,86,c),
(25,35,l),
(72,-96,o),
(185,-137,o),
(294,-137,cs)
);
},
{
closed = 1;
nodes = (
(359,138,l),
(479,157,o),
(551,217,o),
(551,304,cs),
(551,391,o),
(485,444,o),
(350,473,cs),
(293,486,ls),
(242,500,o),
(207,504,o),
(207,541,cs),
(207,572,o),
(236,591,o),
(290,591,cs),
(356,591,o),
(402,557,o),
(418,492,c),
(534,540,l),
(502,654,o),
(403,713,o),
(289,713,cs),
(154,713,o),
(60,639,o),
(60,532,cs),
(60,438,o),
(111,375,o),
(231,351,cs),
(289,340,ls),
(366,327,o),
(406,313,o),
(406,282,cs),
(406,245,o),
(364,218,o),
(297,215,c)
);
}
);
};
hints = (
{
horizontal = 1;
options = 4;
origin = (1,19);
target = (1,12);
type = TTStem;
},
{
horizontal = 1;
options = 4;
origin = (0,33);
target = (0,26);
type = TTStem;
},
{
horizontal = 1;
options = 4;
origin = (1,19);
other1 = (0,5,1,32);
target = (0,26);
type = TTInterpolate;
},
{
horizontal = 1;
options = 4;
origin = (1,12);
other1 = (0,19);
target = (0,33);
type = TTInterpolate;
},
{
horizontal = 1;
options = 4;
origin = (1,19);
other1 = (1,5);
target = (0,26);
type = TTInterpolate;
},
{
horizontal = 1;
options = 4;
origin = (1,12);
other1 = (1,25);
target = (0,33);
type = TTInterpolate;
},
{
horizontal = 1;
options = 4;
origin = (0,26);
other1 = (0,29);
target = (0,19);
type = TTInterpolate;
},
{
horizontal = 1;
options = 4;
origin = (1,12);
other1 = (1,15);
target = (1,5);
type = TTInterpolate;
}
);
layerId = "5500A485-9BC9-4FA7-853B-8075021C5598";
shapes = (
{
closed = 1;
nodes = (
(445,-137,o),
(540,-59,o),
(540,47,cs),
(540,145,o),
(477,199,o),
(350,228,cs),
(293,241,ls),
(230,255,o),
(187,259,o),
(187,298,cs),
(187,333,o),
(218,357,o),
(275,359,c),
(219,436,l),
(112,420,o),
(43,362,o),
(43,270,cs),
(43,194,o),
(99,130,o),
(231,106,cs),
(289,95,ls),
(358,82,o),
(395,68,o),
(395,37,cs),
(395,6,o),
(356,-15,o),
(294,-15,cs),
(220,-15,o),
(161,18,o),
(145,86,c),
(25,35,l),
(72,-96,o),
(185,-137,o),
(294,-137,cs)
);
},
{
closed = 1;
nodes = (
(479,157,o),
(551,217,o),
(551,304,cs),
(551,391,o),
(485,444,o),
(350,473,cs),
(293,486,ls),
(242,500,o),
(207,504,o),
(207,541,cs),
(207,572,o),
(236,591,o),
(290,591,cs),
(356,591,o),
(402,557,o),
(418,492,c),
(534,540,l),
(502,654,o),
(403,713,o),
(289,713,cs),
(154,713,o),
(60,639,o),
(60,532,cs),
(60,438,o),
(111,375,o),
(231,351,cs),
(289,340,ls),
(366,327,o),
(406,313,o),
(406,282,cs),
(406,245,o),
(364,218,o),
(297,215,c),
(359,138,l)
);
}
);
width = 584;
},
{
associatedMasterId = "9CA0F1F1-C419-4983-8E88-5CF3F967428B";
background = {
shapes = (
{
closed = 1;
nodes = (
(333,-138,o),
(439,-79,o),
(439,37,cs),
(439,102,o),
(393,162,o),
(322,183,cs),
(215,214,ls),
(153,232,o),
(123,254,o),
(123,291,cs),
(123,350,o),
(172,390,o),
(241,406,c),
(197,437,l),
(118,410,o),
(52,369,o),
(52,284,cs),
(52,225,o),
(95,176,o),
(172,155,cs),
(280,126,ls),
(340,110,o),
(368,73,o),
(368,29,cs),
(368,-32,o),
(317,-77,o),
(229,-77,cs),
(129,-77,o),
(67,-19,o),
(60,71,c),
(-7,65,l),
(-4,-60,o),
(94,-138,o),
(225,-138,cs)
);
},
{
closed = 1;
nodes = (
(320,119,l),
(424,136,o),
(512,190,o),
(512,286,cs),
(512,348,o),
(465,398,o),
(385,421,cs),
(269,454,ls),
(230,465,o),
(201,496,o),
(201,537,cs),
(201,609,o),
(269,648,o),
(338,648,cs),
(410,648,o),
(476,606,o),
(483,516,c),
(550,524,l),
(540,649,o),
(445,709,o),
(342,709,cs),
(236,709,o),
(130,647,o),
(130,531,cs),
(130,470,o),
(169,412,o),
(228,396,cs),
(344,364,ls),
(405,347,o),
(441,321,o),
(441,279,cs),
(441,217,o),
(391,176,o),
(317,165,c)
);
}
);
};
layerId = "B8B1B9F7-57AD-40F6-8824-2C22876E3A5C";
name = "new Layer";
shapes = (
{
closed = 1;
nodes = (
(333,-138,o),
(439,-79,o),
(439,37,cs),
(439,102,o),
(393,162,o),
(322,183,cs),
(215,214,ls),
(153,232,o),
(123,254,o),
(123,291,cs),
(123,350,o),
(172,390,o),
(241,406,c),
(197,437,l),
(118,410,o),
(52,369,o),
(52,284,cs),
(52,225,o),
(95,176,o),
(172,155,cs),
(280,126,ls),
(340,110,o),
(368,73,o),
(368,29,cs),
(368,-32,o),
(317,-77,o),
(229,-77,cs),
(129,-77,o),
(67,-19,o),
(60,71,c),
(-7,65,l),
(-4,-60,o),
(94,-138,o),
(225,-138,cs)
);
},
{
closed = 1;
nodes = (
(424,136,o),
(512,190,o),
(512,286,cs),
(512,348,o),
(465,398,o),
(385,421,cs),
(269,454,ls),
(230,465,o),
(201,496,o),
(201,537,cs),
(201,609,o),
(269,648,o),
(338,648,cs),
(410,648,o),
(476,606,o),
(483,516,c),
(550,524,l),
(540,649,o),
(445,709,o),
(342,709,cs),
(236,709,o),
(130,647,o),
(130,531,cs),
(130,470,o),
(169,412,o),
(228,396,cs),
(344,364,ls),
(405,347,o),
(441,321,o),
(441,279,cs),
(441,217,o),
(391,176,o),
(317,165,c),
(320,119,l)
);
}
);
width = 547;
},
{
associatedMasterId = "9CA0F1F1-C419-4983-8E88-5CF3F967428B";
background = {
shapes = (
{
closed = 1;
nodes = (
(373,-137,o),
(482,-68,o),
(482,53,cs),
(482,140,o),
(425,190,o),
(336,219,cs),
(293,233,ls),
(239,251,o),
(197,265,o),
(197,301,cs),
(197,340,o),
(246,358,o),
(318,361,c),
(261,438,l),
(149,422,o),
(43,381,o),
(43,266,cs),
(43,201,o),
(82,154,o),
(177,122,cs),
(245,99,ls),
(302,80,o),
(329,68,o),
(329,37,cs),
(329,6,o),
(298,-15,o),
(243,-15,cs),
(154,-15,o),
(121,23,o),
(110,81,c),
(-22,57,l),
(-13,-57,o),
(93,-137,o),
(244,-137,cs)
);
},
{
closed = 1;
nodes = (
(331,138,l),
(442,154,o),
(549,194,o),
(549,305,cs),
(549,373,o),
(512,421,o),
(415,454,cs),
(347,477,ls),
(293,495,o),
(266,508,o),
(266,539,cs),
(266,570,o),
(296,591,o),
(349,591,cs),
(420,591,o),
(452,555,o),
(460,500,c),
(583,522,l),
(575,635,o),
(479,713,o),
(348,713,cs),
(222,713,o),
(116,644,o),
(116,523,cs),
(116,436,o),
(170,385,o),
(256,357,cs),
(299,343,ls),
(353,325,o),
(395,311,o),
(395,275,cs),
(395,236,o),
(346,218,o),
(274,215,c)
);
}
);
};
layerId = "2275FDE9-41F5-43D3-856B-3453FC30E713";
name = "new Layer";
shapes = (
{
closed = 1;
nodes = (
(373,-137,o),
(482,-68,o),
(482,53,cs),
(482,140,o),
(425,190,o),
(336,219,cs),
(293,233,ls),
(239,251,o),
(197,265,o),
(197,301,cs),
(197,340,o),
(246,358,o),
(318,361,c),
(261,438,l),
(149,422,o),
(43,381,o),
(43,266,cs),
(43,201,o),
(82,154,o),
(177,122,cs),
(245,99,ls),
(302,80,o),
(329,68,o),
(329,37,cs),
(329,6,o),
(298,-15,o),
(243,-15,cs),
(154,-15,o),
(121,23,o),
(110,81,c),
(-22,57,l),
(-13,-57,o),
(93,-137,o),
(244,-137,cs)
);
},
{
closed = 1;
nodes = (
(442,154,o),
(549,194,o),
(549,305,cs),
(549,373,o),
(512,421,o),
(415,454,cs),
(347,477,ls),
(293,495,o),
(266,508,o),
(266,539,cs),
(266,570,o),
(296,591,o),
(349,591,cs),
(420,591,o),
(452,555,o),
(460,500,c),
(583,522,l),
(575,635,o),
(479,713,o),
(348,713,cs),
(222,713,o),
(116,644,o),
(116,523,cs),
(116,436,o),
(170,385,o),
(256,357,cs),
(299,343,ls),
(353,325,o),
(395,311,o),
(395,275,cs),
(395,236,o),
(346,218,o),
(274,215,c),
(331,138,l)
);
}
);
width = 579;
},
{
background = {
shapes = (
{
closed = 1;
nodes = (
(409,-138,o),
(494,-73,o),
(494,24,cs),
(494,100,o),
(436,155,o),
(345,179,cs),
(226,210,ls),
(148,230,o),
(105,251,o),
(105,303,cs),
(105,356,o),
(145,393,o),
(198,406,c),
(146,434,l),
(81,409,o),
(35,363,o),
(35,295,cs),
(35,222,o),
(94,171,o),
(191,147,cs),
(310,118,ls),
(388,99,o),
(424,67,o),
(424,18,cs),
(424,-40,o),
(368,-76,o),
(273,-76,cs),
(202,-76,o),
(131,-40,o),
(106,28,c),
(47,-3,l),
(78,-91,o),
(171,-138,o),
(273,-138,cs)
);
},
{
closed = 1;
nodes = (
(335,115,l),
(444,137,o),
(510,196,o),
(510,274,cs),
(510,350,o),
(446,403,o),
(345,429,cs),
(217,462,ls),
(160,477,o),
(126,501,o),
(126,553,cs),
(126,610,o),
(180,647,o),
(264,647,cs),
(323,647,o),
(387,618,o),
(417,553,c),
(477,585,l),
(440,666,o),
(353,709,o),
(262,709,cs),
(138,709,o),
(56,643,o),
(56,548,cs),
(56,473,o),
(105,419,o),
(181,400,cs),
(310,368,ls),
(399,346,o),
(440,317,o),
(440,268,cs),
(440,212,o),
(402,174,o),
(341,165,c)
);
}
);
};
layerId = "CAEAD647-A533-4D72-9ACE-F5DE50C4DBD4";
shapes = (
{
closed = 1;
nodes = (
(429,-138,o),
(514,-73,o),
(514,24,cs),
(514,100,o),
(456,155,o),
(365,179,cs),
(246,210,ls),
(168,230,o),
(125,251,o),
(125,303,cs),
(125,356,o),
(165,393,o),
(218,406,c),
(166,434,l),
(101,409,o),
(55,363,o),
(55,295,cs),
(55,222,o),
(114,171,o),
(211,147,cs),
(330,118,ls),
(408,99,o),
(444,67,o),
(444,18,cs),
(444,-40,o),
(388,-76,o),
(293,-76,cs),
(222,-76,o),
(151,-40,o),
(126,28,c),
(67,-3,l),
(98,-91,o),
(191,-138,o),
(293,-138,cs)
);
},
{
closed = 1;
nodes = (
(464,137,o),
(530,196,o),
(530,274,cs),
(530,350,o),
(466,403,o),
(365,429,cs),
(237,462,ls),
(180,477,o),
(146,501,o),
(146,553,cs),
(146,610,o),
(200,647,o),
(284,647,cs),
(343,647,o),
(407,618,o),
(437,553,c),
(497,585,l),
(460,666,o),
(373,709,o),
(282,709,cs),
(158,709,o),
(76,643,o),
(76,548,cs),
(76,473,o),
(125,419,o),
(201,400,cs),
(330,368,ls),
(419,346,o),
(460,317,o),
(460,268,cs),
(460,212,o),
(422,174,o),
(361,165,c),
(355,115,l)
);
}
);
width = 581;
},
{
associatedMasterId = "CAEAD647-A533-4D72-9ACE-F5DE50C4DBD4";
background = {
shapes = (
{
closed = 1;
nodes = (
(328,-138,o),
(434,-79,o),
(434,37,cs),
(434,102,o),
(388,162,o),
(317,183,cs),
(210,214,ls),
(148,232,o),
(118,254,o),
(118,291,cs),
(118,350,o),
(167,390,o),
(236,406,c),
(192,437,l),
(113,410,o),
(47,369,o),
(47,284,cs),
(47,225,o),
(90,176,o),
(167,155,cs),
(275,126,ls),
(335,110,o),
(363,73,o),
(363,29,cs),
(363,-32,o),
(312,-77,o),
(224,-77,cs),
(139,-77,o),
(81,-35,o),
(62,33,c),
(4,5,l),
(31,-85,o),
(115,-138,o),
(220,-138,cs)
);
},
{
closed = 1;
nodes = (
(315,119,l),
(419,136,o),
(507,190,o),
(507,286,cs),
(507,348,o),
(460,398,o),
(380,421,cs),
(264,454,ls),
(225,465,o),
(196,496,o),
(196,537,cs),
(196,609,o),
(264,648,o),
(333,648,cs),
(396,648,o),
(454,618,o),
(478,554,c),
(534,580,l),
(504,667,o),
(423,709,o),
(337,709,cs),
(231,709,o),
(125,647,o),
(125,531,cs),
(125,470,o),
(164,412,o),
(223,396,cs),
(339,364,ls),
(400,347,o),
(436,321,o),
(436,279,cs),
(436,217,o),
(386,176,o),
(312,165,c)
);
}
);
};
color = 5;
layerId = "B8B43398-4DD9-40F4-83A8-C1A39B8BE4EF";
name = "new Layer";
shapes = (
{
closed = 1;
nodes = (
(328,-138,o),
(434,-79,o),
(434,37,cs),
(434,102,o),
(388,162,o),
(317,183,cs),
(210,214,ls),
(148,232,o),
(118,254,o),
(118,291,cs),
(118,350,o),
(167,390,o),
(236,406,c),
(192,437,l),
(113,410,o),
(47,369,o),
(47,284,cs),
(47,225,o),
(90,176,o),
(167,155,cs),
(275,126,ls),
(335,110,o),
(363,73,o),
(363,29,cs),
(363,-32,o),
(312,-77,o),
(224,-77,cs),
(139,-77,o),
(81,-35,o),
(62,33,c),
(4,5,l),
(31,-85,o),
(115,-138,o),
(220,-138,cs)
);
},
{
closed = 1;
nodes = (
(419,136,o),
(507,190,o),
(507,286,cs),
(507,348,o),
(460,398,o),
(380,421,cs),
(264,454,ls),
(225,465,o),
(196,496,o),
(196,537,cs),
(196,609,o),
(264,648,o),
(333,648,cs),
(396,648,o),
(454,618,o),
(478,554,c),
(534,580,l),
(504,667,o),
(423,709,o),
(337,709,cs),
(231,709,o),
(125,647,o),
(125,531,cs),
(125,470,o),
(164,412,o),
(223,396,cs),
(339,364,ls),
(400,347,o),
(436,321,o),
(436,279,cs),
(436,217,o),
(386,176,o),
(312,165,c),
(315,119,l)
);
}
);
width = 540;
},
{
associatedMasterId = "CAEAD647-A533-4D72-9ACE-F5DE50C4DBD4";
background = {
shapes = (
{
closed = 1;
nodes = (
(366,-137,o),
(475,-68,o),
(475,53,cs),
(475,140,o),
(418,190,o),
(329,219,cs),
(286,233,ls),
(232,251,o),
(190,265,o),
(190,301,cs),
(190,340,o),
(239,358,o),
(311,361,c),
(254,438,l),
(142,422,o),
(36,381,o),
(36,266,cs),
(36,201,o),
(75,154,o),
(170,122,cs),
(238,99,ls),
(295,80,o),
(322,68,o),
(322,37,cs),
(322,6,o),
(291,-15,o),
(236,-15,cs),
(162,-15,o),
(127,12,o),
(111,54,c),
(-7,-2,l),
(27,-84,o),
(117,-137,o),
(237,-137,cs)
);
},
{
closed = 1;
nodes = (
(324,138,l),
(435,154,o),
(542,194,o),
(542,305,cs),
(542,373,o),
(505,421,o),
(408,454,cs),
(340,477,ls),
(286,495,o),
(259,508,o),
(259,539,cs),
(259,570,o),
(289,591,o),
(342,591,cs),
(403,591,o),
(436,564,o),
(448,521,c),
(568,566,l),
(542,655,o),
(454,713,o),
(341,713,cs),
(215,713,o),
(109,644,o),
(109,523,cs),
(109,436,o),
(163,385,o),
(249,357,cs),
(292,343,ls),
(346,325,o),
(388,311,o),
(388,275,cs),
(388,236,o),
(339,218,o),
(267,215,c)
);
}
);
};
layerId = "BB03CB84-914D-414B-A51A-F2F8F612A5B9";
name = "new Layer";
shapes = (
{
closed = 1;
nodes = (
(366,-137,o),
(475,-68,o),
(475,53,cs),
(475,140,o),
(418,190,o),
(329,219,cs),
(286,233,ls),
(232,251,o),
(190,265,o),
(190,301,cs),
(190,340,o),
(239,358,o),
(311,361,c),
(254,438,l),
(142,422,o),
(36,381,o),
(36,266,cs),
(36,201,o),
(75,154,o),
(170,122,cs),
(238,99,ls),
(295,80,o),
(322,68,o),
(322,37,cs),
(322,6,o),
(291,-15,o),
(236,-15,cs),
(162,-15,o),
(127,12,o),
(111,54,c),
(-7,-2,l),
(27,-84,o),
(117,-137,o),
(237,-137,cs)
);
},
{
closed = 1;
nodes = (
(435,154,o),
(542,194,o),
(542,305,cs),
(542,373,o),
(505,421,o),
(408,454,cs),
(340,477,ls),
(286,495,o),
(259,508,o),
(259,539,cs),
(259,570,o),
(289,591,o),
(342,591,cs),
(403,591,o),
(436,564,o),
(448,521,c),
(568,566,l),
(542,655,o),
(454,713,o),
(341,713,cs),
(215,713,o),
(109,644,o),
(109,523,cs),
(109,436,o),
(163,385,o),
(249,357,cs),
(292,343,ls),
(346,325,o),
(388,311,o),
(388,275,cs),
(388,236,o),
(339,218,o),
(267,215,c),
(324,138,l)
);
}
);
width = 570;
},
{
background = {
shapes = (
{
closed = 1;
nodes = (
(430,-137,o),
(535,-59,o),
(535,47,cs),
(535,145,o),
(472,199,o),
(345,228,cs),
(288,241,ls),
(225,255,o),
(182,259,o),
(182,298,cs),
(182,333,o),
(213,357,o),
(270,359,c),
(214,436,l),
(107,420,o),
(38,362,o),
(38,270,cs),
(38,194,o),
(94,130,o),
(226,106,cs),
(284,95,ls),
(353,82,o),
(390,68,o),
(390,37,cs),
(390,6,o),
(341,-15,o),
(284,-15,cs),
(213,-15,o),
(159,7,o),
(133,53,c),
(26,-11,l),
(79,-106,o),
(177,-137,o),
(284,-137,cs)
);
},
{
closed = 1;
nodes = (
(354,138,l),
(474,157,o),
(546,217,o),
(546,304,cs),
(546,391,o),
(480,444,o),
(345,473,cs),
(288,486,ls),
(237,500,o),
(202,504,o),
(202,541,cs),
(202,572,o),
(241,591,o),
(290,591,cs),
(367,591,o),
(407,568,o),
(426,524,c),
(526,592,l),
(488,672,o),
(409,713,o),
(289,713,cs),
(159,713,o),
(55,639,o),
(55,532,cs),
(55,438,o),
(106,375,o),
(226,351,cs),
(284,340,ls),
(361,327,o),
(401,313,o),
(401,282,cs),
(401,245,o),
(359,218,o),
(292,215,c)
);
}
);
};
hints = (
{
horizontal = 1;
options = 4;
origin = (0,26);
other1 = (0,29);
target = (0,19);
type = TTInterpolate;
},
{
horizontal = 1;
options = 4;
origin = (0,33);
target = (0,26);
type = TTStem;
},
{
horizontal = 1;
options = 4;
origin = (1,12);
other1 = (0,19);
target = (0,33);
type = TTInterpolate;
},
{
horizontal = 1;
options = 4;
origin = (1,12);
other1 = (1,25);
target = (0,33);
type = TTInterpolate;
},
{
horizontal = 1;
options = 4;
origin = (1,12);
other1 = (1,15);
target = (1,5);
type = TTInterpolate;
},
{
horizontal = 1;
options = 4;
origin = (1,19);
target = (1,12);
type = TTStem;
},
{
horizontal = 1;
options = 4;
origin = (1,19);
other1 = (0,5,1,32);
target = (0,26);
type = TTInterpolate;
},
{
horizontal = 1;
options = 4;
origin = (1,19);
other1 = (1,5);
target = (0,26);
type = TTInterpolate;
}
);
layerId = "474EAD97-6F36-4C8E-8A0A-83C4F7DF9055";
shapes = (
{
closed = 1;
nodes = (
(450,-137,o),
(555,-59,o),
(555,47,cs),
(555,145,o),
(492,199,o),
(365,228,cs),
(308,241,ls),
(245,255,o),
(202,259,o),
(202,298,cs),
(202,333,o),
(233,357,o),
(290,359,c),
(234,436,l),
(127,420,o),
(58,362,o),
(58,270,cs),
(58,194,o),
(114,130,o),
(246,106,cs),
(304,95,ls),
(373,82,o),
(410,68,o),
(410,37,cs),
(410,6,o),
(361,-15,o),
(304,-15,cs),
(233,-15,o),
(179,7,o),
(153,53,c),
(46,-11,l),
(99,-106,o),
(197,-137,o),
(304,-137,cs)
);
},
{
closed = 1;
nodes = (
(494,157,o),
(566,217,o),
(566,304,cs),
(566,391,o),
(500,444,o),
(365,473,cs),
(308,486,ls),
(257,500,o),
(222,504,o),
(222,541,cs),
(222,572,o),
(261,591,o),
(310,591,cs),
(387,591,o),
(427,568,o),
(446,524,c),
(546,592,l),
(508,672,o),
(429,713,o),
(309,713,cs),
(179,713,o),
(75,639,o),
(75,532,cs),
(75,438,o),
(126,375,o),
(246,351,cs),
(304,340,ls),
(381,327,o),
(421,313,o),
(421,282,cs),
(421,245,o),
(379,218,o),
(312,215,c),
(374,138,l)
);
}
);
width = 618;
}
);
note = "leicht optimiert";
unicode = 167;
}
{
glyphname = copyright;
kernLeft = copyright;
kernRight = copyright;
layers = (
{
background = {
shapes = (
{
closed = 1;
nodes = (
(210,751,o),
(34,581,o),
(34,353,cs),
(34,125,o),
(210,-46,o),
(428,-46,cs),
(646,-46,o),
(823,125,o),
(823,353,cs),
(823,581,o),
(646,751,o),
(428,751,cs)
);
},
{
closed = 1;
nodes = (
(617,699,o),
(769,553,o),
(769,352,cs),
(769,153,o),
(617,6,o),
(428,6,cs),
(239,6,o),
(88,153,o),
(88,352,cs),
(88,553,o),
(239,699,o),
(428,699,cs)
);
},
{
closed = 1;
nodes = (
(525,142,o),
(594,189,o),
(623,270,c),
(570,291,l),
(548,231,o),
(499,195,o),
(436,195,cs),
(352,195,o),
(290,257,o),
(290,358,cs),
(290,459,o),
(352,521,o),
(436,521,cs),
(499,521,o),
(548,485,o),
(570,425,c),
(623,446,l),
(594,527,o),
(525,574,o),
(436,574,cs),
(316,574,o),
(230,486,o),
(230,358,cs),
(230,230,o),
(316,142,o),
(436,142,cs)
);
}
);
};
layerId = "9CA0F1F1-C419-4983-8E88-5CF3F967428B";
shapes = (
{
closed = 1;
nodes = (
(210,751,o),
(34,581,o),
(34,353,cs),
(34,125,o),
(210,-46,o),
(428,-46,cs),
(646,-46,o),
(823,125,o),
(823,353,cs),
(823,581,o),
(646,751,o),
(428,751,cs)
);
},
{
closed = 1;
nodes = (
(617,699,o),
(769,553,o),
(769,352,cs),
(769,153,o),
(617,6,o),
(428,6,cs),
(239,6,o),
(88,153,o),
(88,352,cs),
(88,553,o),
(239,699,o),
(428,699,cs)
);
},
{
closed = 1;
nodes = (
(525,142,o),
(594,189,o),
(623,270,c),
(570,291,l),
(548,231,o),
(499,195,o),
(436,195,cs),
(352,195,o),
(290,257,o),
(290,358,cs),
(290,459,o),
(352,521,o),
(436,521,cs),
(499,521,o),
(548,485,o),
(570,425,c),
(623,446,l),
(594,527,o),
(525,574,o),
(436,574,cs),
(316,574,o),
(230,486,o),
(230,358,cs),
(230,230,o),
(316,142,o),
(436,142,cs)
);
}
);
width = 858;
},
{
background = {
shapes = (
{
closed = 1;
nodes = (
(210,758,o),
(28,585,o),
(28,356,cs),
(28,127,o),
(210,-48,o),
(436,-48,cs),
(662,-48,o),
(845,127,o),
(845,356,cs),
(845,585,o),
(662,758,o),
(436,758,cs)
);
},
{
closed = 1;
nodes = (
(599,651,o),
(731,527,o),
(731,356,cs),
(731,185,o),
(599,59,o),
(435,59,cs),
(273,59,o),
(141,185,o),
(141,356,cs),
(141,527,o),
(273,651,o),
(435,651,cs)
);
},
{
closed = 1;
nodes = (
(538,136,o),
(611,184,o),
(636,279,c),
(530,315,l),
(515,270,o),
(486,241,o),
(444,241,cs),
(388,241,o),
(350,283,o),
(350,355,cs),
(350,427,o),
(388,469,o),
(444,469,cs),
(486,469,o),
(515,440,o),
(530,395,c),
(636,431,l),
(611,526,o),
(538,574,o),
(444,574,cs),
(317,574,o),
(228,485,o),
(228,355,cs),
(228,225,o),
(317,136,o),
(444,136,cs)
);
}
);
};
hints = (
{
horizontal = 1;
options = 4;
origin = (0,5);
target = (1,5);
type = TTStem;
},
{
horizontal = 1;
options = 4;
origin = (0,11);
target = (1,11);
type = TTStem;
},
{
horizontal = 1;
options = 4;
origin = (1,5);
other1 = (2,19);
target = (1,11);
type = TTInterpolate;
},
{
horizontal = 1;
options = 8;
origin = (2,19);
target = (2,12);
type = TTStem;
},
{
horizontal = 1;
options = 4;
origin = (1,5);
other1 = (2,25);
target = (2,12);
type = TTInterpolate;
},
{
horizontal = 1;
options = 8;
origin = (2,25);
target = (2,6);
type = TTStem;
},
{
horizontal = 1;
options = 4;
origin = (2,12);
other1 = (2,15);
target = (2,6);
type = TTInterpolate;
},
{
horizontal = 1;
options = 4;
origin = (2,12);
other1 = (2,3);
target = (2,6);
type = TTInterpolate;
}
);
layerId = "5500A485-9BC9-4FA7-853B-8075021C5598";
shapes = (
{
closed = 1;
nodes = (
(210,758,o),
(28,585,o),
(28,356,cs),
(28,127,o),
(210,-48,o),
(436,-48,cs),
(662,-48,o),
(845,127,o),
(845,356,cs),
(845,585,o),
(662,758,o),
(436,758,cs)
);
},
{
closed = 1;
nodes = (
(599,651,o),
(731,527,o),
(731,356,cs),
(731,185,o),
(599,59,o),
(435,59,cs),
(273,59,o),
(141,185,o),
(141,356,cs),
(141,527,o),
(273,651,o),
(435,651,cs)
);
},
{
closed = 1;
nodes = (
(538,136,o),
(611,184,o),
(636,279,c),
(530,315,l),
(515,270,o),
(486,241,o),
(444,241,cs),
(388,241,o),
(350,283,o),
(350,355,cs),
(350,427,o),
(388,469,o),
(444,469,cs),
(486,469,o),
(515,440,o),
(530,395,c),
(636,431,l),
(611,526,o),
(538,574,o),
(444,574,cs),
(317,574,o),
(228,485,o),
(228,355,cs),
(228,225,o),
(317,136,o),
(444,136,cs)
);
}
);
width = 873;
},
{
associatedMasterId = "9CA0F1F1-C419-4983-8E88-5CF3F967428B";
background = {
shapes = (
{
closed = 1;
nodes = (
(250,751,o),
(74,581,o),
(74,353,cs),
(74,125,o),
(250,-46,o),
(468,-46,cs),
(686,-46,o),
(863,125,o),
(863,353,cs),
(863,581,o),
(686,751,o),
(468,751,cs)
);
},
{
closed = 1;
nodes = (
(657,699,o),
(809,553,o),
(809,352,cs),
(809,153,o),
(657,6,o),
(468,6,cs),
(279,6,o),
(128,153,o),
(128,352,cs),
(128,553,o),
(279,699,o),
(468,699,cs)
);
},
{
closed = 1;
nodes = (
(565,142,o),
(634,189,o),
(663,270,c),
(610,291,l),
(588,231,o),
(539,195,o),
(476,195,cs),
(392,195,o),
(330,257,o),
(330,358,cs),
(330,459,o),
(392,521,o),
(476,521,cs),
(539,521,o),
(588,485,o),
(610,425,c),
(663,446,l),
(634,527,o),
(565,574,o),
(476,574,cs),
(356,574,o),
(270,486,o),
(270,358,cs),
(270,230,o),
(356,142,o),
(476,142,cs)
);
}
);
};
layerId = "B8B1B9F7-57AD-40F6-8824-2C22876E3A5C";
name = "new Layer";
shapes = (
{
closed = 1;
nodes = (
(250,751,o),
(74,581,o),
(74,353,cs),
(74,125,o),
(250,-46,o),
(468,-46,cs),
(686,-46,o),
(863,125,o),
(863,353,cs),
(863,581,o),
(686,751,o),
(468,751,cs)
);
},
{
closed = 1;
nodes = (
(657,699,o),
(809,553,o),
(809,352,cs),
(809,153,o),
(657,6,o),
(468,6,cs),
(279,6,o),
(128,153,o),
(128,352,cs),
(128,553,o),
(279,699,o),
(468,699,cs)
);
},
{
closed = 1;
nodes = (
(565,142,o),
(634,189,o),
(663,270,c),
(610,291,l),
(588,231,o),
(539,195,o),
(476,195,cs),
(392,195,o),
(330,257,o),
(330,358,cs),
(330,459,o),
(392,521,o),
(476,521,cs),
(539,521,o),
(588,485,o),
(610,425,c),
(663,446,l),
(634,527,o),
(565,574,o),
(476,574,cs),
(356,574,o),
(270,486,o),
(270,358,cs),
(270,230,o),
(356,142,o),
(476,142,cs)
);
}
);
width = 889;
},
{
associatedMasterId = "9CA0F1F1-C419-4983-8E88-5CF3F967428B";
background = {
shapes = (
{
closed = 1;
nodes = (
(250,758,o),
(68,585,o),
(68,356,cs),
(68,127,o),
(250,-48,o),
(476,-48,cs),
(702,-48,o),
(885,127,o),
(885,356,cs),
(885,585,o),
(702,758,o),
(476,758,cs)
);
},
{
closed = 1;
nodes = (
(639,651,o),
(771,527,o),
(771,356,cs),
(771,185,o),
(639,59,o),
(475,59,cs),
(313,59,o),
(181,185,o),
(181,356,cs),
(181,527,o),
(313,651,o),
(475,651,cs)
);
},
{
closed = 1;
nodes = (
(578,136,o),
(651,184,o),
(676,279,c),
(570,315,l),
(555,270,o),
(526,241,o),
(484,241,cs),
(428,241,o),
(390,283,o),
(390,355,cs),
(390,427,o),
(428,469,o),
(484,469,cs),
(526,469,o),
(555,440,o),
(570,395,c),
(676,431,l),
(651,526,o),
(578,574,o),
(484,574,cs),
(357,574,o),
(268,485,o),
(268,355,cs),
(268,225,o),
(357,136,o),
(484,136,cs)
);
}
);
};
layerId = "2275FDE9-41F5-43D3-856B-3453FC30E713";
name = "new Layer";
shapes = (
{
closed = 1;
nodes = (
(250,758,o),
(68,585,o),
(68,356,cs),
(68,127,o),
(250,-48,o),
(476,-48,cs),
(702,-48,o),
(885,127,o),
(885,356,cs),
(885,585,o),
(702,758,o),
(476,758,cs)
);
},
{
closed = 1;
nodes = (
(639,651,o),
(771,527,o),
(771,356,cs),
(771,185,o),
(639,59,o),
(475,59,cs),
(313,59,o),
(181,185,o),
(181,356,cs),
(181,527,o),
(313,651,o),
(475,651,cs)
);
},
{
closed = 1;
nodes = (
(578,136,o),
(651,184,o),
(676,279,c),
(570,315,l),
(555,270,o),
(526,241,o),
(484,241,cs),
(428,241,o),
(390,283,o),
(390,355,cs),
(390,427,o),
(428,469,o),
(484,469,cs),
(526,469,o),
(555,440,o),
(570,395,c),
(676,431,l),
(651,526,o),
(578,574,o),
(484,574,cs),
(357,574,o),
(268,485,o),
(268,355,cs),
(268,225,o),
(357,136,o),
(484,136,cs)
);
}
);
width = 910;
},
{
background = {
shapes = (
{
closed = 1;
nodes = (
(210,751,o),
(34,581,o),
(34,353,cs),
(34,125,o),
(210,-46,o),
(428,-46,cs),
(646,-46,o),
(823,125,o),
(823,353,cs),
(823,581,o),
(646,751,o),
(428,751,cs)
);
},
{
closed = 1;
nodes = (
(617,699,o),
(769,553,o),
(769,352,cs),
(769,153,o),
(617,6,o),
(428,6,cs),
(239,6,o),
(88,153,o),
(88,352,cs),
(88,553,o),
(239,699,o),
(428,699,cs)
);
},
{
closed = 1;
nodes = (
(509,142,o),
(574,174,o),
(612,230,c),
(565,263,l),
(537,220,o),
(488,195,o),
(436,195,cs),
(352,195,o),
(290,257,o),
(290,358,cs),
(290,459,o),
(352,521,o),
(436,521,cs),
(488,521,o),
(537,496,o),
(565,453,c),
(612,486,l),
(574,542,o),
(509,574,o),
(436,574,cs),
(316,574,o),
(230,486,o),
(230,358,cs),
(230,230,o),
(316,142,o),
(436,142,cs)
);
}
);
};
layerId = "CAEAD647-A533-4D72-9ACE-F5DE50C4DBD4";
shapes = (
{
closed = 1;
nodes = (
(230,751,o),
(54,581,o),
(54,353,cs),
(54,125,o),
(230,-46,o),
(448,-46,cs),
(666,-46,o),
(843,125,o),
(843,353,cs),
(843,581,o),
(666,751,o),
(448,751,cs)
);
},
{
closed = 1;
nodes = (
(637,699,o),
(789,553,o),
(789,352,cs),
(789,153,o),
(637,6,o),
(448,6,cs),
(259,6,o),
(108,153,o),
(108,352,cs),
(108,553,o),
(259,699,o),
(448,699,cs)
);
},
{
closed = 1;
nodes = (
(529,142,o),
(594,174,o),
(632,230,c),
(585,263,l),
(557,220,o),
(508,195,o),
(456,195,cs),
(372,195,o),
(310,257,o),
(310,358,cs),
(310,459,o),
(372,521,o),
(456,521,cs),
(508,521,o),
(557,496,o),
(585,453,c),
(632,486,l),
(594,542,o),
(529,574,o),
(456,574,cs),
(336,574,o),
(250,486,o),
(250,358,cs),
(250,230,o),
(336,142,o),
(456,142,cs)
);
}
);
width = 898;
},
{
associatedMasterId = "CAEAD647-A533-4D72-9ACE-F5DE50C4DBD4";
background = {
shapes = (
{
closed = 1;
nodes = (
(250,751,o),
(74,581,o),
(74,353,cs),
(74,125,o),
(250,-46,o),
(468,-46,cs),
(686,-46,o),
(863,125,o),
(863,353,cs),
(863,581,o),
(686,751,o),
(468,751,cs)
);
},
{
closed = 1;
nodes = (
(657,699,o),
(809,553,o),
(809,352,cs),
(809,153,o),
(657,6,o),
(468,6,cs),
(279,6,o),
(128,153,o),
(128,352,cs),
(128,553,o),
(279,699,o),
(468,699,cs)
);
},
{
closed = 1;
nodes = (
(549,142,o),
(614,174,o),
(652,230,c),
(605,263,l),
(577,220,o),
(528,195,o),
(476,195,cs),
(392,195,o),
(330,257,o),
(330,358,cs),
(330,459,o),
(392,521,o),
(476,521,cs),
(528,521,o),
(577,496,o),
(605,453,c),
(652,486,l),
(614,542,o),
(549,574,o),
(476,574,cs),
(356,574,o),
(270,486,o),
(270,358,cs),
(270,230,o),
(356,142,o),
(476,142,cs)
);
}
);
};
color = 9;
layerId = "F422B9C2-310D-4CC5-AAC4-B6C1B95FC747";
name = "new Layer";
shapes = (
{
closed = 1;
nodes = (
(250,751,o),
(74,581,o),
(74,353,cs),
(74,125,o),
(250,-46,o),
(468,-46,cs),
(686,-46,o),
(863,125,o),
(863,353,cs),
(863,581,o),
(686,751,o),
(468,751,cs)
);
},
{
closed = 1;
nodes = (
(657,699,o),
(809,553,o),
(809,352,cs),
(809,153,o),
(657,6,o),
(468,6,cs),
(279,6,o),
(128,153,o),
(128,352,cs),
(128,553,o),
(279,699,o),
(468,699,cs)
);
},
{
closed = 1;
nodes = (
(549,142,o),
(614,174,o),
(652,230,c),
(605,263,l),
(577,220,o),
(528,195,o),
(476,195,cs),
(392,195,o),
(330,257,o),
(330,358,cs),
(330,459,o),
(392,521,o),
(476,521,cs),
(528,521,o),
(577,496,o),
(605,453,c),
(652,486,l),
(614,542,o),
(549,574,o),
(476,574,cs),
(356,574,o),
(270,486,o),
(270,358,cs),
(270,230,o),
(356,142,o),
(476,142,cs)
);
}
);
width = 889;
},
{
associatedMasterId = "CAEAD647-A533-4D72-9ACE-F5DE50C4DBD4";
background = {
shapes = (
{
closed = 1;
nodes = (
(250,758,o),
(68,585,o),
(68,356,cs),
(68,127,o),
(250,-48,o),
(476,-48,cs),
(702,-48,o),
(885,127,o),
(885,356,cs),
(885,585,o),
(702,758,o),
(476,758,cs)
);
},
{
closed = 1;
nodes = (
(639,651,o),
(771,527,o),
(771,356,cs),
(771,185,o),
(639,59,o),
(475,59,cs),
(313,59,o),
(181,185,o),
(181,356,cs),
(181,527,o),
(313,651,o),
(475,651,cs)
);
},
{
closed = 1;
nodes = (
(568,136,o),
(630,167,o),
(665,228,c),
(567,286,l),
(550,258,o),
(524,241,o),
(489,241,cs),
(438,241,o),
(390,283,o),
(390,355,cs),
(390,427,o),
(438,469,o),
(489,469,cs),
(524,469,o),
(550,452,o),
(567,424,c),
(665,482,l),
(630,543,o),
(568,574,o),
(489,574,cs),
(367,574,o),
(268,485,o),
(268,355,cs),
(268,225,o),
(367,136,o),
(489,136,cs)
);
}
);
};
layerId = "C11C1C1C-5772-4826-8B3C-0E90D13B394F";
name = "new Layer";
shapes = (
{
closed = 1;
nodes = (
(250,758,o),
(68,585,o),
(68,356,cs),
(68,127,o),
(250,-48,o),
(476,-48,cs),
(702,-48,o),
(885,127,o),
(885,356,cs),
(885,585,o),
(702,758,o),
(476,758,cs)
);
},
{
closed = 1;
nodes = (
(639,651,o),
(771,527,o),
(771,356,cs),
(771,185,o),
(639,59,o),
(475,59,cs),
(313,59,o),
(181,185,o),
(181,356,cs),
(181,527,o),
(313,651,o),
(475,651,cs)
);
},
{
closed = 1;
nodes = (
(568,136,o),
(630,167,o),
(665,228,c),
(567,286,l),
(550,258,o),
(524,241,o),
(489,241,cs),
(438,241,o),
(390,283,o),
(390,355,cs),
(390,427,o),
(438,469,o),
(489,469,cs),
(524,469,o),
(550,452,o),
(567,424,c),
(665,482,l),
(630,543,o),
(568,574,o),
(489,574,cs),
(367,574,o),
(268,485,o),
(268,355,cs),
(268,225,o),
(367,136,o),
(489,136,cs)
);
}
);
width = 910;
},
{
background = {
shapes = (
{
closed = 1;
nodes = (
(210,758,o),
(28,585,o),
(28,356,cs),
(28,127,o),
(210,-48,o),
(436,-48,cs),
(662,-48,o),
(845,127,o),
(845,356,cs),
(845,585,o),
(662,758,o),
(436,758,cs)
);
},
{
closed = 1;
nodes = (
(599,651,o),
(731,527,o),
(731,356,cs),
(731,185,o),
(599,59,o),
(435,59,cs),
(273,59,o),
(141,185,o),
(141,356,cs),
(141,527,o),
(273,651,o),
(435,651,cs)
);
},
{
closed = 1;
nodes = (
(528,136,o),
(590,167,o),
(625,228,c),
(527,286,l),
(510,258,o),
(484,241,o),
(449,241,cs),
(398,241,o),
(350,283,o),
(350,355,cs),
(350,427,o),
(398,469,o),
(449,469,cs),
(484,469,o),
(510,452,o),
(527,424,c),
(625,482,l),
(590,543,o),
(528,574,o),
(449,574,cs),
(327,574,o),
(228,485,o),
(228,355,cs),
(228,225,o),
(327,136,o),
(449,136,cs)
);
}
);
};
hints = (
{
horizontal = 1;
options = 4;
origin = (0,5);
target = (1,5);
type = TTStem;
},
{
horizontal = 1;
options = 4;
origin = (0,11);
target = (1,11);
type = TTStem;
},
{
horizontal = 1;
options = 4;
origin = (1,5);
other1 = (2,19);
target = (1,11);
type = TTInterpolate;
},
{
horizontal = 1;
options = 8;
origin = (2,19);
target = (2,12);
type = TTStem;
},
{
horizontal = 1;
options = 4;
origin = (1,5);
other1 = (2,25);
target = (2,12);
type = TTInterpolate;
},
{
horizontal = 1;
options = 8;
origin = (2,25);
target = (2,6);
type = TTStem;
},
{
horizontal = 1;
options = 4;
origin = (2,12);
other1 = (2,15);
target = (2,6);
type = TTInterpolate;
},
{
horizontal = 1;
options = 4;
origin = (2,12);
other1 = (2,3);
target = (2,6);
type = TTInterpolate;
}
);
layerId = "474EAD97-6F36-4C8E-8A0A-83C4F7DF9055";
shapes = (
{
closed = 1;
nodes = (
(230,758,o),
(48,585,o),
(48,356,cs),
(48,127,o),
(230,-48,o),
(456,-48,cs),
(682,-48,o),
(865,127,o),
(865,356,cs),
(865,585,o),
(682,758,o),
(456,758,cs)
);
},
{
closed = 1;
nodes = (
(619,651,o),
(751,527,o),
(751,356,cs),
(751,185,o),
(619,59,o),
(455,59,cs),
(293,59,o),
(161,185,o),
(161,356,cs),
(161,527,o),
(293,651,o),
(455,651,cs)
);
},
{
closed = 1;
nodes = (
(548,136,o),
(610,167,o),
(645,228,c),
(547,286,l),
(530,258,o),
(504,241,o),
(469,241,cs),
(418,241,o),
(370,283,o),
(370,355,cs),
(370,427,o),
(418,469,o),
(469,469,cs),
(504,469,o),
(530,452,o),
(547,424,c),
(645,482,l),
(610,543,o),
(548,574,o),
(469,574,cs),
(347,574,o),
(248,485,o),
(248,355,cs),
(248,225,o),
(347,136,o),
(469,136,cs)
);
}
);
width = 913;
}
);
note = "{\"height\":[60,60],\"weight\":[-18,-78],\"width\":[60,60]}";
unicode = 169;
}
{
color = 6;
glyphname = guillemetleft;
kernLeft = guilsinglleft;
kernRight = guilsinglleft;
layers = (
{
background = {
shapes = (
{
closed = 1;
nodes = (
(268,299,l),
(268,255,l),
(421,430,l),
(377,468,l),
(212,277,l),
(377,86,l),
(421,124,l)
);
},
{
closed = 1;
nodes = (
(85,299,l),
(85,255,l),
(238,430,l),
(194,468,l),
(29,277,l),
(194,86,l),
(238,124,l)
);
}
);
};
layerId = "9CA0F1F1-C419-4983-8E88-5CF3F967428B";
shapes = (
{
alignment = -1;
pos = (183,0);
ref = guilsinglleft;
},
{
alignment = -1;
ref = guilsinglleft;
}
);
width = 463;
},
{
background = {
hints = (
{
horizontal = 1;
origin = (0,3);
type = TTSnap;
},
{
horizontal = 1;
origin = (0,5);
type = TTSnap;
},
{
horizontal = 1;
origin = (1,3);
type = TTSnap;
},
{
horizontal = 1;
origin = (1,5);
type = TTSnap;
}
);
shapes = (
{
closed = 1;
nodes = (
(381,338,l),
(381,232,l),
(548,421,l),
(450,507,l),
(258,285,l),
(450,63,l),
(548,149,l)
);
},
{
closed = 1;
nodes = (
(130,338,l),
(130,232,l),
(297,421,l),
(199,507,l),
(7,285,l),
(199,63,l),
(297,149,l)
);
}
);
};
layerId = "5500A485-9BC9-4FA7-853B-8075021C5598";
shapes = (
{
alignment = -1;
pos = (238,0);
ref = guilsinglleft;
},
{
alignment = -1;
pos = (-13,0);
ref = guilsinglleft;
}
);
width = 593;
},
{
associatedMasterId = "9CA0F1F1-C419-4983-8E88-5CF3F967428B";
background = {
shapes = (
{
closed = 1;
nodes = (
(284,296,l),
(278,255,l),
(463,423,l),
(425,465,l),
(223,281,l),
(348,72,l),
(398,107,l)
);
},
{
closed = 1;
nodes = (
(103,296,l),
(97,255,l),
(282,423,l),
(244,465,l),
(42,281,l),
(167,72,l),
(217,107,l)
);
}
);
};
layerId = "B8B1B9F7-57AD-40F6-8824-2C22876E3A5C";
name = "new Layer";
shapes = (
{
alignment = -1;
pos = (181,0);
ref = guilsinglleft;
},
{
alignment = -1;
ref = guilsinglleft;
}
);
width = 473;
},
{
associatedMasterId = "9CA0F1F1-C419-4983-8E88-5CF3F967428B";
background = {
shapes = (
{
closed = 1;
nodes = (
(422,334,l),
(406,238,l),
(605,417,l),
(522,507,l),
(289,295,l),
(438,63,l),
(553,145,l)
);
},
{
closed = 1;
nodes = (
(171,334,l),
(155,238,l),
(354,417,l),
(271,507,l),
(38,295,l),
(187,63,l),
(302,145,l)
);
}
);
};
layerId = "2275FDE9-41F5-43D3-856B-3453FC30E713";
name = "new Layer";
shapes = (
{
alignment = -1;
pos = (251,0);
ref = guilsinglleft;
},
{
alignment = -1;
ref = guilsinglleft;
}
);
width = 614;
},
{
background = {
shapes = (
{
closed = 1;
nodes = (
(268,299,l),
(268,255,l),
(421,430,l),
(377,468,l),
(212,277,l),
(377,86,l),
(421,124,l)
);
},
{
closed = 1;
nodes = (
(85,299,l),
(85,255,l),
(238,430,l),
(194,468,l),
(29,277,l),
(194,86,l),
(238,124,l)
);
}
);
};
layerId = "CAEAD647-A533-4D72-9ACE-F5DE50C4DBD4";
shapes = (
{
closed = 1;
nodes = (
(288,299,l),
(288,255,l),
(441,430,l),
(397,468,l),
(232,277,l),
(397,86,l),
(441,124,l)
);
},
{
closed = 1;
nodes = (
(105,299,l),
(105,255,l),
(258,430,l),
(214,468,l),
(49,277,l),
(214,86,l),
(258,124,l)
);
}
);
width = 503;
},
{
associatedMasterId = "CAEAD647-A533-4D72-9ACE-F5DE50C4DBD4";
background = {
shapes = (
{
closed = 1;
nodes = (
(284,296,l),
(278,255,l),
(463,423,l),
(425,465,l),
(223,281,l),
(348,72,l),
(398,107,l)
);
},
{
closed = 1;
nodes = (
(103,296,l),
(97,255,l),
(282,423,l),
(244,465,l),
(42,281,l),
(167,72,l),
(217,107,l)
);
}
);
};
layerId = "CCAD3403-4344-4832-BF28-8FD1F9574946";
name = "new Layer";
shapes = (
{
alignment = -1;
pos = (181,0);
ref = guilsinglleft;
},
{
alignment = -1;
ref = guilsinglleft;
}
);
width = 473;
},
{
associatedMasterId = "CAEAD647-A533-4D72-9ACE-F5DE50C4DBD4";
background = {
shapes = (
{
closed = 1;
nodes = (
(422,334,l),
(406,238,l),
(605,417,l),
(522,507,l),
(289,295,l),
(438,63,l),
(553,145,l)
);
},
{
closed = 1;
nodes = (
(171,334,l),
(155,238,l),
(354,417,l),
(271,507,l),
(38,295,l),
(187,63,l),
(302,145,l)
);
}
);
};
layerId = "DA7A7FA9-9E54-4725-9112-5939A86F8648";
name = "new Layer";
shapes = (
{
alignment = -1;
pos = (251,0);
ref = guilsinglleft;
},
{
alignment = -1;
ref = guilsinglleft;
}
);
width = 614;
},
{
background = {
hints = (
{
horizontal = 1;
origin = (0,3);
type = TTSnap;
},
{
horizontal = 1;
origin = (0,5);
type = TTSnap;
},
{
horizontal = 1;
origin = (1,3);
type = TTSnap;
},
{
horizontal = 1;
origin = (1,5);
type = TTSnap;
}
);
shapes = (
{
closed = 1;
nodes = (
(381,338,l),
(381,232,l),
(548,421,l),
(450,507,l),
(258,285,l),
(450,63,l),
(548,149,l)
);
},
{
closed = 1;
nodes = (
(130,338,l),
(130,232,l),
(297,421,l),
(199,507,l),
(7,285,l),
(199,63,l),
(297,149,l)
);
}
);
};
hints = (
{
horizontal = 1;
origin = (0,3);
type = TTSnap;
},
{
horizontal = 1;
origin = (0,5);
type = TTSnap;
},
{
horizontal = 1;
origin = (1,3);
type = TTSnap;
},
{
horizontal = 1;
origin = (1,5);
type = TTSnap;
}
);
layerId = "474EAD97-6F36-4C8E-8A0A-83C4F7DF9055";
shapes = (
{
closed = 1;
nodes = (
(401,338,l),
(401,232,l),
(568,421,l),
(470,507,l),
(278,285,l),
(470,63,l),
(568,149,l)
);
},
{
closed = 1;
nodes = (
(150,338,l),
(150,232,l),
(317,421,l),
(219,507,l),
(27,285,l),
(219,63,l),
(317,149,l)
);
}
);
width = 633;
}
);
unicode = 171;
}
{
glyphname = registered;
layers = (
{
background = {
shapes = (
{
closed = 1;
nodes = (
(111,709,o),
(30,631,o),
(30,528,cs),
(30,425,o),
(111,347,o),
(212,347,cs),
(312,347,o),
(393,425,o),
(393,528,cs),
(393,631,o),
(312,709,o),
(211,709,cs)
);
},
{
closed = 1;
nodes = (
(290,670,o),
(352,610,o),
(352,528,cs),
(352,446,o),
(290,386,o),
(212,386,cs),
(133,386,o),
(71,446,o),
(71,528,cs),
(71,610,o),
(133,670,o),
(211,670,cs)
);
},
{
closed = 1;
nodes = (
(171,624,l),
(171,587,l),
(218,587,ls),
(236,587,o),
(247,579,o),
(247,562,cs),
(247,546,o),
(236,538,o),
(218,538,cs),
(172,538,l),
(172,503,l),
(221,503,ls),
(262,503,o),
(291,527,o),
(291,562,cs),
(291,601,o),
(263,624,o),
(220,624,cs)
);
},
{
closed = 1;
nodes = (
(143,624,l),
(143,435,l),
(185,435,l),
(185,624,l)
);
},
{
closed = 1;
nodes = (
(196,517,l),
(248,435,l),
(297,435,l),
(241,517,l)
);
}
);
};
layerId = "9CA0F1F1-C419-4983-8E88-5CF3F967428B";
shapes = (
{
closed = 1;
nodes = (
(111,709,o),
(30,631,o),
(30,528,cs),
(30,425,o),
(111,347,o),
(212,347,cs),
(312,347,o),
(393,425,o),
(393,528,cs),
(393,631,o),
(312,709,o),
(211,709,cs)
);
},
{
closed = 1;
nodes = (
(290,670,o),
(352,610,o),
(352,528,cs),
(352,446,o),
(290,386,o),
(212,386,cs),
(133,386,o),
(71,446,o),
(71,528,cs),
(71,610,o),
(133,670,o),
(211,670,cs)
);
},
{
closed = 1;
nodes = (
(171,624,l),
(171,587,l),
(218,587,ls),
(236,587,o),
(247,579,o),
(247,562,cs),
(247,546,o),
(236,538,o),
(218,538,cs),
(172,538,l),
(172,503,l),
(221,503,ls),
(262,503,o),
(291,527,o),
(291,562,cs),
(291,601,o),
(263,624,o),
(220,624,cs)
);
},
{
closed = 1;
nodes = (
(143,624,l),
(143,435,l),
(185,435,l),
(185,624,l)
);
},
{
closed = 1;
nodes = (
(196,517,l),
(248,435,l),
(297,435,l),
(241,517,l)
);
}
);
width = 423;
},
{
background = {
shapes = (
{
closed = 1;
nodes = (
(115,713,o),
(23,626,o),
(23,511,cs),
(23,397,o),
(115,309,o),
(229,309,cs),
(343,309,o),
(435,397,o),
(435,511,cs),
(435,626,o),
(343,713,o),
(229,713,cs)
);
},
{
closed = 1;
nodes = (
(306,652,o),
(370,593,o),
(370,512,cs),
(370,430,o),
(307,370,o),
(228,370,cs),
(151,370,o),
(88,430,o),
(88,512,cs),
(88,592,o),
(151,652,o),
(228,652,cs)
);
},
{
closed = 1;
nodes = (
(190,617,l),
(190,565,l),
(234,565,ls),
(245,565,o),
(254,561,o),
(254,547,cs),
(254,535,o),
(246,530,o),
(234,530,cs),
(192,530,l),
(192,482,l),
(238,482,ls),
(288,482,o),
(321,507,o),
(321,544,cs),
(321,588,o),
(290,617,o),
(237,617,cs)
);
},
{
closed = 1;
nodes = (
(149,617,l),
(149,407,l),
(214,407,l),
(214,617,l)
);
},
{
closed = 1;
nodes = (
(211,497,l),
(252,407,l),
(322,407,l),
(275,497,l)
);
}
);
};
hints = (
{
horizontal = 1;
options = 4;
origin = (0,11);
target = (1,11);
type = TTStem;
},
{
horizontal = 1;
options = 4;
origin = (0,5);
target = (1,5);
type = TTStem;
},
{
horizontal = 1;
options = 4;
origin = (1,11);
other1 = (2,17);
target = (1,5);
type = TTInterpolate;
},
{
horizontal = 1;
options = 8;
origin = (2,17);
target = (2,2);
type = TTStem;
},
{
horizontal = 1;
options = 4;
origin = (1,5);
other1 = (3,2);
target = (2,2);
type = TTInterpolate;
},
{
horizontal = 1;
options = 4;
origin = (3,2);
target = (4,1);
type = TTShift;
},
{
horizontal = 1;
options = 4;
origin = (2,2);
other1 = (2,9);
target = (3,2);
type = TTInterpolate;
},
{
horizontal = 1;
options = 8;
origin = (2,9);
target = (2,10);
type = TTStem;
},
{
horizontal = 1;
options = 4;
origin = (2,10);
target = (2,14,4,3);
type = TTShift;
}
);
layerId = "5500A485-9BC9-4FA7-853B-8075021C5598";
shapes = (
{
closed = 1;
nodes = (
(115,713,o),
(23,626,o),
(23,511,cs),
(23,397,o),
(115,309,o),
(229,309,cs),
(343,309,o),
(435,397,o),
(435,511,cs),
(435,626,o),
(343,713,o),
(229,713,cs)
);
},
{
closed = 1;
nodes = (
(306,652,o),
(370,593,o),
(370,512,cs),
(370,430,o),
(307,370,o),
(228,370,cs),
(151,370,o),
(88,430,o),
(88,512,cs),
(88,592,o),
(151,652,o),
(228,652,cs)
);
},
{
closed = 1;
nodes = (
(190,617,l),
(190,565,l),
(234,565,ls),
(245,565,o),
(254,561,o),
(254,547,cs),
(254,535,o),
(246,530,o),
(234,530,cs),
(192,530,l),
(192,482,l),
(238,482,ls),
(288,482,o),
(321,507,o),
(321,544,cs),
(321,588,o),
(290,617,o),
(237,617,cs)
);
},
{
closed = 1;
nodes = (
(149,617,l),
(149,407,l),
(214,407,l),
(214,617,l)
);
},
{
closed = 1;
nodes = (
(211,497,l),
(252,407,l),
(322,407,l),
(275,497,l)
);
}
);
width = 458;
},
{
associatedMasterId = "9CA0F1F1-C419-4983-8E88-5CF3F967428B";
background = {
shapes = (
{
closed = 1;
nodes = (
(186,709,o),
(105,631,o),
(105,528,cs),
(105,425,o),
(186,347,o),
(287,347,cs),
(387,347,o),
(468,425,o),
(468,528,cs),
(468,631,o),
(387,709,o),
(286,709,cs)
);
},
{
closed = 1;
nodes = (
(365,670,o),
(427,610,o),
(427,528,cs),
(427,446,o),
(365,386,o),
(287,386,cs),
(208,386,o),
(146,446,o),
(146,528,cs),
(146,610,o),
(208,670,o),
(286,670,cs)
);
},
{
closed = 1;
nodes = (
(246,624,l),
(246,587,l),
(293,587,ls),
(311,587,o),
(322,579,o),
(322,562,cs),
(322,546,o),
(311,538,o),
(293,538,cs),
(247,538,l),
(247,503,l),
(296,503,ls),
(337,503,o),
(366,527,o),
(366,562,cs),
(366,601,o),
(338,624,o),
(295,624,cs)
);
},
{
closed = 1;
nodes = (
(218,624,l),
(218,435,l),
(260,435,l),
(260,624,l)
);
},
{
closed = 1;
nodes = (
(271,517,l),
(323,435,l),
(372,435,l),
(316,517,l)
);
}
);
};
layerId = "B8B1B9F7-57AD-40F6-8824-2C22876E3A5C";
name = "new Layer";
shapes = (
{
closed = 1;
nodes = (
(186,709,o),
(105,631,o),
(105,528,cs),
(105,425,o),
(186,347,o),
(287,347,cs),
(387,347,o),
(468,425,o),
(468,528,cs),
(468,631,o),
(387,709,o),
(286,709,cs)
);
},
{
closed = 1;
nodes = (
(365,670,o),
(427,610,o),
(427,528,cs),
(427,446,o),
(365,386,o),
(287,386,cs),
(208,386,o),
(146,446,o),
(146,528,cs),
(146,610,o),
(208,670,o),
(286,670,cs)
);
},
{
closed = 1;
nodes = (
(246,624,l),
(246,587,l),
(293,587,ls),
(311,587,o),
(322,579,o),
(322,562,cs),
(322,546,o),
(311,538,o),
(293,538,cs),
(247,538,l),
(247,503,l),
(296,503,ls),
(337,503,o),
(366,527,o),
(366,562,cs),
(366,601,o),
(338,624,o),
(295,624,cs)
);
},
{
closed = 1;
nodes = (
(218,624,l),
(218,435,l),
(260,435,l),
(260,624,l)
);
},
{
closed = 1;
nodes = (
(271,517,l),
(323,435,l),
(372,435,l),
(316,517,l)
);
}
);
width = 442;
},
{
associatedMasterId = "9CA0F1F1-C419-4983-8E88-5CF3F967428B";
background = {
shapes = (
{
closed = 1;
nodes = (
(186,713,o),
(94,626,o),
(94,511,cs),
(94,397,o),
(186,309,o),
(300,309,cs),
(414,309,o),
(506,397,o),
(506,511,cs),
(506,626,o),
(414,713,o),
(300,713,cs)
);
},
{
closed = 1;
nodes = (
(377,652,o),
(441,593,o),
(441,512,cs),
(441,430,o),
(378,370,o),
(299,370,cs),
(222,370,o),
(159,430,o),
(159,512,cs),
(159,592,o),
(222,652,o),
(299,652,cs)
);
},
{
closed = 1;
nodes = (
(261,617,l),
(261,565,l),
(305,565,ls),
(316,565,o),
(325,561,o),
(325,547,cs),
(325,535,o),
(317,530,o),
(305,530,cs),
(263,530,l),
(263,482,l),
(309,482,ls),
(359,482,o),
(392,507,o),
(392,544,cs),
(392,588,o),
(361,617,o),
(308,617,cs)
);
},
{
closed = 1;
nodes = (
(220,617,l),
(220,407,l),
(285,407,l),
(285,617,l)
);
},
{
closed = 1;
nodes = (
(282,497,l),
(323,407,l),
(393,407,l),
(346,497,l)
);
}
);
};
layerId = "2275FDE9-41F5-43D3-856B-3453FC30E713";
name = "new Layer";
shapes = (
{
closed = 1;
nodes = (
(186,713,o),
(94,626,o),
(94,511,cs),
(94,397,o),
(186,309,o),
(300,309,cs),
(414,309,o),
(506,397,o),
(506,511,cs),
(506,626,o),
(414,713,o),
(300,713,cs)
);
},
{
closed = 1;
nodes = (
(377,652,o),
(441,593,o),
(441,512,cs),
(441,430,o),
(378,370,o),
(299,370,cs),
(222,370,o),
(159,430,o),
(159,512,cs),
(159,592,o),
(222,652,o),
(299,652,cs)
);
},
{
closed = 1;
nodes = (
(261,617,l),
(261,565,l),
(305,565,ls),
(316,565,o),
(325,561,o),
(325,547,cs),
(325,535,o),
(317,530,o),
(305,530,cs),
(263,530,l),
(263,482,l),
(309,482,ls),
(359,482,o),
(392,507,o),
(392,544,cs),
(392,588,o),
(361,617,o),
(308,617,cs)
);
},
{
closed = 1;
nodes = (
(220,617,l),
(220,407,l),
(285,407,l),
(285,617,l)
);
},
{
closed = 1;
nodes = (
(282,497,l),
(323,407,l),
(393,407,l),
(346,497,l)
);
}
);
width = 482;
},
{
background = {
shapes = (
{
closed = 1;
nodes = (
(111,709,o),
(30,631,o),
(30,528,cs),
(30,425,o),
(111,347,o),
(212,347,cs),
(312,347,o),
(393,425,o),
(393,528,cs),
(393,631,o),
(312,709,o),
(211,709,cs)
);
},
{
closed = 1;
nodes = (
(290,670,o),
(352,610,o),
(352,528,cs),
(352,446,o),
(290,386,o),
(212,386,cs),
(133,386,o),
(71,446,o),
(71,528,cs),
(71,610,o),
(133,670,o),
(211,670,cs)
);
},
{
closed = 1;
nodes = (
(171,624,l),
(171,587,l),
(218,587,ls),
(236,587,o),
(247,579,o),
(247,562,cs),
(247,546,o),
(236,538,o),
(218,538,cs),
(172,538,l),
(172,503,l),
(221,503,ls),
(262,503,o),
(291,527,o),
(291,562,cs),
(291,601,o),
(263,624,o),
(220,624,cs)
);
},
{
closed = 1;
nodes = (
(143,624,l),
(143,435,l),
(185,435,l),
(185,624,l)
);
},
{
closed = 1;
nodes = (
(196,517,l),
(248,435,l),
(297,435,l),
(241,517,l)
);
}
);
};
layerId = "CAEAD647-A533-4D72-9ACE-F5DE50C4DBD4";
shapes = (
{
closed = 1;
nodes = (
(131,709,o),
(50,631,o),
(50,528,cs),
(50,425,o),
(131,347,o),
(232,347,cs),
(332,347,o),
(413,425,o),
(413,528,cs),
(413,631,o),
(332,709,o),
(231,709,cs)
);
},
{
closed = 1;
nodes = (
(310,670,o),
(372,610,o),
(372,528,cs),
(372,446,o),
(310,386,o),
(232,386,cs),
(153,386,o),
(91,446,o),
(91,528,cs),
(91,610,o),
(153,670,o),
(231,670,cs)
);
},
{
closed = 1;
nodes = (
(191,624,l),
(191,587,l),
(238,587,ls),
(256,587,o),
(267,579,o),
(267,562,cs),
(267,546,o),
(256,538,o),
(238,538,cs),
(192,538,l),
(192,503,l),
(241,503,ls),
(282,503,o),
(311,527,o),
(311,562,cs),
(311,601,o),
(283,624,o),
(240,624,cs)
);
},
{
closed = 1;
nodes = (
(163,624,l),
(163,435,l),
(205,435,l),
(205,624,l)
);
},
{
closed = 1;
nodes = (
(216,517,l),
(268,435,l),
(317,435,l),
(261,517,l)
);
}
);
width = 463;
},
{
associatedMasterId = "CAEAD647-A533-4D72-9ACE-F5DE50C4DBD4";
background = {
shapes = (
{
closed = 1;
nodes = (
(186,709,o),
(105,631,o),
(105,528,cs),
(105,425,o),
(186,347,o),
(287,347,cs),
(387,347,o),
(468,425,o),
(468,528,cs),
(468,631,o),
(387,709,o),
(286,709,cs)
);
},
{
closed = 1;
nodes = (
(365,670,o),
(427,610,o),
(427,528,cs),
(427,446,o),
(365,386,o),
(287,386,cs),
(208,386,o),
(146,446,o),
(146,528,cs),
(146,610,o),
(208,670,o),
(286,670,cs)
);
},
{
closed = 1;
nodes = (
(246,624,l),
(246,587,l),
(293,587,ls),
(311,587,o),
(322,579,o),
(322,562,cs),
(322,546,o),
(311,538,o),
(293,538,cs),
(247,538,l),
(247,503,l),
(296,503,ls),
(337,503,o),
(366,527,o),
(366,562,cs),
(366,601,o),
(338,624,o),
(295,624,cs)
);
},
{
closed = 1;
nodes = (
(218,624,l),
(218,435,l),
(260,435,l),
(260,624,l)
);
},
{
closed = 1;
nodes = (
(271,517,l),
(323,435,l),
(372,435,l),
(316,517,l)
);
}
);
};
layerId = "5BF3175D-F413-4B38-B7FB-07222DE65E5C";
name = "new Layer";
shapes = (
{
closed = 1;
nodes = (
(186,709,o),
(105,631,o),
(105,528,cs),
(105,425,o),
(186,347,o),
(287,347,cs),
(387,347,o),
(468,425,o),
(468,528,cs),
(468,631,o),
(387,709,o),
(286,709,cs)
);
},
{
closed = 1;
nodes = (
(365,670,o),
(427,610,o),
(427,528,cs),
(427,446,o),
(365,386,o),
(287,386,cs),
(208,386,o),
(146,446,o),
(146,528,cs),
(146,610,o),
(208,670,o),
(286,670,cs)
);
},
{
closed = 1;
nodes = (
(246,624,l),
(246,587,l),
(293,587,ls),
(311,587,o),
(322,579,o),
(322,562,cs),
(322,546,o),
(311,538,o),
(293,538,cs),
(247,538,l),
(247,503,l),
(296,503,ls),
(337,503,o),
(366,527,o),
(366,562,cs),
(366,601,o),
(338,624,o),
(295,624,cs)
);
},
{
closed = 1;
nodes = (
(218,624,l),
(218,435,l),
(260,435,l),
(260,624,l)
);
},
{
closed = 1;
nodes = (
(271,517,l),
(323,435,l),
(372,435,l),
(316,517,l)
);
}
);
width = 442;
},
{
associatedMasterId = "CAEAD647-A533-4D72-9ACE-F5DE50C4DBD4";
background = {
shapes = (
{
closed = 1;
nodes = (
(186,713,o),
(94,626,o),
(94,511,cs),
(94,397,o),
(186,309,o),
(300,309,cs),
(414,309,o),
(506,397,o),
(506,511,cs),
(506,626,o),
(414,713,o),
(300,713,cs)
);
},
{
closed = 1;
nodes = (
(377,652,o),
(441,593,o),
(441,512,cs),
(441,430,o),
(378,370,o),
(299,370,cs),
(222,370,o),
(159,430,o),
(159,512,cs),
(159,592,o),
(222,652,o),
(299,652,cs)
);
},
{
closed = 1;
nodes = (
(261,617,l),
(261,565,l),
(305,565,ls),
(316,565,o),
(325,561,o),
(325,547,cs),
(325,535,o),
(317,530,o),
(305,530,cs),
(263,530,l),
(263,482,l),
(309,482,ls),
(359,482,o),
(392,507,o),
(392,544,cs),
(392,588,o),
(361,617,o),
(308,617,cs)
);
},
{
closed = 1;
nodes = (
(220,617,l),
(220,407,l),
(285,407,l),
(285,617,l)
);
},
{
closed = 1;
nodes = (
(282,497,l),
(323,407,l),
(393,407,l),
(346,497,l)
);
}
);
};
layerId = "C55EB4C2-62C1-4926-B24D-9540654C9CF6";
name = "new Layer";
shapes = (
{
closed = 1;
nodes = (
(186,713,o),
(94,626,o),
(94,511,cs),
(94,397,o),
(186,309,o),
(300,309,cs),
(414,309,o),
(506,397,o),
(506,511,cs),
(506,626,o),
(414,713,o),
(300,713,cs)
);
},
{
closed = 1;
nodes = (
(377,652,o),
(441,593,o),
(441,512,cs),
(441,430,o),
(378,370,o),
(299,370,cs),
(222,370,o),
(159,430,o),
(159,512,cs),
(159,592,o),
(222,652,o),
(299,652,cs)
);
},
{
closed = 1;
nodes = (
(261,617,l),
(261,565,l),
(305,565,ls),
(316,565,o),
(325,561,o),
(325,547,cs),
(325,535,o),
(317,530,o),
(305,530,cs),
(263,530,l),
(263,482,l),
(309,482,ls),
(359,482,o),
(392,507,o),
(392,544,cs),
(392,588,o),
(361,617,o),
(308,617,cs)
);
},
{
closed = 1;
nodes = (
(220,617,l),
(220,407,l),
(285,407,l),
(285,617,l)
);
},
{
closed = 1;
nodes = (
(282,497,l),
(323,407,l),
(393,407,l),
(346,497,l)
);
}
);
width = 482;
},
{
background = {
shapes = (
{
closed = 1;
nodes = (
(115,713,o),
(23,626,o),
(23,511,cs),
(23,397,o),
(115,309,o),
(229,309,cs),
(343,309,o),
(435,397,o),
(435,511,cs),
(435,626,o),
(343,713,o),
(229,713,cs)
);
},
{
closed = 1;
nodes = (
(306,652,o),
(370,593,o),
(370,512,cs),
(370,430,o),
(307,370,o),
(228,370,cs),
(151,370,o),
(88,430,o),
(88,512,cs),
(88,592,o),
(151,652,o),
(228,652,cs)
);
},
{
closed = 1;
nodes = (
(190,617,l),
(190,565,l),
(234,565,ls),
(245,565,o),
(254,561,o),
(254,547,cs),
(254,535,o),
(246,530,o),
(234,530,cs),
(192,530,l),
(192,482,l),
(238,482,ls),
(288,482,o),
(321,507,o),
(321,544,cs),
(321,588,o),
(290,617,o),
(237,617,cs)
);
},
{
closed = 1;
nodes = (
(149,617,l),
(149,407,l),
(214,407,l),
(214,617,l)
);
},
{
closed = 1;
nodes = (
(211,497,l),
(252,407,l),
(322,407,l),
(275,497,l)
);
}
);
};
hints = (
{
horizontal = 1;
options = 4;
origin = (0,11);
target = (1,11);
type = TTStem;
},
{
horizontal = 1;
options = 4;
origin = (0,5);
target = (1,5);
type = TTStem;
},
{
horizontal = 1;
options = 4;
origin = (1,11);
other1 = (2,17);
target = (1,5);
type = TTInterpolate;
},
{
horizontal = 1;
options = 8;
origin = (2,17);
target = (2,2);
type = TTStem;
},
{
horizontal = 1;
options = 4;
origin = (1,5);
other1 = (3,2);
target = (2,2);
type = TTInterpolate;
},
{
horizontal = 1;
options = 4;
origin = (3,2);
target = (4,1);
type = TTShift;
},
{
horizontal = 1;
options = 4;
origin = (2,2);
other1 = (2,9);
target = (3,2);
type = TTInterpolate;
},
{
horizontal = 1;
options = 8;
origin = (2,9);
target = (2,10);
type = TTStem;
},
{
horizontal = 1;
options = 4;
origin = (2,10);
target = (2,14,4,3);
type = TTShift;
}
);
layerId = "474EAD97-6F36-4C8E-8A0A-83C4F7DF9055";
shapes = (
{
closed = 1;
nodes = (
(135,713,o),
(43,626,o),
(43,511,cs),
(43,397,o),
(135,309,o),
(249,309,cs),
(363,309,o),
(455,397,o),
(455,511,cs),
(455,626,o),
(363,713,o),
(249,713,cs)
);
},
{
closed = 1;
nodes = (
(326,652,o),
(390,593,o),
(390,512,cs),
(390,430,o),
(327,370,o),
(248,370,cs),
(171,370,o),
(108,430,o),
(108,512,cs),
(108,592,o),
(171,652,o),
(248,652,cs)
);
},
{
closed = 1;
nodes = (
(210,617,l),
(210,565,l),
(254,565,ls),
(265,565,o),
(274,561,o),
(274,547,cs),
(274,535,o),
(266,530,o),
(254,530,cs),
(212,530,l),
(212,482,l),
(258,482,ls),
(308,482,o),
(341,507,o),
(341,544,cs),
(341,588,o),
(310,617,o),
(257,617,cs)
);
},
{
closed = 1;
nodes = (
(169,617,l),
(169,407,l),
(234,407,l),
(234,617,l)
);
},
{
closed = 1;
nodes = (
(231,497,l),
(272,407,l),
(342,407,l),
(295,497,l)
);
}
);
width = 498;
}
);
unicode = 174;
}
{
color = 10;
export = 0;
glyphname = macron;
layers = (
{
background = {
anchors = (
{
name = _top;
pos = (197,500);
}
);
shapes = (
{
closed = 1;
nodes = (
(345,612,l),
(345,671,l),
(50,671,l),
(50,612,l)
);
}
);
};
layerId = "9CA0F1F1-C419-4983-8E88-5CF3F967428B";
shapes = (
{
ref = macroncomb;
}
);
width = 395;
},
{
background = {
anchors = (
{
name = _top;
pos = (222,519);
}
);
shapes = (
{
closed = 1;
nodes = (
(394,589,l),
(394,707,l),
(50,707,l),
(50,589,l)
);
}
);
};
layerId = "5500A485-9BC9-4FA7-853B-8075021C5598";
shapes = (
{
ref = macroncomb;
}
);
width = 444;
},
{
background = {
anchors = (
{
name = _top;
pos = (197,500);
}
);
shapes = (
{
closed = 1;
nodes = (
(345,612,l),
(345,671,l),
(50,671,l),
(50,612,l)
);
}
);
};
layerId = "CAEAD647-A533-4D72-9ACE-F5DE50C4DBD4";
shapes = (
{
ref = macroncomb;
}
);
width = 395;
},
{
background = {
anchors = (
{
name = _top;
pos = (222,519);
}
);
shapes = (
{
closed = 1;
nodes = (
(394,589,l),
(394,707,l),
(50,707,l),
(50,589,l)
);
}
);
};
layerId = "474EAD97-6F36-4C8E-8A0A-83C4F7DF9055";
shapes = (
{
ref = macroncomb;
}
);
width = 444;
}
);
unicode = 175;
}
{
glyphname = plusminus;
layers = (
{
background = {
shapes = (
{
closed = 1;
nodes = (
(115,89,l),
(115,32,l),
(485,32,l),
(485,89,l)
);
},
{
closed = 1;
nodes = (
(115,365,l),
(115,308,l),
(485,308,l),
(485,365,l)
);
},
{
closed = 1;
nodes = (
(327,507,l),
(269,507,l),
(269,166,l),
(327,166,l)
);
}
);
};
layerId = "9CA0F1F1-C419-4983-8E88-5CF3F967428B";
shapes = (
{
closed = 1;
nodes = (
(115,89,l),
(115,32,l),
(485,32,l),
(485,89,l)
);
},
{
closed = 1;
nodes = (
(115,365,l),
(115,308,l),
(485,308,l),
(485,365,l)
);
},
{
closed = 1;
nodes = (
(327,507,l),
(269,507,l),
(269,166,l),
(327,166,l)
);
}
);
width = 600;
},
{
background = {
shapes = (
{
closed = 1;
nodes = (
(115,122,l),
(115,0,l),
(485,0,l),
(485,122,l)
);
},
{
closed = 1;
nodes = (
(115,420,l),
(115,298,l),
(485,298,l),
(485,420,l)
);
},
{
closed = 1;
nodes = (
(362,535,l),
(239,535,l),
(239,192,l),
(362,192,l)
);
}
);
};
hints = (
{
horizontal = 1;
options = 4;
origin = (0,1);
target = (0,0);
type = TTStem;
},
{
horizontal = 1;
options = 4;
origin = (1,1);
target = (1,0);
type = TTStem;
},
{
horizontal = 1;
options = 4;
origin = (1,0);
target = (1,3);
type = TTShift;
},
{
horizontal = 1;
options = 4;
origin = (1,1);
target = (1,2);
type = TTShift;
},
{
horizontal = 1;
options = 4;
origin = (0,0);
other1 = (2,2);
target = (1,1);
type = TTInterpolate;
}
);
layerId = "5500A485-9BC9-4FA7-853B-8075021C5598";
shapes = (
{
closed = 1;
nodes = (
(115,122,l),
(115,0,l),
(485,0,l),
(485,122,l)
);
},
{
closed = 1;
nodes = (
(115,420,l),
(115,298,l),
(485,298,l),
(485,420,l)
);
},
{
closed = 1;
nodes = (
(362,535,l),
(239,535,l),
(239,192,l),
(362,192,l)
);
}
);
width = 600;
},
{
associatedMasterId = "9CA0F1F1-C419-4983-8E88-5CF3F967428B";
background = {
shapes = (
{
closed = 1;
nodes = (
(73,89,l),
(59,32,l),
(429,32,l),
(443,89,l)
);
},
{
closed = 1;
nodes = (
(142,365,l),
(127,308,l),
(497,308,l),
(512,365,l)
);
},
{
closed = 1;
nodes = (
(391,507,l),
(329,507,l),
(244,166,l),
(306,166,l)
);
}
);
};
layerId = "B8B1B9F7-57AD-40F6-8824-2C22876E3A5C";
name = "new Layer";
shapes = (
{
closed = 1;
nodes = (
(73,89,l),
(59,32,l),
(429,32,l),
(443,89,l)
);
},
{
closed = 1;
nodes = (
(142,365,l),
(127,308,l),
(497,308,l),
(512,365,l)
);
},
{
closed = 1;
nodes = (
(391,507,l),
(329,507,l),
(244,166,l),
(306,166,l)
);
}
);
width = 600;
},
{
associatedMasterId = "9CA0F1F1-C419-4983-8E88-5CF3F967428B";
background = {
shapes = (
{
closed = 1;
nodes = (
(80,122,l),
(50,0,l),
(420,0,l),
(450,122,l)
);
},
{
closed = 1;
nodes = (
(154,420,l),
(124,298,l),
(494,298,l),
(524,420,l)
);
},
{
closed = 1;
nodes = (
(436,535,l),
(303,535,l),
(217,192,l),
(350,192,l)
);
}
);
};
layerId = "2275FDE9-41F5-43D3-856B-3453FC30E713";
name = "new Layer";
shapes = (
{
closed = 1;
nodes = (
(80,122,l),
(50,0,l),
(420,0,l),
(450,122,l)
);
},
{
closed = 1;
nodes = (
(154,420,l),
(124,298,l),
(494,298,l),
(524,420,l)
);
},
{
closed = 1;
nodes = (
(436,535,l),
(303,535,l),
(217,192,l),
(350,192,l)
);
}
);
width = 600;
},
{
background = {
shapes = (
{
closed = 1;
nodes = (
(115,89,l),
(115,32,l),
(485,32,l),
(485,89,l)
);
},
{
closed = 1;
nodes = (
(115,365,l),
(115,308,l),
(485,308,l),
(485,365,l)
);
},
{
closed = 1;
nodes = (
(327,507,l),
(269,507,l),
(269,166,l),
(327,166,l)
);
}
);
};
layerId = "CAEAD647-A533-4D72-9ACE-F5DE50C4DBD4";
shapes = (
{
closed = 1;
nodes = (
(135,89,l),
(135,32,l),
(505,32,l),
(505,89,l)
);
},
{
closed = 1;
nodes = (
(135,365,l),
(135,308,l),
(505,308,l),
(505,365,l)
);
},
{
closed = 1;
nodes = (
(347,507,l),
(289,507,l),
(289,166,l),
(347,166,l)
);
}
);
width = 640;
},
{
associatedMasterId = "CAEAD647-A533-4D72-9ACE-F5DE50C4DBD4";
background = {
shapes = (
{
closed = 1;
nodes = (
(73,89,l),
(59,32,l),
(429,32,l),
(443,89,l)
);
},
{
closed = 1;
nodes = (
(142,365,l),
(127,308,l),
(497,308,l),
(512,365,l)
);
},
{
closed = 1;
nodes = (
(391,507,l),
(329,507,l),
(244,166,l),
(306,166,l)
);
}
);
};
layerId = "ABA5A4D1-8EE7-4C8D-BEE1-E00D37564DBB";
name = "new Layer";
shapes = (
{
closed = 1;
nodes = (
(73,89,l),
(59,32,l),
(429,32,l),
(443,89,l)
);
},
{
closed = 1;
nodes = (
(142,365,l),
(127,308,l),
(497,308,l),
(512,365,l)
);
},
{
closed = 1;
nodes = (
(391,507,l),
(329,507,l),
(244,166,l),
(306,166,l)
);
}
);
width = 600;
},
{
associatedMasterId = "CAEAD647-A533-4D72-9ACE-F5DE50C4DBD4";
background = {
shapes = (
{
closed = 1;
nodes = (
(80,122,l),
(50,0,l),
(420,0,l),
(450,122,l)
);
},
{
closed = 1;
nodes = (
(154,420,l),
(124,298,l),
(494,298,l),
(524,420,l)
);
},
{
closed = 1;
nodes = (
(436,535,l),
(303,535,l),
(217,192,l),
(350,192,l)
);
}
);
};
layerId = "DBD48C1F-FB75-4D6D-96EA-7C080C96B3A7";
name = "new Layer";
shapes = (
{
closed = 1;
nodes = (
(80,122,l),
(50,0,l),
(420,0,l),
(450,122,l)
);
},
{
closed = 1;
nodes = (
(154,420,l),
(124,298,l),
(494,298,l),
(524,420,l)
);
},
{
closed = 1;
nodes = (
(436,535,l),
(303,535,l),
(217,192,l),
(350,192,l)
);
}
);
width = 600;
},
{
background = {
shapes = (
{
closed = 1;
nodes = (
(115,122,l),
(115,0,l),
(485,0,l),
(485,122,l)
);
},
{
closed = 1;
nodes = (
(115,420,l),
(115,298,l),
(485,298,l),
(485,420,l)
);
},
{
closed = 1;
nodes = (
(362,535,l),
(239,535,l),
(239,192,l),
(362,192,l)
);
}
);
};
hints = (
{
horizontal = 1;
options = 4;
origin = (0,1);
target = (0,0);
type = TTStem;
},
{
horizontal = 1;
options = 4;
origin = (1,1);
target = (1,0);
type = TTStem;
},
{
horizontal = 1;
options = 4;
origin = (1,0);
target = (1,3);
type = TTShift;
},
{
horizontal = 1;
options = 4;
origin = (1,1);
target = (1,2);
type = TTShift;
},
{
horizontal = 1;
options = 4;
origin = (0,0);
other1 = (2,2);
target = (1,1);
type = TTInterpolate;
}
);
layerId = "474EAD97-6F36-4C8E-8A0A-83C4F7DF9055";
shapes = (
{
closed = 1;
nodes = (
(135,122,l),
(135,0,l),
(505,0,l),
(505,122,l)
);
},
{
closed = 1;
nodes = (
(135,420,l),
(135,298,l),
(505,298,l),
(505,420,l)
);
},
{
closed = 1;
nodes = (
(382,535,l),
(259,535,l),
(259,192,l),
(382,192,l)
);
}
);
width = 640;
}
);
unicode = 177;
}
{
color = 10;
export = 0;
glyphname = twosuperior;
kernLeft = twosuperior;
kernRight = twosuperior;
layers = (
{
background = {
shapes = (
{
closed = 1;
nodes = (
(91,622,o),
(107,654,o),
(152,654,cs),
(184,654,o),
(207,633,o),
(207,604,cs),
(207,577,o),
(192,560,o),
(172,538,cs),
(41,395,l),
(41,350,l),
(268,350,l),
(268,401,l),
(93,401,l),
(102,384,l),
(214,505,ls),
(236,529,o),
(266,559,o),
(266,606,cs),
(266,663,o),
(223,706,o),
(152,706,cs),
(74,706,o),
(43,653,o),
(34,606,c),
(83,590,l)
);
}
);
};
layerId = "9CA0F1F1-C419-4983-8E88-5CF3F967428B";
shapes = (
{
alignment = -1;
pos = (0,350);
ref = two.dnom;
}
);
width = 308;
},
{
background = {
shapes = (
{
closed = 1;
nodes = (
(110,586,o),
(122,615,o),
(157,615,cs),
(180,615,o),
(193,602,o),
(193,586,cs),
(193,571,o),
(187,559,o),
(167,540,cs),
(24,405,l),
(24,322,l),
(303,322,l),
(303,414,l),
(115,414,l),
(134,385,l),
(244,480,ls),
(267,499,o),
(304,537,o),
(304,592,cs),
(304,658,o),
(260,710,o),
(157,710,cs),
(61,710,o),
(24,648,o),
(14,597,c),
(106,567,l)
);
}
);
};
layerId = "5500A485-9BC9-4FA7-853B-8075021C5598";
shapes = (
{
alignment = -1;
pos = (0,322);
ref = two.dnom;
}
);
width = 328;
},
{
background = {
shapes = (
{
closed = 1;
nodes = (
(91,622,o),
(107,654,o),
(152,654,cs),
(184,654,o),
(207,633,o),
(207,604,cs),
(207,577,o),
(192,560,o),
(172,538,cs),
(41,395,l),
(41,350,l),
(268,350,l),
(268,401,l),
(93,401,l),
(102,384,l),
(214,505,ls),
(236,529,o),
(266,559,o),
(266,606,cs),
(266,663,o),
(223,706,o),
(152,706,cs),
(74,706,o),
(43,653,o),
(34,606,c),
(83,590,l)
);
}
);
};
layerId = "CAEAD647-A533-4D72-9ACE-F5DE50C4DBD4";
shapes = (
{
alignment = -1;
pos = (0,350);
ref = two.dnom;
}
);
width = 308;
},
{
background = {
shapes = (
{
closed = 1;
nodes = (
(110,586,o),
(122,615,o),
(157,615,cs),
(180,615,o),
(193,602,o),
(193,586,cs),
(193,571,o),
(187,559,o),
(167,540,cs),
(24,405,l),
(24,322,l),
(303,322,l),
(303,414,l),
(115,414,l),
(134,385,l),
(244,480,ls),
(267,499,o),
(304,537,o),
(304,592,cs),
(304,658,o),
(260,710,o),
(157,710,cs),
(61,710,o),
(24,648,o),
(14,597,c),
(106,567,l)
);
}
);
};
layerId = "474EAD97-6F36-4C8E-8A0A-83C4F7DF9055";
shapes = (
{
alignment = -1;
pos = (0,322);
ref = two.dnom;
}
);
width = 328;
}
);
unicode = 178;
}
